<mxfile host="65bd71144e">
    <diagram id="sIe8duD9IPxlYxZ3p5fN" name="Page-1">
        <mxGraphModel dx="925" dy="664" grid="1" gridSize="10" guides="1" tooltips="1" connect="1" arrows="1" fold="1" page="1" pageScale="1" pageWidth="827" pageHeight="1169" math="0" shadow="0">
            <root>
                <mxCell id="0"/>
                <mxCell id="1" parent="0"/>
                <mxCell id="2" value="" style="shape=image;verticalLabelPosition=bottom;labelBackgroundColor=#ffffff;verticalAlign=top;aspect=fixed;imageAspect=0;image=data:image/png,iVBORw0KGgoAAAANSUhEUgAAA4oAAAD+CAYAAAB81vuyAAAgAElEQVR4Aey9h5cVxdr2/f4V31rfetfzrSedo55jICg5DTlKVJAMKkkyEidnMiqgAmbBnEWCwKQ9AbMej8fsOeZIngjI9a1f9b5n997MMIMHBLWaVXTv7qq77rqqek9dfd3V+/9UVVXJJ4+BHwN+DPgx4MeAHwN+DPgx4MeAHwN+DPgx4MeAjYH/Ywd+7weFHwN+DPgx4MeAHwN+DPgx4MeAHwN+DPgx4McAY8ATRa+oekXZjwE/BvwY8GPAjwE/BvwY8GPAjwE/BvwYiBsD/0d+8wh4BDwCHgGPgEfAI+AR8Ah4BDwCHgGPQAgBTxRDYPhDj4BHwCPgEfAIeAQ8Ah4Bj4BHwCPgEZA8UfSjwCPgEfAIeAQ8Ah4Bj4BHwCPgEfAIeATiEPBEMQ4O/8Ej4BHwCHgEPAIeAY+AR8Aj4BHwCHgEPFH0Y8Aj4BHwCHgEPAIeAY+AR8Aj4BHwCHgE4hDwRDEODv/BI+AR8Ah4BDwCHgGPgEfAI+AR8Ah4BDxR9GPAI+AR8Ah4BDwCHgGPgEfAI+AR8Ah4BOIQ8EQxDg7/wSPgEfAIeAQ8Ah4Bj4BHwCPgEfAIeAQ8UfRjwCPgEfAIeAQ8Ah4Bj4BHwCPgEfAIeATiEDhronjq1CmdPHlSx48fV11dnUsc//zzz+LaH3UDg+rqalVVVTlszjcW4F1bW6tjx465PfWd7zqxTzvDfW9jILw/ceKE84X8f/Rx8Ue9H3y7PQIeAY+AR8Aj4BHwCHgEftsInDVRZOL/ww8/6L333tP+/fv1xhtv6B//+IcOHTpUTyLON2G5GCH/6KOPtHbtWm3evFn//Oc/z7mLYUwhYkePHtXu3buVm5vr9hBU+uZ8bhDT999/X++8845Lb7/9ttu/9dZbevPNN8We9OGHHzrSjD+eKJ7PHvG2PQIeAY+AR8Aj4BHwCHgEPALnB4FmE0Um/IcPH9b27duVkZGhSZMmadCgQRo3bpw7hiQVFxfrp59+coTx/Lh7cVoFG4hzcnKyVq1apc8+++ycOWoE8fvvv9ezzz4rCCnnUC+fe+45LViwwJ2HKFrec1Z5giH69tZbb9XkyZN14403ur4fO3asxowZo/Hjx2vixIkupaam6vPPPz/vxDXBPf/RI+AR8Ah4BDwCHgGPgEfAI+AROEcINIsoQkBQsR555BENHDhQ7du314gRI7R06VJBCkaNGqVOnTpp9OjRKigocOGXlCFBoihribDVMKHhmHPkI3FsKXyO8pbPylv+cD4ra3XbZ/acs2TnKWvnwnY4x2bn2FuZsC/WD5AoSNynn36qmpoaOx1nI7FcuF5shzEK10dY54svvqg+ffro8ccfd34Q/vndd985gvrjjz+6NlCezcom2rM2sScP19nbMZ8Np7gGRD/QxuzsbNfvixcv1qxZs9SlSxd169ZNU6dO1aJFi7Rw4UKtWbPG4WD+UNzqNAzZW73mg2GQ6EO4rPloeRLbxPlEO5anoTb5cx4Bj4BHwCPgEfAIeAQ8Ah4Bj8DpCDRJFJlkQ0oILYQI9uzZU3l5eY6gfPPNNy4MlXBE1DQUxiVLlriwSMgN4ZGvv/667rrrLi1btsypbRBJQlfZIAgoT08++aReeukll7+8vFz33HOPtm7dqm+//dadKyoqcmGdd955p7766iu3Lg+fqJeyXP/6669dCOaWLVv0/PPPuzwQKAgWaufTTz/t7BnRoMxDDz3kwmchdpyvrKx0Kt0TTzyhDz74wPmIUkhZ/Pryyy/1wgsvKCcnRw888ICrH2UPX2gHPlMf6p9tqLCvvvqqu3bvvfc6RRaCRxnazwYBAxcI1vLly119nEMlpPwzzzzjyHjHjh0FQUNJ5Pprr73msCIEmDZgD9y/+OILZyMrK8sReQj+xx9/XF8f7TSfUD8ht2C+cuVK1w8HDx40992eMUDCNn1H+8B7x44d6tGjh/r16+dw4fwnn3wi+oC2UqdthK0SpvzYY4/pqaeecv2IXw8//LAj2LQFTDdu3Kg9e/a49llfgQNjgfo2bdqkdevWKRKJ1K/PpN3Yp26INP2DsgtO+Gmk0nzxe4+AR8Aj4BHwCHgEPAIeAY+AR+DMCDRJFCkOsYDs9e3bV/3793fr0MKqGQQCwlFYWOgIFtcgiazXGzp0qAYMGODKoUb26tXLEU0jU2VlZRo5cqQLXYQoXH/99S4vKlVaWpojBMOHD3dqWlJSkmbOnOnWQ+IXoZjDhg3TvHnznH+onNTRu3dvrV692pGGwYMHO3vUC5mFeEF6ILT4BYGF7EEmjhw54s5xHgJKPkgNbb7lllsckbrhhhscMeratatT1FifyQbxgiijrP397393pAzCtWHDBg0ZMkS0wXxBiWUdI+QG7NLT011Z/McGyuGcOXPcWr9//etfLswTFZfENZQ8yCakCkwgTpBi84OwYMgb/QU+2CRc9JVXXnFtgmxDpigLKSaMlLzYBifIG0QW/4xkGVm0PddLSkpcfvB5+eWXXZvBNz8/39mGNEP2KEN/Z2ZmOn9QJVFfqbddu3aOWBLCijJ97bXXOvL54IMPuvopDxGmj2kT44k84Hn//fe7vgND1k1OmTLFtZVr1113nctH/9Je2uE3j4BHwCPgEfAIeAQ8Ah4Bj4BHoHkINIsooiIx4Ya8QeRQeGxjAk4ydYyJPRP3iooKRzwgESiBKHMoRRMmTHDk4r777nMEFGUIAoXtadOmORUIxbJ79+5OvWTtG0rdihUrXB4Uzb179zoCApmD2EDaIJUoToQ+QqhQuiBUkEmuERoLiYR0QHIgHpyDMFl7IHbYgzBRJwQH1Qt7nIfQoVLRHj537tzZEUraXFpa6kgK6/UgLZBlywdxoxx1QyQhsqicqGT79u1zJA6/UTlR1mgzeVA88Q3iyWfqhHyjbNKG9evXO99QIvEdhZd2EQ5qJBu/8LtDhw5ufSEKGyklJUWtW7d2xA2b4IQPqJbUby8nsn62fWNEkXaAA+OABwbgj6LJ2OEc7YK0QkghlSi2kNdWrVq5dY3gwctxUDVtnKGMUh51kL6aPXu2U6gpD8mE0PPiHMgpiij9BqFHIUVdhEAzpuhLxqTfPAIeAY+AR8Aj4BHwCHgEPAIegeYh0CRRhBhAQHiJCQoUE3ELc0wkiVYlk3IUyLZt27pyqGeUQfVi8g6xQ0FCqeQFOJBJyAFEknOQG5Q7yCIkiJ+AIPSVMhBFlEfULsIY+Uw+1DLqIEwUUoWvkDzyQSxRoSCKqFxsvAQGNYtQT+qknZAjyIeRNNoHycA3FCqIHMSNdqD40T7aiRJJOyhHeC6kCMyoDz9uv/12VwZfeCsoShhtxQ6khrL4SJguZBIChW3IE4QQsgTBQlGD0EG8aKsRRdTTAwcOuPBY8lGv+Yq/2Idkch4FFzUS4t+iRQv31lTaDQYQMHCiHogcdYNLeEskirQZzCCHbPhGyCkEjT589913nepHyO7VV1/tFGHGA0SOdrZp08YpkGCBbfoehZl2gBEPGFAKIeu33XabOwdWvFAJMor6SRjuo48+6sYR+FMXCi9jhnBX/IHE+s0j4BHwCHgEPAIeAY+AR8Aj4BFoHgJNEkUm/qhVKFRMzCFrEB4m9aYkkofNSAXEjtBOiMEdd9zhFB9IB6SFUEfsoMYRnkr4IsQEIoM6hA0m+LxBExKCSkhZQltRCFGNIIqQUcgBtigPmWKDRKBcQV4gRWwofBA9iBLrF9mMKKIoEnrKht/kgaRY+CVEkTpQsAgzpc3kh8RBNFG7ICoQM0grfkP2UAEhifjBujnaTtvAij0J8gKhBKP58+c7EkU9tAe1jxBNSCgkCnxIEEXKcR4fjFDSRyiQkFpUTQgSdZFQ6lBt8Yf2QxQJw6V/tm3bVq8EQlTpX+qhX8C9sQ0fUIPpD9rIGkvb8IV1ipxH9aVv8JU2sXYR3yGLqKsQRci7jSlwM9UVos/aUMJNwZo2QD5pH33MAwIwYhwxZiCUjCvy3XTTTS7UFSUXImxj1Hz0e4+AR8Aj4BHwCHgEPAIeAY+AR6BxBJokihRFvSK0DyUQIsWLWyBqRkQ4Zh0YShpr6piYQ8QIK0RNgzhAsCAekDsIBKQFYmZEETIGecAWJAcyAGGD+EFKUKCmT5/uiAnr18hniiKKpBFFQiAhEZyDsLFBFFm3Rr0QLTZCNK+55hoXgokfbIRkkgfyA0mhjkSiiC+NEUUIFgQFNQscII6QFlRO6jCiCJ7YgDARFkp9hKeihEGMIYsQKMJDIaGofWBBguhhB3sobKa0gTEhpPQR2EH6rL6//e1vbp0kJHLnzp2ur7AdJorktbDXf5co0j6w56dTUBYhf7QPwofyC66EldKfLVu2dPgwNjhPXggfPoC9hfSifrJeFOKIQgox5xr1gCVlwZyxAQlGlQRX1mdCViGifvMIeAQ8Ah4Bj4BHwCPgEfAIeASah0CTRBECwSQbdY6XskA2CHlkos/aMAgLxJH1eLyMBYLIeQgiKhA/mUDoHxN5yAzKEqSQF5dAgFClIHWQKsgmJAOSQwghyhqkAJIJUTSlKUwUTVG0l+MQrgghgVRB2ExRs/VxvEGUc/gFUeTlOLbmDxIFgaUsRBFSGCaKvGUVQkObCfcMK4oW3gk5wn/ygBeqKC+dgchyDnLDZ8gjCiWhnqhgvPSG65Bl1ghyjvBKiCK44RPkCbKED6hoRhRtjSI+kA9SDAEHXxLH+EF58tBeftaE9tNO7IEx60pR7OgLytD+xjauYctCT8OKIn2NCkodtANcaSfkFGWY8YSSComEAPJyHz5D+LCJ//Q9pBmSC/lmjSV2aA94kJ+wXfDBHvUxDln3yViAcFI/qiPEG9t+8wh4BDwCHgGPgEfAI+AR8Ah4BJqHQJNEETOQRcgELyeBmEEOmNyz1g7iwnkIFsQIlQ+yh/JDXkgHYYh8hqRBRIw8MXmHnFAOssjkHxKH6kQIJOoexIpzEEVCTykLuYHYoBRZ6KMpirt373YqHvZQJtlYJ2f12ho/fOLFLdiD+BKiyLpDlDxTsyA8vHQHlY71dBBe6oWkscaPvLx8BZKCn5AbiCLrEAk1JcySspBU2g7ZZo0nmFAOMkPbIVPYo90otxAlwjR5eQt5INDYQD0kVBaFlDWJkHHOQRRRcUmQLyPokDcSZVAPwQ8yBc6QKPKh8EK0aBdrFMEjTBQ539DGeWyTl34KE0X6izHD2IAgopqirNJfED3GEuGvhNuCIcSe8FtCZGkT5A6yjMILEaR94Ai5Z7yAIy88uvnmm914g/hSDrwIbYZcYuvuu+924wrl0hPFhnrRn/MIeAQ8Ah4Bj4BHwCPgEfAINIxAs4giRZn8QzIgWKh9KFeQCogApMwm7RA21CbIE6QH5RCSQDghZI1jVEX7yQJTsVhDCHmAgLDeDGIGgYAUQDxRoggX5RzrB/EH8gXRQslExWTjpSrUScghdthQ7lCVKLt9+3bnHy9JmTFjhiOztIG3sUIKsYVNU9pYX0j7UB4hitQL2WENJuQYEkPdEEXso3piGwwgOrytFawgvihjhO5SFt8gQbwMB4IJLvgIAYfMQgx5wyx4Y4ewUvLhK3VwDnIEgUKNJIwVAotCy3XaT33YBFvIEmGaEFj6CKLF21FpH75C7FARaQM+kpe+aIwoggOKLdiYgunAjv5HOdacQpyxR3/yghzqItHX9CdKIUSdY4g6vjK+du3a5Qgs5rDDwwj6hTWgkGFCWSHbjEnaTYjy3LlzXX20n76lT7FJmCrk1G8eAY+AR8Aj4BHwCHgEPAIeAY9A8xBoNlE0c0zKUbRYKweJIQwU5QgSBVlhgyRABiBCqGRcR91BUYJQoYaxQU5YVwZZQQniPGUhEYQdkt8IJeSGsFKUP4gYG8SDsvhiRADiwGeUTcqy4QflCPc0VRCFCZUS/yGIkCTCFlHGIIm0Ef+oC+JG2CMhj2yUpV34bKoldWGffJBkNtqC35yDEFIXvuGD+YtvrKvkBT2oe1yDzEHUaBt4gau1n3zYoBxrCvnMHp8gsJTFBnlQNHnBDfYJacUf2kQ+7NJOMIT0sUHG6SsSRJS8jW1cQzkFAxL9aPmpBzUWHyHYKLeomtTLNcYGWEPiCH8Fc35XkfYTlsvDAxtL1I8txgQ4btq0yamPhKgSYgqOKKIk/KcPCMmFRDIGaB/lzbfG2uPPewQ8Ah4Bj4BHwCPgEfAIeAQ8AjEEzpooQiqYeKPyQU5IHDP55xoTcsiAJSbwkJfEvDZxJx/lsWkTemxxjrIQAeySzwiB5eMadjlPGWxyLlyWc1wjj9Vj9siLbyS7hm1ssg+3NVwHvljdlo/PVgfX2cwfa7vhQF6ukaxdlgdf7Rz2sM9nO0c+fMUGyY7NHj6bL2bTfOca+SwP1w03/OXYcAifjw2X2BF2yGNtpk7skniYAElE8UUFJTSVkGBsU4YE8Vu8eLELPUXxM5Jr7aO9tiXiBI7USx6r09pEHdan2DK/zJbfewQ8Ah4Bj4BHwCPgEfAIeAQ8Ak0jcNZEsSmTYcJix+Eydu6Pvg9j8ns5hqxBbCF+hBpDEEmoiSiIkDjInRFFQnBZJ4l6DKmjvI2L5mJi+ZvaN9eez+cR8Ah4BDwCHgGPgEfAI+AR8AhI550oJoLc1IT+j3I9EZffw2dIIGTwpZdecuswIYiEvhKKG1YIjSguX77crTlkfaGpg9b/zcXD8je1b649n88j4BHwCHgEPAIeAY+AR8Aj4BE4D0QRUMOTdg/yHwcBFEEjgfx8CusqIY6MB67ZxjEKIj83wlpQwlDZyOc3j4BHwCPgEfAIeAQ8Ah4Bj4BH4MIjcM4VRZrkieKF71jvgUfAI+AR8Ah4BDwCHgGPgEfAI+AR+KUIeKL4S5Hz5TwCHgGPgEfAI+AR8Ah4BDwCHgGPwO8UAU8Uf6cd65vlEfAIeAQ8Ah4Bj4BHwCPgEfAIeAR+KQLnhSj+Umd8OY+AR8Aj4BHwCHgEPAIeAY+AR8Aj4BG48Ah4onjh+8B74BHwCPyOEOCVTD55DPwY8GPgXI2B05H8HX1h+qZ4BDwCFzUCnihe1N3jnfMIeAR+awgwOeQdv0E6pZ/lk8fAjwE/Bs52DMS+QyhpnwLS+Fv7VvT+egQ8Ar9VBDxR/K32nPfbI+ARuEgQOJ0a/iz7d1I/K5ZO6qRORBPH9i+cJ/H4l5axclYH+0TbiZ+tDD7av8Q8iZ8bKsO5xHzhz79mGauLvf0L+5J4bHkS+ykxX+JnyiWW4VxivvDnX7OM1cXe/oV9STy2PIltSsyX+JlyiWU4l5gv/PliL2P+sbd/Yf8bOrYyYBH+11BeOxdfxs4G3yUxmsn3jd88Ah4Bj8Cvg4Anir8Ozr4Wj4BH4HeHQHMmbOQ55f6hqJzUKZ2IJo5JnE/8Z2U4Hy5nZRoq92uWsbrCvtEu8y+xTeQ/2zK03cr8lnAwDBrrI2tTc7H7LeCAj2fbR/8ODmAXxq8pzH+Jf79WmcZxkE6GdETTFJvzrfO7+6r1DfIIeAQuGAKeKF4w6H3FHgGPwG8XAaZrTN2i07aA0wQfbUYX3p/i92WDEkz+4iaA0Wv1CxtD5VyZU0H+uDLU3EidiWXC5eLKWBOizXDlor79u2V+bqxNFxCHEKyNYkcfeByCYX0ucXBDtaHxega8mxxDZ3lf0LfYZGyHx7cb/g35dh7ui1+EQwJZxIbfPAIeAY/Ar4VAs4jizz//rFOnTok9W01Njaqrq1VZWemTx8CPAT8GzvkYqKqqUl1dnY4fP64TJ078Wt+Hza4HPePEiTr9fPKk6mpqdbzuuOpq6lR9rFLHq6pdOlFZrSDV6ERljY5X1aiuqka11UHi2BLXyGPpZPQ4sUztWZapoa7mlKmM+lZVI1emOuYbPh5P8K0x/6w9rkyoTeQ/2zJgca7K0Ka6UJsaxfsPgMN5Hw/R8c04jxsP/+YYOuN4CNXl+jZh7FE2fC81eF80VOYM4wF7ifeF3b/hun4JDjXV1Qqn2ppaVVfXqJp7ue64m4sxH7O5GfMzkt8uHgRsvmx9Y/uLx0PviUegeQg0SRRPnjwpEpO2Q4cO6e9//7ueeeYZbdy40SePgR8DfgyclzFw55136vHHH9cXX3zhiKL90W3e19r5z/XzqZP6+ecTOnnihN587XXt3P6SHrjnXm3euFF337FWm+9Yqy3RtPn2Ndpy+xqx5/ym9Wt19/q12nTHmvpEXpfvjrW65/a1uue2WBmXL1rm7juiNthH7VKWMvfevra+nk23rzmtHlc3ZaJ+WRn2zr+oP8639UEbqHvzHYEvrhy+RRNlYvWs0d3rY765cnH+rYm2KWhnrE1gEKrLyty+Jr5NhpVhF/WPNhlu+EMCB3zkPPWA2ZnbFCsTj0OAocMtirvVwb4eB+d/rC761/lFX4NdyMf6MvgXvQ5u+Gg41Lcp2h7KWN9iK65NUVwSyxgOrj3RcRfgEGuT+RjfpqBdzuf68dBAGWtTdKzeg68Oh7VRvIM2WR3s4+uxMR7CIdpXtK++XNQuZakjSMG9RR5rE3srE8Z7y22hvrV+cmMo6K9wXZQzH7n/wL0eh2iZoJ+Csu6+OK2M4RAdD5QL91H03rO6XHvsXnd9y3fDGt21fo3uJG1Yqzs3rNOWu+/Slrs36Zknn9J77/5dR44cqf9eNALiieL5/95vTg30A3+vmDNbn4T7yM41x9a5yMOD1rAv58LmmWz82u07ky/+2rlBoEmiyIDnqf7hw4f15JNP6pZbbtGcOXO0ePFiLVu2rNGUnJzc4LXGzp/Jll0Llw0f2/Xm7H9puebYPld5GvMxfD583Jx6zza/2QyXCx/b9cT92eZpTv7EOvjcnHLhPI0dN2S7uefCNhsqE77e2HFD5TgXzh/O09h5y9PU9TPZNhuJecI2w8fh/OfiOGx7yZIlmj59uthXVFS4KIZz85V3bqwcP1Grgwd/1P333quZ02do9oxbtGT+rVo8b64WzZ2sRXPHa/Gc8VoyZ7yWzg4Sx5zjml3nczjfkmjeZVZmdqzMwqjNxDJmv76M1WN1RT9bPa6OqF+UOa0c/oXKUG5pqB1WBjvNaRP+WRmOz1gm2u5G29QM7JINO8MhWibcpnC/OP9mRXGwMoZdCPPTyjSGXaiMYR5uT4N4N1AmPBaWzWp4DJ2xTYZDM8ZQuC7ztbF+4rzlbwg72tzgGA/1bYPjIVqO8pbCmDdYprHxkDBe8bOx9iT2kWtTCLvGyjnfQlhYv1pd9E0iDpQJY5dYF75wn986L0gL5o3XgnmTdOvcWZo7c5amT52m2bfM1IvPv6Ajh494RfHcfJ2fUysQJYj8d999pwMHDjih5UIQRebu+PH999/rp59+cvP4c9rQBoxZOxu4dM5PWV22P+cVeIP1CDRJFMkJSdy+fbsWLFig/Px8Pf3009q/f79effVVvfbaay5xbOmVV16RJTvX2J7yjV1r7vlzYaO5dfl8sX72uAfj34+J2Jg4V1hADlEU09PTtXTpUr3zzjvuqWj9N9cFPqipqdTTTz6sZfMmK3/RJD25fon2PJSrvQ9lqmBbqgq3LXOpaFuyYilFhdviU5HLm6KibbFUvDVZxVuXqdiVDew4e48sU+EjySrcFiRXZmu03NZUFUcT5y1PkD9mo2jbMsVSsoq3pYj6Ah+jvj2C/8Ex/gW+WR7KBMnsuLoSfONcvX9bqSPwryjqb7x/ofY427QJDFJU4soGPsb85Fo4cd2S1RP4HfiWrAL8c31CXWCAfwEWrj1Re3E4hPqqURy2RvF0/UL/UE+sj8CxIRyKo7gm5g1wt36Jtalka6pItDPw0doR68/ibcuCccPY2bpMJdF9MI6C9sbaHrVTjxt1parkYRtHKQr6KlxPCLPo+KQfSur7wsqExg7+RpPrs+h4i5WL+R/zjXqCFIzPeBysry1PUC5mJx6HM/ln/qbW3wd2P9Rjl3AfWp1un4hduI+i/UT/2jizfTDerK/wL2hfgHf03nsk1X2P8F1S8EiG9m1drt0P5uvhNXOUdssY3Tp1kgr37Nbx44Fq9UecLCNgfPDBByoqKtLf/va3uL8I4HHw4EH3kLGkpMSRJSLjbOM6W+Lerof3Vs4wtjLhPOHj2tpabdu2zT3sffjhh3X06NH6eiBvVt724bK0ifIkji0Pe8qy2Tkrx2c7Fz7G7/LycmVmZuq2225zGFiZ8J4yFjX47bffujI7duzQc889p7179zpsIZz4k7iF68U/7Jifltfy8NmO2Sfms/zhfWI+K08eqws7dt72iTYaOh+uH1sNbaixlLXy4TLh/HbdfApfQ821/gzXE/Y7nP9iPG4WUfzkk0/cYEtNTdU//vGP+pCHxAYZoOF9Yh7/2SPgEfAINIUA3yF8ufKHau7cucrJyXEPrBr7om7K3rm+/t13X2l59hKlzxyk8m0LdbgkW0cj6ToWSVVlaVoopauyNCOaMlVZmtVI4prlo0zYRvi4EXuRbFVGclTJ3tWBrTPZMZtWJ/vG/Av7Rj4rm7gP+0a+UFudf/jIObNn/oV9iB1XRTJVHclSdSTDpZqSDNWUpKsmkhbs3WeuWb4sVf1mcYjHLtb2LFWXZKu6JCeKBW2lzemqjqT9wkTZANMwdtURqyc7hHtz6mnMHn1nyfy2ehuzG7YV37e/DIdEe+ZP4j7sX2O+gXfYXmzcuXbSR/SVazPXzmTH+q4xe9G+KMlRVUmuastX62hJng4UpuqF1VOVOeUGrcxKVlXlkfqJrE1Wz/V33cVqj3dkbNiwQUOGDFFubu5pbkIep02bprFjx6q0tLQ+KgWc+DsSnrQnYmefw/nsHBXZ36HwOXPg2LFj7uFmx44dtXDhQqfm2TXKUYYUtm02adODDz4oiBrvATmTj2aTfdim+Qaxe+KJJ9SnTx+NGjVKn376abhI/TFlITM8+M/KytJ1112nHj16qHPnzrr22mt100036fbbb9dHH6aolKwAACAASURBVH1U327znbK2cY46zWdrYziP5eVcQ+ftOnurw+xxzt5XQFl8Jk84hcuHj7FBPtuwg692zgihXbc95agr3C67xp5r2DAf8Ym8tnH+vffe0/r16x3htjrNfytn+c0m10kXy9YsoohKQAgYTyVQF8NAJDbMGmj7i6Wh3g+PgEfgt4fA559/7qIY5s2b58Jo7I/ChW7JO++8rrSls7Q+faL+WbDWE0VHHuPJjieKRnqbQ5jjsfNE0QhliIz9IsIcJmLYTCSI9vniJYrVkVzVlOXrWCRHRyKZ+uDFFVo5b6wW3DJRr71a7iaUf8T5FioXxAZChogR3sDj7bff1o033qh+/fppz549jihCCCBgNmFnz+SeFJ60k49z7HlgCfnjmA3bXOM8PvDuDgie2WCOzNKsdu3aaf78+U7Jo4yVpX7yUMbq5O8a5SEVAwcO1MqVK+MejFIeXymDL+zD/nAdG7xo0nyhHohiz549NXz4cCH4NLRRL6R6xowZ6t69u4YOHepwveuuuxyuEPEBAwY4DvDDDz+4eo0coZb++OOPzifqxkf8Mt9oH3nAimNeUodflof8fOY8x7Zx3TDBLtcNM2zhs9WFXfJaP1n7zZbtyW/1YJ9j7JCwQQr3E+fxjYQPbFaP2eI8ZShLPrNFXvIwPnifC3364osvur4J10EZ/GWPT1wLJ/P9Qu+bJIoAUFZWJiZqhJzSGeGGNHV8oRvo6/cIeAR+mwjwxcmXKF+0t956a9wTzQvdorfefEVpS2dqQ8YkfV50mw5HcnQ0kqFjEVQ2Jv2WjCywz1RVBNXr9BRT2chH2ZhaV1WarljKUBV2nCoXUgAj2aqK5DhFrao0S1Wl5KNcWlwK7JpvXCefpYb9i/etIbth/wLfAv8SCVJOVGUMK4r4EsYodhwjS8Ek3imKkaiiGEFdDFJYFftlimKiDyFcw6povRJqPsb3U6zPEu2dPQ6xtkNkwkqfEZp0VZemNZEaydOoKhauh3qpqxEb4brr1ckEBfA0Umbkj31jds9E7FDrUFbZNxOHRttqBNH2Zu9MvjWhKNb7ZthlNNE/Z7IXUxRpc01FtqpJ+/P0dfHt2pIzRfNvGauCfbvi5mMX+nvx16wfgpadna0OHTo4EpNY9xtvvKFJkyapf//+IvyUiTtLGO655x4VFxe79YMPPfSQexD5wAMPuDWF5GFOS+Qc11D2UNIQSR577DH394g5MOf4TKQLyyN27tzpSAFEAb8WLVqktm3bunkzaxUpAzGJRCJCnYPYbt682RE0yAZEARspKSnq2rWrRo8e7fyE7PJ3kDWGhNjiO6Gkd999t2sLNrlOgpC9/vrr7npeXp5bLlZYWKhu3bppxIgRjSqKrKNcvny5I4kjR4504byQMtrCHgwgimDJkjLagr+0a+vWra4ttPe+++7Txx9/7NqJP5THZxRS/Hr//fd1//33a/Xq1SooKHD4Ezp87733Ki0tLQ5D7O/evdu1980333QcZMWKFS6cF8JlobDwEzCAwOILfvCugy1btrg+ZP6Av+QnDJe5BD599dVXos9ZSkc/8Bmf2fCbsGXqueOOOwSW9DVrPY3U0f/Uh+9ghE1Ubcg1444+/de//uXKQdK7dOniVGZsYps6eCiwadMm13bwZ3kfD8a5FiatieP6QnxukijiFERx9uzZbs2QMesL4ayv0yPgEfjjIMCXJX/8+PLlySxPPfky5w/5hd7eevPVKFGc6IjikdJcHYsSiaqyTMVSlqrKSJmqLstSTWl2g4lrsTIZqipLd6m6jMlmpmrqU8xGdWm2qsqCVF2ao5rSXNW4PXVQJkM1ZelxCXtWTzU+OX+wSf6Y7bCf1RDPUJuwEbOb0aRvzsfSHFWV5kb9NXv4EvMnXAfH1Bv4EfhXG8lUbWmGakvTVVuaKfc5Eu83OAT15ETroi9ieBqu8ftEH/Avhm3s2Py2/g36KN4W5xLthWzV+8c5s0f++DKxttOXOapBVXJ9a30V7oP4PnZ9Q983MgbcuGhgPMXXQ73U1UQ9jK96W/F9ER5DwTHXLTVm1/y2fOH7JTzGzxaHpnwze+RrzDfaGvaPMmH/rI8Mu8zQfdJAHznsGrMX7XPr94o0VVdkqKo8X99G1unhNTdr3i2jVFz8cj1RvNDfib92/UzQIRgoiqxjTxQt3nrrLU2cOFG9evUShIm/HUzuUfp4ISNlCMlEcUxKSnJhqhAGNl7cSDnCVnlICdlctWqVewv3Sy+9pOuvv96pRIS2TpgwQb1799batWsdCYB4QVjatGnjlk188803jqhASCCBgwcPdnWx79u3r5599llHdCCjKE8QX+rD9ssvv+yICH8D8XHMmDGaNWuWs3HDDTc4pRSFEfIBUaMtqILjx493bYc0QVIaUhTt7+g///lPVx/2IaKQKrDi7y8JogWxhuhB4KgPPAlRpT4wGjdunAtXJVSVdwtQjny81wQcZ86c6RTLYcOGOX8oBzni5ZicQ/XEb3BHtYNsUwYspkyZ4sqCM3iBIW9FB2d8I+Jx8uTJzgb43HzzzS4cmTpYIwpnYazQPzZWmE9Y31MHOIEhmPDLDvAdfAJH6id8F7tgRbsgfPQfvkA4yQfGhOyCAQ8EIILYBVceGtDONWvWOFLKGCI/58CABBnHjhFNMAyP6V/7/grX54liGA1/7BHwCFw0CPBFCVHk6enFShTXZ0AU1+loac4ZiCKkIEwUmWDGJ0hbjChBGmJEMTa5ZhIbm5jGE0XOM5EOTVIbmPDGE0Wb6LIPT6QTfDsTUTzDxLk6jmxB3Iy8NU6QYhg0QBQhhw0Qxdp6QpmtX5cohgmeHdve+jOBdJ4VUbR+aF7fxsh7uqyfHal3xBpyHSUr0T5zZLs0S7URGwdRIhbJUW39ODLSBKGx4wTSU0/+gjFEfySmetLp6o7ZqS7D13DKkHuA4e6X4J6BNAcpwIFxH+Qhb7hsw8f4DQ5BGbOVsHf1Wb7Av4Ztmx18C8Zo2DfuP/e53l7DPpntGvfQxeqNt8dYdokHTPuXqXp/iqrK8/Rt2Uo9vHai5s8c6YgiE2ub9F80X96/giMQGohip06dTiOK/O1IJIqcQyVs2bKlIxysG4MAoeowSWfSj3oGlihIKHGcgzQ89dRTbg0f6/yMsKCMQSpY/whxhCwhqqA8QULbt2/viBKfCc+ENGALhY1yEBdIBISIsFB+CgpySL2ErqJ+opShhhL+SUgoUX0ffvihIyeDBg2qj7ShLAQFworCycsmUf9YXwhRxL/ENYpGQqgHsoQ9CA5k0K6BGSorhIw922effeaIG0SKSEPaDNYQXYgYdUKSIHsQRUgS9UPSwRe1lPogWmCPcghRglgTSox6Cl5Tp07V1Vdf7Qjvvn37HB5G9iBZYAixp4yF+dLmd9991ymHkDswQx2GBNJf+AJOkDtUTUJ8IZ8Qc16gZw+mIa30JzhSHgUYEogNCOrzzz/vxgxjD1UbW5BHI4uoi7wYCDypj/WeEPkvv/zSqZLMZ7DH2+KxT2I8rlu3zqmTYI2yaP3A/kJuniheSPR93R4Bj0CjCPw2iOIEfV60RkdLs5ogilkhRdGIGRPrIDHpjJGkMxFFm9QzIY0pVYEyGCaJ2I1NyI1EGIE4nbgGk/xgQh/zC/9QNM2/YLIdshslHfFEEz/i/YupcoGSZnZiE/hYHShtTkV1CmxAlgLiESaKKIsZqnPE0Xy3enMdNqi0QWIibhP28EQ/8Tj6OUrGHSFxpMTUP0gffWN9ZeqhXbfz4bZwTHsCPOr3zjfLH/R3gAU+gG+4D6zPs9z5ADvak1bfLvyijfQz+8qydB0rp+4Ao+ORAC+rg/6CKNZFMnTcKbVWR65qIYqRbEf2XL+epnyFfQvGR9D/ZhO7QTLVl7pqjKiG/HQPRMrTVVWfwvgaPsHeCFmgvqOuhcslHNc/aIlhEt938baDa/ZwJlwm0W7D/rk+iZLEYHycwb+ob7TdxmXwYChsO/yAIVPV+5eoev8yVVVk69uyfD28bqzmz7xexUUvOwWm0S/R3/EFI4qmEoUn1UYUIXVhRZG3kRpxYdJOGQgUpITzEAdIEfkgcZA2fjfcwgFRryAREAtCSCE+vHANlQ+i9cgjj7iQTAgAZAg1ErIHUYEMEhUDqYLskRdbqGDYRfni5TcQMAiJhU1SD20g9BO1jhBF/IN8QUIIqYRMQlpQGSFL2CLxkJU2oP6FiaIRD5RDiB6+orDhG+0PY2l5wZQEsYO4Qop27drl1EfqghhBfsAGQgtBpj2QOIgWONBnhJByjjWRhJ6CDe0xBZbwS2yh5LVq1cq1AdKJr6ht1E09qHKQRcgg+QjdxXcenEAWWZ9KPsJDIZ8owvQxKjNhs7SF8uQDI/rj66+/diQfgooqTP+inhKiSr9AHulHiCLqLw8SCDul/YwRHlxwjp/2QkmmLeCKH/SbYWhKI2osqifEmvxgAVkl38W0eaJ4gXqDgWBPaMIucDOQmtoYmLaR325mK2+fLY/tE+tszA/Lf673dgM05B83uN88AoYAY+XiVRRfU9rS2VqfMV6fF6/W0bIsVbpQQiZ4sVRPDOoVGibk8RPtYDIeEASbyMf28XnDSg2kLpg8B2QqnuTFyFygwgVEgboCohGoFzGF8nQbgeIU1B/zJ6osmTKU0JbG/DM/HemMZKmuLFcnynJ1bG+y6gpTpUiG6vYtVU0kW0cLMnSiMFN1TKgrknWiJEfHS/JUWZ6lSkcOUlVTlqLasmTVlS5TXWmK6krTHOkxglK/p2wkUyciyToZSdPJ4iydLFql48UrVVeSr9qSVaqJ5KumbJlqypKd6naqKEcqzNWpomydKEEdA0tIWaqqy1F10nSsPD10nK3DFVk6vB/yYThmujzHKtJUV5qu4xFSho6XpgY+ly1y/sdIX6pqy2hH0KbaMtoYDusMxk1leaaOvJ6jqtcydKR0sSorUnWgNF0/VOSran+2jhYvVs3rWTpUlqZDpRk6UZItla3QyZI8HSvMcC9DOVYOiUlTbWmqaotTVFucprqyLNWV56iuPFcnyvN0gnVxhZk6WZarkxUojYwD1Md81URWqiqyWrUlK3W8eLkqy4KQ4pPlOTpemuXwBnP6oDGiGEeQytNdv4IpqbI8oz7FSHmULIbCdRkLrkxFUJ7PwfgICF9AvgIy5o6d3UyBISSavaUqMEkgcEGZmO1j9fUE/gVlYoQzeCgR/ezqShdlgjbF7DiCGyKyYBH2D9+ClKVj5aRMVVcEKSCKq/Twmhs1/5YxKi7aW/+33743/yh7/jZkZGQ4FYtJPXMKks0jWBfHJN2IInMfJuWQBZQ7yAMbYYkoY6g+rBHk7w6kAUUKhQ61DhJAeuKJJxwRIC8qJOQQwgZpgLRBzFC58Id6sAsBIHGNEEnWAVrYI3YgiihX+IfSBGlBpULZo43YQJ0kLyocxIg9vkFAIKqoVddcc40LXUQhZIOUoXJBeCkTfpkNGJFoK+vtIJkQPEinzREtD7YgYDYvffTRR13dtJ26sEEZiC3tI+QTQgvZ4yWY+A4BJx9tAgewQfmEPFIOQmYhwSiWEDnIe+vWrZ0t+pU6IJZGAFF5IYTgQF+xltHmwhA0VFnwAT8USogiZBSiSvgo7QMT6oGwQyghjoSY4h/EkNBQI+TUgxoKEQ8TRXylXuxRhxFF2sY6Rcg79vm5EdpPPtaeMgboG1M0sU1ILeUYaxfT5onir9gbDHYGFAOePYmFuOGNm4mnCgyWMBkM5+GYsnzB8WXHoLeblScvFrudWIbPDFJueivL8a+5Ub/5St32BUx7/OYRCCPAOLl4iSJvPZ0TJYqr3GQuIIgxlQ8VDaIYT8aM+CUQrvC6vziVzvIHe0febAKeQNKC9VOnhwg6othgGchHw/6FyWVAlELhhqfVG/MxnhjEzgdEg/WWGTpWnKmjhbk6VpSnowU5qinOV1Vhtg7tSlFt6VrVlqzRyQL8StOR/SmqjeQ5guImz26ynuaITlV5qmrKkx1prHHEKs0ROkgd6hVYQTAheyciKToRSXPE6UTRatUVr1ZNyUpVl6xTdWSVqsuTHfEDw1NFWVJhlk4VZeoEL8wpDdQ76qssT40qitnis0tlmTpSkaHD+8lralowwT9akemI08mSDP1ckqafI0t1snShjpfNV13ZYkcGAzsp9eQXAkx7IBBxfVoKQUnXwYpU/RhZph9KUvRtcZa+iazS55Hb9WMkV0ciyap8NV2Hy9N0MJKhH3bl6LsX8nVo10qdKFunKn7CwRFf8MlQbfSlQD8VZOnrPVn6rjBPx0ryVFeap6+3p+uHPXk6WBi8fIlw1LriFaotXqOqyFrVFa9UbdFyffVyrj7fma3vdmepsihbxyOQxSzVRYKw1lr29WMmGJ/24AElD2IIeT1WEU2nEcXQg5f6hzCQvCD/UcqFyzjSB/ELEnWZmhiQxCwdrQhIWPDwgQcQEDzLFzy0sc/mX2I9QZl43wK1M7CHT65MRYz4Ysvsso/HAYKYpaOkiljiXFV5rqrLc1VVkaVvS1fr4TVTNH/GeBUXFfxhiSJzGF7sAhFBnYIcsDGXYO7Em04hEJAFVDPmX4SUQhbIzzyJjTkUP8HEBB/li3wQHQgP5AmSwd8i5irYJB/XWHOIkkfIImsJCTOEyECQIIoWDslnUygpxwtVUKlQCiFoEBEL+SRUE1JB6CJEj7ZAXgkfhYSxho9wWeqkTZBE1s1BQiA3KFSobpQjEWpL2TBRpH3Mw0gcQ4QhKRAhiDB/c9lsrgaWEE6IGKQObFD1IDj8pIblhQShMkJ+IJPgCkmjjYRUsjH3ZR0kCiZkmD6gHGog/rN2lPaEiSI+0Rb6AGKKqgf5f+GFF1zIJn0MuTZfyMtYIMwXLHnhEPNpI4qErzLvpn0QRR4aMEbwi5fx4IOpoIS8gjWqIWSeOiD9RhSpF3wMS5RgzmETRRXSS/+CCYoic3U2xi7XCEMmTBn88YHxxot4wORi2jxR/JV6gxsSEkfoAV8ufFEQ285NwQ1gGzcpb1licPN0p6ENW3yJMKCQsLHHYOVLii8YFgkT85y4UY4vO25CnlwwQBvKl1juXH6mfjAg1IIbj5uQdnLMky3a5TePAAhc3ETxDaUtnav1meP0efFKN1EN1I/mEMWY2mchoXH7X0QUG7d51kSxLFjPFrw0JrS2LRoyGJC+RBIYJbINElKuBaGRkJ/vdqforYfmKrJpmoo336Lie2arYPMslT6wUB89kasDO9eotjhPRyLZ+ml/rg5V5Osok+QoGYAw8vlIRa4OV+ToSEWWI2pH9kMsU1066gglimuealDHouvUgkl/jo6WLdeRslU6UrY22DMxL8/WsTIm5BDOZKcgov5QX1BHjg5X5Km6ZJWOF63RsfJsVZan6WRJoM6hOEJGIYUoeZVl+TpStlK1Jct1sjhbKk6VSpbo58hCnShdpLqyJaopJ5wwWccqUh2pgHBCLiAhkIhAVYySdAhrabJqy5boh6IMvf1smvY9kKwX71yi3ZvS9LenUvV9YboOlSxVFXbKsvVQ7mRlT7tO2xaN1rHdt0klK6SiLOdPVckqVZeucC//KX5gvvJm99OG5JH6+CXemrtcq2f11fJZ/bRr4yT9VBgQv5PF+TpRvNyRdxTDo4WZ2rJkpPKmDtIDGRP1xfYsHS/JdqmO8NVGUjg0ubIs22EJnpYqwTZujWsodDd6njzkd/3m+oL+aPj+44END26srsQy4bpYW9uQf02VseiB5tZjD5Ia8o26LNFG1iZWl+eoqiIzShSnav6MCSouKuT3Gv6QfzAgLRA/iCJv9eSlMDxk5wE05Id5EBN+1DdexMLfk0SiyASfvKwTtBBWiAaKoilVTPjt7xEhoyh7EC/CLpmvkR8ShUoEqWSeFyaKEAuUTwgTBALFER95sQkkDmWJORBzI4gihAHfaQs+QyYgPJRl7kRZrqGYoqhxDIHCPgQO8gghwQ/UM9oVfuspbQ4nCB2KH/WidkJAmYeRB9sQHEgh11iLh33UU8ga6w7Jh5+ocbSHa5SBnEHI6QNIGvNP5qmsS4SsQ/KbQxQhmfhDWUgyWNA3zB0Jp0WRpQ76FgzBh/kkbYbU05dhRbExoogqCxb4BZEFOzBkoy0QcObr+AJJRVHFPuOHMUD7sI0SyZpLbEFYjQSigEJQ8ZF+oy8ZP2AHDqzxpCzhyvZSJVf5RfCfJ4rnsRMYOAwgBjhfBMQ5Ex/NlwySNl8QDArCIXi6wIDhxuRGI5SBOG/bsGUbNyY3A68ahihyYzP4qIMnVtjnCVVDG08qGOzI93zhcbOFbYfLcJ68PA2D2FFHY3nD5c50zE3GExvaTtw8NxFPiJDnifPnCwufEpXWRJv4EfYF7GxLvGafw/kt79nseRrGHyP6ixubvg3Xeza2fN6mEQBbvkgJVbn4XmbzhtKWJBJF1AV7YUswMU1UFINwTntzZxAO6hS78PqtBKIYDuesjVNpAqUm3ubpJC+eKCa8aCQ8kXcvITHfGrJj54K1aEG9IXth36IqUpAnIIqQHohi5L7pmnNDB00ceLlLk6+9Qjdee6VmjWynJWP66LbZI/X64+n6tni5DrnQO8J6CZWFLLBOL1vHivlJDpSWLEeKqvan6WhFso5WLNOx/SmqfCVQ+2oLU3SiOEMnXJhupiorsnX01Rwd25+j6oo8VToCwc8P5Klmf75TbiohahVpOlaWqqOlKTpamqxjpck6EMnQhzsz9NyKqdp3+yIdLMlT7Su0LVXVpYSKpjnl8nhJhqpLVujL3au1NX2Uiu+cpqOFK3SiOEt1RcmqjaSo+tW8qAqdpqqyVB2LpLifRAEft/Yw/PMT/MRJJAhF/akwXe8+vVj3ZI7U3PHdNGloJ43q3VqT+rXRnIm9lbV4uF5+ZIG+KuXhxQotmtRf/Tq21Mqbu+vgvlU6GcnTqfJs1ZZl6OgreTpSnqUjpekqvWeqVk1pr/uTr9Vn25fph6J0jepzmYb0/IsezB2uAxHWLmaormS5jhUt1+HSFarcn68fivM05/qOGtb1cqXPHK6PXgyNDXto0Ng+qjISfstDFshxoNKFwjnrlciYXR5UnLFMaH2nG3/uzbjxa21PqydUBvuxcRtfVzgUFh/CD00aKxOu62zKGB6onqiJAVHMOJ0oNv1V+rvMwd8H5icobRAH5hA8YIdYQNSYC0Eq+IkDFBw2WwuH2sREnjmNqUooWqwtZG5FPpQqbEAUmTsw74I48LcIkoQN5gOobcxpmIvx4J2/WczrsEdeHsxDAphvQeRQriAvhDxCrKgD8oTyCEHEZ0gZeXh4DqlgngRZ4zphmoRJEiK5YcMGp3BBZFCuKIuKhwoHweQcZMbWKNIOcCPRHj7TXpQy1tWhhqFK8oIYcITgUpb2cg7Sy9pO8OUc6yZROVHYqNfqB1PmshAmQmIhXdTF/JM3uBJSCiGjD5jroShCaMER8meKImsFwQJCCjkjlBVSCGlmPSEEEIWWesEDJRN1FRWWc8y3zRfmlvQJNoyggS/9ALa84Ab/IHT0E/NwxBjWZOI/9ulr5rDsIYr0H+s6wZMNRZGxSLsZK9TDXJs+oG0olJBABB3WYKJKIxpBgPEZsg7ulLuYNk8Uz2NvQCS4CSE+DAoGLtIyA5UbnnAHBhqDg0EM+eCGZ4DyJYXEz80FQWFPsicX7LlJuAkYkHzhMdiwxaBHKmezLwX8oAxPmpDXuYF4EseTF7Md3lMWm3zh4Dc3IzdI+AsGe5Bg84896Uwb7eOLx570EepB4okeT1O4oSCO+Ig/bNRJXdjmKSKf7RpfdpzHV6ubvHxms+v4SVkS59jMBnuzyTXK84VBmXDdfKnxxQsR5wmlXXfG/H/nHAGw5wvzt0MUsxN+miE+9NQRPibN7gUsELLoGi43GQ4pgnFEkfC9xpQZrpmNMxE8QgxtvVgT9urfKmqksKG92WJ/JnuxfC6EMqpIvnjXNPXo3lKd2/9JN47tpbk3DdDCKQN083Ud1bvtFerbvoWWzRiqd17MdGu8ql1YYK4OFK3QT/tydLQ4R1WFGTpRlq0TZRmqrcjUkdIUHSpL0aHyVJcOliXrx30LdHzfYp0qSlddUa5+2pulnyIr9OMrK/RjJFOVkTTVvRL8LuSxonwdLc7X4ZJc/Vico59K8/RdYZoOFKfqWGmajpYs0TcFadq+Za7G92qjjBvH6187+AH0NB1xIaiB6ne8NNn9zt/BknXafVeyJvdqrdWzBumbfbepmhDbYnzN1vev3KbvylbrQHG+ftyXpR92J+tYQarqStJUU7BUtSUpqomkqjoS/FYi4a9Hi5L14fPLlD1riIZ2v1w9O1ymGRMHK2X2GC2bOkR9+3VQ+57XaPyEJBU+maojkZWaNXaQura7Wqvn9tZXBfk6FFmuHwpT9WNpmn56I0sHXknVkfIUfbljmf7x2AJ9uT1DPxSk6oeyTA3sfbl6dL9C9+QM148os6UZOlK8Qt8XrtbnJWv1Teka/at4jRZOvVZ9ulyuxbOu1/svQeQZy0GIaWysMz6DxAuIeImOS9Fz5LcwTCtLfVaGffDiHXuBUXwIa5Nloi/zMWU5UGsDG43W00AZV87dnwm+lfJSoMBH8zmuTdEy4brAgTKuXAIO4fBUF6LqiWKDf1/4282DcgtxhFhAOJhfsIaQeRXrxPibzt92QjFRi8hvahGqj5EkXkbCXAl1irkacxX+7vO3iPLMK1AVicaC+FkeiAXEjDkccywIJ6SLdXKUh0xA9pjvQSQgWBASrjO/ggwxT+SBPHVyDkUM0sO8C/WS8pynLlRSCA4kA0LGXISX7iBAUC8khofxKFzMCTlGjKANYGYJUDlm7oRCaS/TAT9UP2wxH8UOpJwNG8w7IcHM2RA1wJpj5rmIFNjDL3CmPyBQlMNPyBfnwqGnkDHCM8GDeiDn9Akkk3O0bZVA+wAAIABJREFUlTbTFrBC1WSOhk3mipBO5r20mz0YQ9BQQCGizJUZC+CPTzYPhCiietJGSCbjhDkq4wQbkGH6gbrpc9RD6rWft2CejpqLH2y0Exyog4cTnMcWYwUsaRP5mavzoiXGDw84SJSDE+ATfjDmLpbNE8Xz2BN0Nl9S9qTAblZuIAYuiackDGxuMG5UnpLYTcdTIxbOEsvOkzIGF4OUjS8svjx4okTIA58hh0YU+QLhC4AvPXzgiRUElScYDFR84SYk/JWb2r442LMxQYck8uSGLwyepvDEhfBWvri4zhcCTz/4ciG0wEIe+DJobLMnX3wR8QXAFysJLPCZL0luZuqiTfjPjcNnvnypx74cuQlJPHGjXTzlgcBBwvnSZqMPuLlpP4SULxRwpA2U5WbGb57e8QeHLyls0Wc8xcI3MOELnC82bni+0KiD/PxRMMwaa7M//8sQ8EQRxeJMROy3SRR3bpqhvj1bqH+X/9Ejt83R+zvW6Itdy/XZ82lau3iUru3RUkP7tNPTG6bq2Ou5+mrfahXcn6rlyyYqbeZA3Zk8Qn97MkXf7mQ9YL6+2JOnR1eP033Zw/XSllu058F5WjUvSfufWKhjFfn6fk+OCjfO0eYlY7RsUl/lL7pBRSiWZWv0TWmevijM01P5k/Vo1lj9/YUV2nlvtnLnjFLuzGu1Y/M8fVa4Wp+8nK5nN07RtPED1bdta00ZNEBbkifrrScX6/D+JW59HWqyC63dk6Fdd8zQrGF91LNFS00e3Fn3Z47Tx88k60jpan28I107Hl6o3FtHaM7YvsqePljPrJyuL15coaN7Vupk0XK3vs+RxAhhsOmqLc/Qj3sW6ukVo9S73RUa3edqPb5ujt7bsUKfF6zQP/dmaPuWeRo36Cpd3+8S3ZU8SFXFeZo3pr+6tb1aK+cNVtEjWdqYeqPSp/XVXZnX673CDH1bkaGDpSkqfWi+Hsgar6fX3aJPd2fqm5J0DexzlXr1bKH7867T10U5OsZv+BWv17aVU7X0lsFalzxeex5ZrvQl49Svx5+1dNa1+mCHvd3XXuoTvw8elgRhrPFrGGP5LE/wEIIxHiTyJ659DF7g1NA9EipTEr9e0soE91bMflP1ODXb3Y/NK0M7rC6zHd5be+LaFC0Te/lT8MKqGhcSTeipVxTtrwl/H/j7zhzh6NGjbm6C2gYBY16DMsVci+v2N5r5FfMkiBsEgvOUZQ7FeeYabKhmfGb+ZfMM8nJsZZgLkYd5EPMGiCf+MG/hLZbMM8jD/IoEYWSZEOQFZY65HPMe5i+EbTKXYO6EmkY+HuJDmPCf8xxzjjYSBsnchGv4xEb9zPWYl5CwQ3vBgvlLU3MV/AEvbNAu1mOyZ/6E77QtTF6YQ0EYIU2s0aTN+GTRYPgFzjavck5Kzj7YMFcjr+EAUTYcqA8Cx9yTeSj9wTwN7DgGz/CGHbAGN/whFBgbnAc7EkSZqDvGhfUjdTMfpg9pp/UxY4K+IT++0jbmrmxgQF7Ogy040OfUQZvwkbBSbLFBSvnMvBU75GfeSX/SjzwMwGfy4DM+WVln4CL4zxPF89wJDASeOvAkiAHBjW0bg5XPEBxuKG50wg94QkN+nkrwhIEnKDyN4DxPjbhhGWhcJx83Ena4qcNEkXwMPkIzeDICCeMpC09nePLETciNwMBnYFrCP24w3krFExrkesIjkNPJz5ci6yjxB5s8GeEpF4SXUAWk9cYGOjcf7eGpHnnZwIGbjCd1tIlrhItwg4EL9WIfFZR4dJ7uoDJxU/GFQdgC+BC6SvtoG08Gscs1yuA/5VEE8ZvwD+xzsxISzJMdwgEgiDy5o894ogS55sYGY+ziG0/DINo8gcLvxtpq/ez3vwwBxiVf2L81RdGFSNpPMyS8LCYITzM1IhziFlVhokpMfEjb6RPTWhfaGQ49DSuVZt/2sXriJ+FhpdJCSM9kpyl7iX7GFEVUFtQU0s7N09Wvz1Xq1/W/9PyWW/VjCS9ZyVdlQaZeuHuhBiZxrbUeXXezfijN0tbsiRrd4woN69dSE4a30Q29/6xxPf6sZ1bdrMNFq/TBzts1d3SShiVdqrljumjuiBaa1v+/tH3DVH24O1f3pF2vcd0v1839W2rqtddoZM8rNWXI1dp+9wL9qzBfH+7K1szhHTW5/zVat2i8pg7poAn9rtGIrpfr+h5/0UPrZumTfSuUP7ObBiS1Uo82LTWsa0fNHtZOezdN0eHypTrqXoSS58Jjv92Zrq1Lh2hEx1Zqd/lVujbpSi0a00b7t0x1its9OSN1bbf/1pDuf9GkIR00eVA7jex8mVLG9NG7j6TrRCRftYSaRpapOpKqWtbileTohz1pSh5ztdq0uEKZs4bq451ZOlCYo6PlmTqwf4m+3Juu0vvnau898/XF7hWqLcrRgtF91PWaqzV/dJJyZwzS9MFtNbTLZRrS7RKl3dJHH72cowMladq2apJG9v6LZo/tpjefSXHq6cCeV6pX0lW6N/t6fVG0yhHS9Kl9NZjyPVto2sjOmj+hh265eZD6JF2iRbf01/sv8cKiGEEyohR+aVKgkPMTHNGf4Ygq5kGe6DiMkkM3zuuJYrZY9xhb+8ja0yAFtsxmbG/5Y2ViL2/i5TwNqfUNlQl+VzIo2+wykVBdDUQFhOtpyL8wZjVltkbRE0X7axL+u8vfehLzAeZCzH045pxt5Lc8HBvpIR8TfStDfvLZXI284WT2yB8uhx3LR1nmBlaH2SSP1RP2jWPKslGG8uYDn+06x+HP5KccdhOvWRnLw+eGNvPZrlG3YRK2a9fDe+pkrmhYJNZhvmGHY7vO3o6xxzF4gSf1M09EPCFE1X6eBAJFfY1t+IAv2AjntbrYkwf7iRv+kSwvvrKR19pmZcwO+amLz2zs8c/sU45zNka4Zna5xkZefDZ/rYy7eBH9d1ZEETmeBvmt+QjwFAFCBtHh6YsNELPAwAknyA9EBkKCiofiyJMUyBJ2IEA8jeLJDcQIZY4QVezyNAVCCOnhaQcDGRUNFQyShB2eXkGMUMUggBA/G+jmE3vsEW+PiofyCIkiRAMyi5SOTI5cD/nlKRxEijZColBAw5vdINjkCwCZnYXXqHvWdr4keBLDNUJiWQdIXaiqyPXE+EMkaReKK+SPuHrK4QNtwSdIMOogT3p4MkZZfIJs4D9kmjog2LSPJ2ioonwGNwgkSi0x6Sib9AVPnHgyh0oJeeQcfkAyz/TFFcbAH589AmD72yOKvFWSibKtX+KYCWP4nF270Pvz61t9aK2FvUbXfm3fPE09+1+hbt3/R0/cv1g/lK7WoeIcfbs7TRvSJqtPpxa6rm9HPb9xlj549lYtGtVN88f01gMrx2n/87lau+Q6F546c1QffbQjT+/tuFczhg5U/87tNSqplfLGtNO+VWP10VPL9OL9yzSibysN791Jz9xxi957LkWP5YzThK6XaOHogfrXi+n69MVkjRuapO7tWml0/yRtyxuvXRunasm4JPVu+yfNGD9In+zK1VuPL1TqtAHq16WFZt00Sq8+m6Yv9yTrcFGaKiOEGQdvZ60uyNMPz6Xo1tG91LbFpVo0vb9eeypVB19O19Y1E9S7y3+qf6dWWrd4lPY/OktP3zFDNw7uqO5tOmjdrcN0oGCe6krn60Rkger4yYz9q3SoaJ2+3LFak3r9Vde0aa37Vo/ToYolqinh9zsz9N3ri3SIF+OwdrNgpWoKV6i2MEvzR/dWp9atdUP3lrp99iDt3zJTeVMH6Nr2V2psn0HauylNh4rStTl3nAb0uFQTRnbUK0+l6qeiHA3udoV6d75KmzNH6R971umRtdPU+ZpLdW3vDtqYNUX7HknVg6smakjvNure8XLNndpf770Y/kmPYHwHD0dsrBl5guDlNvrWXbt/4scQyqCRuxzVRHKD5Oxgz4gcRJE1lcFvQsbKWN2n7xPJX3PKUF9iOftsvjS0tzwN7RvK7855otjsPyA2GW+qQHPzYcfmKWdTpqn6m3v9QtTZXN8Mm7PJ31Re/u4jhNiLcFCI/TyrKdTO73VPFM8vvu7tTzwVQUVDiYPYNLbxhQBxgQihkLEukM9Mlgk3gAxBhJC3IZRGFCHwkEKIImQJ9QxCxNMK1tNhCzKELc4hy0PqLPQUnyBVyOLI90j05CVBmKgX8sfNC0llUTPkE/UNwkp5CCDqm73Zi7LYhNxhE5KMWgrhQtWDDPIqZUI4SRDR8ePHO19ZTE0ZHkrQVsICSBBD2kWbaCPt5WkMC8ppC+eIdQcvzkM8aSf+Q25RbskLyQQTwlkJJ+DtY6yNJBYd/2gn5NDi3XmpEO1BnTSCbGETjfWlP//vI/BbJIrVpY0RxQtNChuq3ybv54fExk/yY+rirk2z1bd3O3Xo2EJTJg1V7pxhyp01RAsn99aQnleoT6c/aenUAXr7hVR9vW+x9t27WNs3Z+qZzSnauTVPq5Inq1ObVho/oodeeX6Z/v7yJs0Y1ls927bQlCEd9dr9c3Xg5SwXmrpuyRj16niZRg3vpc15s/To6jm6LfUmje7XXoM6tdIbjyzUJy+maNKwburf8XJtSJ2if+5do8/3rdajq+dqUJfLdW2P1vpwe5Y+25Oj7MUjNDDpMmXPH6PP9+bp2z0Z+ujZDL355FKVP7JA7zyWoW92LFdNUbaWTuirPh2vUeasgfpoT54OlGVq4fSe6tzhUt08NElvPZWvg4XZ+nj3cq1Pm6j2V7fUnHHd9M6z8/XGMwv06lML9NpTi/XGU6l6/8UV+scLqzSq82Xq2KqjHlo5QUf2L1RdZLFqShfr0CsLdbicl+/kqbJ4nWqKeXNsjiPYXa5prRsHtdfbT+frUNFqVTyWrwFtLtOIpN56cvkcHS7K0uaccerf41KNH9lRrz6VpoOFeRrS7cp6ovjOjpXKmdVHna75iyaP6KkPXsjT1wX5+mh3tm6+Lkk9Ol6uOdMH673tiYp0TM2OqYs27iBsHFtijMaUZzu2NX9GOIOQTsrGFMV4ghVTFJ1q6F7SZHU0vndqezSvHcd8a7ic5Uvc/5JyZyzjQ0///T8o3sJvAgGEC+ZvPLRnTkm4rd8uLAKeKJ5n/CEzqH6QDhbdJj4Z4aZAaSPZkxSIIsog5Ibz5EG1ww5hkcTTE3/OExcIEgoaBBD1EmWMsElIEjcboagoZZBJCBQyOEQQhdFCT8lHGChhm4SRQkYJWUXRI8Q0TBRtETNEkZ/YIHyTDXKF6odSyctoIKMol5A/6sImJI2wVEgzRJH2YIeEeoevkF/agU8QUIghqijqKnYoi0JIPVyjTTxxgoyDDQSPshBn6iMcFvtgSrhoOKyUBdqoghBVcEN9pCz9wJ78EEre0gUWEEV8pC8hwNTht/OHwO+HKDLJbIioXQznbLJ+7n1pjCjuvmueBiR1Ufs27dSpXVv173ilerS7XJ3bXa6BSX/SqiVDFXlsmb6KZOvHimQ9tnKs5o7soAkDr9GEwW01akAbtb2mla4f0lmFT87T3/dt1C0juqnb1X/V3DFJ7mU0h3khy55s5c4arl4dL1XnTn/W8B4tdUOP1rphYHsN7N5Svdr/Va8/ulCfvJSuyUO7aEiXS/Xsxvn6oXy9viq6TbvuzdCofu3Uve0l+mRnrt57KUUpS4fq2h7/q/w5g/VTYZ4+fXqJ7po7VHNHtdSkIZdo4fVd9EzueB0rTtGyCX3Vt11rpd/cQ58W5Oq7/em6cXySunZpo6UTB+irXbfpZGS5vi9eqWc3L1CH9i00dkg77X14kbJuHawbb2ijqTe00bxx7fTEuhn6x+47NK5HC3W7spsezr9JBysWqbZ0vupKF6iyfLEOlGXr+8gaHShcr6NF61RTkqcFY3orqW1rLbt5kP659w5VVazVBy9v1LUdLtHAjh21LWuajhTmaFP2ePXrfonGj+ykV59M18GC5SGieIPefHG5bh3bVkkdWmj6dd10dG+OjuxL1jf70rXkpoHqCVGcOSJKFO0FSKGXKJ02/rknGHuhcWc/B2I/w5K4dyTS8lt5bJwpXcz3nrWlqT0vCPJvPT1/f2m85YsJAVNQmeMSBWZzzIvJxz+aL54onuce5wU1kBSIDSGNYUWRiTCfIXWQSMgeCh1EBOWK8EsjiqhzECvUOBYmcxNZOCpr5SCAhENCZCBHkC0UOYgOn3mFMWvtqA9VEFJIeCuLtamXtYGmoFEHBBdfUBSpd/369Y6UEa7Ja35RDlEpLRQZu7xohvMQRdpN2CoklYR6iILHQmTIGuQNUsgCZsJf2aO4mkJJt0AqUfkgzbxxCp9Y9AuekGHai7KK4gfppV5UUbCA6EEgaTvYs6AaRZI1o/jG2kd8oT4URYgi7YJ4Wr/gJ0oj6yXJRz/RLyia+OqJ4vm9eX4fRPFMk8DwZPf3MKGNb2ujRPHOWRrau5P6dGmttRkzVPDAQpU8NE8lW+foi13pOrgvQ5VF6fo+kqEnN16v/l3+S9cm/Vm3LemjFzdN1+1LR6hX2ys0YUAH7d+6UB/uuVPTh3VWz7attWB8Lx0oz1JlJEs/7s1T5qwh6t35vzTjpiQ9d8csvXLfQlU8MEeRrYu192HejJqmz19K0cThPdQ36So9eNcifbv/Tn1VtE57HsjWmIEd1bvjX/Xprjx9ui8njih+tydbnz6zVKtv7q0Jff5TI3r8X93c+yo9sGiIjhQu0603dFffdlcra1pvfV6yUofeztfE0Z3VqVNr3Tq2j75++XZHFA+Ur9VjG2aqXdsrNWZwW+3bukQLp6KuXqoBnf9DEwb8WQ+vmKAPC9Zp4dju6nplR61ZNFpfRLJ0kJ/l2J+t6rJ8fV64QgUPLVL5Ayn6asdK1URWuNDTHu1aKX/+dfq8cJ2OluXp3R0rNaTznzSg4zV6MH2SDhdk6+6sceqbhKLYWa8+maGDhUYUW2hz5mi9u3Ot5oy82hHFaSO6qrow35G8z3ct0/Truqhbu8s0c/pQvbedNYa/kCiGSWOTx+F755cSxbCNi/n+80Tx/P6l8dYvNgQgiyaiGHG82Hz8I/njieJ57G2IBIQC+RyCgSKGIgfp4CkJJAfyyJo33i4KgUHhgghB8CCKTJZJqIiocJA4yJ0RRRTFMFGknnDoKeQP8shreylDCCVhnOTBHrI+fhLqyTFkyt6+RF777RkII6QQksnbP1EA+S0dQjchZoSV8rpk/EbppCw2URYhZfbWKPLbGkVUTOq2RDv5crAvBlQ77EEy+f0ZsME/SCLtZJEzb/Jij+qJeslbsyCtkF+IJXhBSsEPnyCQqLOEjtIPKKEQRTDixUG0BR9op72mmt+rRFHEB/LxMh0jpPjst/ODANhC3H9LL7M5PfQ0njzFKSj1IXcX8yT1TP6f+VoQKhgLPbTPO9ZPV//OrTSo21V6fMNCfV2Qq59K0nQwskw1Rek6VZQhFSbr+4J0rUvtp35JV2jkwHZ6Y0e+/rZ7pe5Ydp16t71S4/q118t3TdW7O9Zo2rC26t3+ai2a1FOHXlmqqtJ0/bQvXxsyJqp/t0s0ZXxP7X8iR1/vWatPd67QK0+mav/zmfp+X7K+3pOpCcOS1KvrJbpv4wx9HlmtL/at0nN3LtWQpBZKavNnfbg9U5/szlRu8kj17vjfSpkxVF/szdWPBTn6+xNpKnlwrvbeP1vl9y/Tx0+xTi9LSyf0Ud+O1yh1Wu8g9LQ8U4tn9lPXTpdrytAkvf5Ylg4WZOnDHTm6LXmMOrZppdnjuuutZxbr7ReWq/ChFO25b6EiWxfq7WdT3It3Hlpxk7q3C1TVxzfO1Ls7cvV10Tp9s2utCh5epunXt9SUPpfqwaVDVF26KkoUWyh1eh/9q3CljpZl6d2d+Rra9b81sHMrPZQ50RHFTdnj1K/7pZo4qqtefzpTh4uWa1j3FurbtaXu4W2wu9ZpzcKhLvR04tBu+uCZDH29L1vvvZiisQPbqXuHyzVv5jD94yX6O0QUE36TMDb+jaSdeQzF8ifms/KQxPCxkUbOWUosa5/D5Ti28xfb/rdBFHn9xykFLwE5P38RvFWPgEfg3CMQ3LPhOzd8TH2eKJ571OMsQgh5zTCEhZBJCCHqHC9GgYTxQhhIFyGekC3IEAocBIkffbWnKqhZKHuQFwgdRCYcetqQoghZshfXUD+EErLDD8WiskEyUdpQLdmYmFuCUEGO8BG/qYtQT+rlxTUodbzYhZ+SgHjed999ri2QMvtpijggoh8gZ+G3ntI+I4cQRCOJ7FH88JN6wIwX+/AzIaw75DyYoXDiD9hAFCGA1h7qsnWT/AAu6xd5oQ/KIe2BtEMUUUKxBy4QT8rzCmWUQwgpiiVqLNihPKJwQuJRgclrPjfUXn/ulyPw+yeKF9uE9NfxZ+f6GerfvqUGdfqrXti0RAdLclVVnqLqisU6UZwrFSyX9qXrpz05uj11mAZ1vkrDenTQlhWztWX5DE25vpM6t2ut4f3a6f68wdr/XJqmjbhKvTu01KLJXXX4tdmqLl+qQ0X5KnpyuUYP7qq+SV21IeMm7b5/me7MmqVpN3RUXvJAfbJ7mb4qyNWkoV00sOv/1bYNI/VFUZa+LFipx9fOU9/2l6rbNf+r919IcyGqyxdcpx7t/qLRQ3tq1z3T9dmOW3UskqWqslzVVaxUXekKVRXmqq50ufJmX6/uHVtp7OAWembteH357Hw9sXGq+vW4REN7dNC6RSNVsGW87s8erfH926hvlx66M2WMftg3372xtLYg39k6WpKjI+W5qnxtud7aka2JkwepY6fL1bPrVUqfM0Z3Jk/R3fMn6MbBrZXU9v/RxL5XqGDzAlWWrdL8Mb3Uo+2Vmju2jT4rwE6a3tudo+Hd/0vXdmvp3ijL71JuyR2vAT0v0+Qx3fTmc5k6GlmuET1bqn9Sa92XO04f7LtDj98xU0kdrlLfpDZOoXx64wxtSBuqgUmt1KvzVVo6d4Te35Hpfs6Dn/QI1hg2NqaMpDV2vanzVt4InhFEI45Nlee62TibMs2xe67z/AaI4inpZ53SzzrpyeIv/5PnS3oEfmUEoITcuTzkCTY7ts+c9UTxPHcLRALCxctoIIn2swsQLVQ9iB+KFqQFYofKyDlUKwgKk2VsQDYhLawhRPHj5TELFixwhNLyoaBBPAnX5BilDoWNeiE3hGbedNNNLpyUF7pAeghjDW+QHiOnlH/++efdz0LgD+QKNZO4cYgh51D7+PFY9iiFECj7vZmwXTuGcJHfiJ6dT9zjB6SNl9xADGkT/qNm8iZU6mMNIW98RVFE6eN1ykbesEc7UDQJW0VZpV5CbgkphYTjC0SeF/Wg4vJ7kKiOtBslGEJLOQgqairhv9RBv0FKIagoXp4oJvbeufn8+yCKTEZtMmsTSHthh33+feyrSzNVXRZLYYUmfL5w0yxN6NVGY5Mu1Z4tt+pAyXIdK0tXZdkS1ZSmuR8g/7kkTUeKcvTGo7dq3sDLNL7Lf+rG/pdo3g3X6P7lUzRvQm+N6vEn3XrD5dp57zzNGnGFhnf5TyXf1Ebfv5apH1/N0nf78/RhyTo9uGaqpl/XXpP7/llzhrXQTX2v1OJxnfXSPfP0TfEafVWwSvOua6nxPf5fvbBhvL4pzNK3Rav13B1LdX2XyzWs458cSfx6X6pe2DhOU4e30tCkqzTrulbavelmHarIVNUruap5JU/VFbnBG1Ajudq18UZNGfRnje72H5o75E/ac+c4fVyyTluWT9TNQ9o6Qjfv+la6qf+lGtfrf3VHyhj97cVlOlS6UJXFaaopylFtSY6qSwgtzVF1ea6+LcnRy4/NV97CvhrR/f/T8G7/q+Fd/qLrOrfQ6B5XKe2mPtq3aaa+L8zXsbI8pU9I0tD2l2jBmBb6qCBX35Tl68OC5Zrc/z80od//6PFV1+mn/VnatmKSxvT8qxaM7q43n03TgVfzdOOASzWu72W6L3eYPi5Zo7/tXqHlC0fpuqS/aGKvv+iWIVcpZVI3pdw0VGN6ttSK+Tfo0538jmJ6NGU0Oh5iJM3uj8R7pKF7wvLatXAZu2bn7B5jb/nZh/P9EnIZtvVrHV+8RJHJJDE1rNY/rlM6oTr35X/KneFtofwdZk5xNimxDJ8bOhezefLUKZ1oJHHN0tn5EbPfcLlEn8h/+rmTp+Tqb8g/88v2DdfTlB+J1xN9SPwcn9/qPnFKp2Fo19j/e76d2YeY7fh8AXYhvxytgdoEybD99/2z9sXXH/jV+DnDx/UtvxYQGoPBtaDvY+2zes7HHj/jfQWfep/c/ck9yj3LQ53a/5+9935r69j+Rt8/7/5wn/c+9/3mnnNyktiJcQMDBmzApqhLgE1xS3Wl457kpMcG1LYEuGCK49iJc0pyHHdT1AWf+6zZGmm0kUQTIMHAs56ZPWXNmrVn770+WlMwDzoqhK7U55ieZfUHnwRwpAdaAsXs2LRpuXAQQeCDPIYEzGhjGdqAhkAYATnyfFE5MowJuJDnijZOIfBIIJG8hTRt9KuvvmJ5BBIJ5NDaPuJBoIZAEe3YSWWoLgdrVJ82r6FyBGyofVr7R8dH0LES5MHM9EfAidYPUlniS+1SXwj80tRQAml0MD21S9d8jV86ngSGaW0hAWeakprujwNF6jd5LGmNJXlS6Zp0RP2gXUzJo0g6pI1ryDtK8pK+qN+kE5qGSnonwEhrFglY0vRVkp/rluoTL+JPgJDqE0glcE79pn6R3JROuiRgTmslyetI6fwep+uLTF+ZBjYPUCSDVDAq+aYdSZtzCPli2TyKExj0CUTXvN9i3sMv9Pj82AF83rIXj75pwEtnE5sSOeuugU85DJ9SCx8DG1ZMD9rw+HIV/mH7/9Bt+QucXVX4tb8Ndz834uuP9uLLk3sw+oUFP5wuwfXj2/HD2V14MtyMJ7dseHLLjD+GG/F40Ip7X9TjHyd244Lur7jevAd3L5vwX/tJvFI+wnPncQyYs85aAAAgAElEQVSe3ovvTr6P+9dr8WzQiBeuZty91oZrrRW43LQXL+yNmFL0eOqqwdClw7h6qgpdR4px90sLXg2b8MZrwLTHyGhGIbBkxdP+GkxcKcUXR3fgh4/3YfyrOvyhtOI/ruO4fc2Gz08exBnjXnQ17cbwlTo8+r4Wz1y1mPHWYNapg89uZMdf0BEYjFwmzCpGvBnR47f+GigXy9DTUoD2oyU4d7Qag10tePT1KUy7mxDwWjCrWOD4rByft5VioKMEf3hb8d+hNvzhacGXJ9/GNx+/h9EvSvH8lhGjV/X4pq0cg5/U4vGPNjwbMeP7T3bhq1M74ewpwh/eI3g99jF+udmG7z+pwKWG3fj21AGMXmvB7d4mfNVWBud5A57ctMGn6FViZ0uqY4L/UMDHQwIoLgesEchbgvePP18LvJq8vtgmj3OAmRizCVk3Oi13gSIZ7GR4krkZAsHDEKIIYA4RBiBFrwT7CvAEbaj9RFC+SNp8fj2vFiM5yMglWVRDWDR807BaTAahjbgsPE0MuZxiWixOWRzUkFwEqFPJR2W4OCnYJJJ4IR4mctTYYumUzykWFXWnlY/LJVRJCJquLZIkqYJGSF6Ph5psfknZXDbx3lKaSGmb4vzTFhDk5GV549owRT4lcflS3VsuY7z5FDzizfBCPIxnCBFen4dCVjwq1KeoVj7x/hJQnIMf8/PRuD4JMqaaEyCBYlzDaxshcEV/BESICMBwgEFgg64J2FAaEZUnQ5n/URqVI6JpoRwI8ZCXo2vKJ178jwAO1SN+lE7XRNSm2AYvL4aUz2WjUPwjGXl/iB/JyNsQy2njVI94Ufl0f8SP+sJ1QQCU95va4Hqg+lyfVIfrTew/8aE/yuN8tf0meXg5LhOVpXYonctC9Xh7FBJP+bc2GiBd5/8aRW6cCsamaMiynR21Xg+hbB4DRQKNHCBQnEAOgahX7ga8UNrw0tOM154mvHFb2IH1s+56+BSdSm4DZuiMQIcNM3YbO0biud2E6aFGzA43YMpjwSuXCc/tBrxyWjHtOYJngyY8G9TjjceEqSEDpoZ0eO2pwyt3HV446/HUrsPTQSOeDVrwbNCMl6xeE94oDXjpsmJ6qAlTHiteOfV45TLjqesoXniP4ZW3DdOKBW/stXhjr8FLhwXPnS145mjGK1cjk33arcOMooLFWY8ZPo8Zsx4LfN4mPP3RgleOJjy3m/HG1YBnN014MXgU/73RhCcDR/HM3gTfcAsDdm8GazFjp/MQdfDbDUlAkdZ4+l06zHrqMEX9UnR45jbjiasBv7uO4qm7FX8ONuC13YCg14Kg14qXDhueDFjxxtuE14oFU14LXruMeDZQi5eOerx21uG1owaz7ga86rdhaqARr/oNeENrRu0mvHJY8MJpwCuXEa/cZrx2NeG18yimXM2Ych5lO79OOY7ijZ3AfjNmFRtmFQNmFT0LtT8c8PGgnjXKQRoPFwNr/FkSyxkSU121u6RKoLg2L2aBK7dLVaOYjEyafEqgEfCHgTfTs3jz5iWmYjSdJs7zeSiW42nakJch/q+nXuLV1Eu8nFaJ4q+m1TTKezP1Eq+p7SlVFl5Xy5Nf83we8nRtKOaLcbEcazsmT1y+mGwkJ8lHslE5sV66eLp20qUTHzFPjMd1F9Mbycf1RiHXHclGZdPJtNR0se1UdXg+D+O6i93bV9Ov8Jpo5rUaivc2hXzEh/PiYap2V5LGdfda0F1cf8vUnSibGF+JXLwOl48/Fy+mX4Lo5fQbvJqewWwwhHCUMIcGMPNr4TmXQFFQxlpGRRCiBUgERvifWE4EOzyfhyIPsRyli3m8/GpC4p+Kp7Zd3kaqsjyPwsXyxbIUp3a4Xnhdfq0tK14T0BBlpLgIEHke8aQ45y3y4HU4LzEUy8l49jVAus4/oGiFP+714IYtGcIC+FsAFBdbzyXUFfnkWFz0GooAgcdVoGgEASkCjDMeE4IjNsy4jZhxGzDrMsDnpvV+ZvhcZjaFc2rAiOlBI4IeW2z6pRkBxYygx8Io7LUi5KU0A4IemuqoQ0Ah0rPQ7zYg5DEjOtzIyk/ZdQh6rIjeaoRPMcLvMSHgNSEwZIbPS2BWj2mXDlPOesx6SFaS0YrQsBkzjjoEFQImBoQ9FoQ9ZgTdJgQ9JsaHys9QHcbXjPBwA4JeGwKeBsw4zJgaMMDvtCDosjEKOM3w2fXwOw0IkxfSoUPQqcfUzUPwDapA0e8gr6LqWQw6TQgqZkRGGhAatjC5fYoJRLOKCa8H6zFLm8d4aZqqCaEhWvtpxKxLD5+L+q1HaEiPWcdh+J01jHz2QwjYDyOi6DBzswqBwcMIO+sRdNQhQv1y6jHr1GPGrsM0gVenCWHFxijotCBEh94PWti5kQEH3TfV60l69Cl0P5O9zPw6PVCkZyYdpQKU2QKKxFtsN5eeudz1KIpvfTI4o9E5BIJhPPj5F1y9+iXOnvkEZ8+cxLkzp3COhSdxPhanUIyfO53IY2VPU70EsbJiGco/fZLxP3P2JM6cO4XPzp3EZ+dO4XTsmtLOnDmJs2dPJeQQeZxJtMn5x+UQyi2QldcTZRTKk9y8b9R/ku8zIpLv7EmcPhuTkeQ6G5PvrKojXi9dm2K+2E668qIOqW9i/86eOcVkS+iOZEsQ1x2F50i+WB+5DNr2k/IFffDyYijGeT0uK8+j+3Ympiu6r6S/M+c/xJlzRDHdxe5vKlmIL+e5ID92j1hbaWTlcoghL09jmvRCcpyOyUZhfOzRfSXZYsRk0eiP843LGLs/oj54GQrFOKujkZvnk2zquFPlIbk+5c/GuY9w+szH+OLz61CcLrx6+gIIzakueAKJ9EuPBixKoCi+6XIgTmBFpBwQKWdE4HpZqkC8vDbU1hfzxTwxnQCjSGKeWEfGs6eB/AWKdBA4N2p5KBieWxQoqiBBBXBhpQ5EIaWerWdT8who2OBzNajktDBgQkDK7zQi6LQi5GxE2HkEEccRRJyNiLptiLr1iCg1iCiHEXHXIOKuQ8RlQMRpQdR5FFFnK6LOFkRdRxF1UR0LoooJEY8eEY8uRvUIe3QIKjr43fUIuGoQdR1SyX0YIQ/JbUBQMWLOXQ+4DjOad9ch5DEi4DHBJ1BAIVBnZMCSwpDbjLCrARGnDVGnBfNOHeCsARzVmHccQsRxGCFHLQL2Ovjt9cybSB5Fn0MPvyPmWSR9uBrgdx9B0H0UYfdRRJwNMX4GzDvqEXXWMSBLQDHgMTMAOOeuwZz7MKLuQ4gQuaoRdlYh7DiEsL0a4cEqROwHELGXI0o0eBCRwWomU9hRh5Bdj5DdwMKwvR4Ruw5RhxFRuxlRuw1z/Q2I9tsQJsDINvYhcKiHT5h6ygEiD1MDRf6sLBYSoOPPUzaBIm9X5M/b2cgwl4Ei+RLJqlSDSCCKm9/+AHPtYex67y3sL3wXFSXbBNouxMX0TPFUddS08pJtKC/dhv1E+7ejdP82lOzfxsL9+9W0stJt4ETlK0pS8cvU/nLqJPOm9spKtzP5FsgWk5vyk+VbTnuLyc3zk+Xi94R0R22TrpLki6WRXhfKxnmubSjeW1G2srL3UVa2XaVVyZdKJ0tN2wb13qpjj8lXFht3KXRXlvQMLKa3pcvA72MiVOty2fi9pWeCUynprGQb9mx/CyU73sOlM+fx8l9PEnO3o1E2HXV+PuE8kUAxe3ZtVjiJAITi8i+hAa6bRErmGC+vDbW1xHwxT0ynOAeK2nSxjoxnTwMSKG6kcbr8thfzKKogwYCw0wTYLYCDgBwZ57SmjzyJFvhcjfDRzqEMLBJwJG9YPfOIkbeR1v4F3I0xsiHIAJEOAU8tAp461ZNIZVxNCLhaEHQeR9B5DCFXM0KuBoQJsJFH0K1nYcRtBFHUlaAgeSGddESHCRgwA3aqY4TPa8DMsBFhxQw4LYwiigWzw2bMegkoGuNgkQE1ko15F2kKLp072Iagsw0h51FEXCZEnSbM2c2IOEwIOlXPH01hnaJprOTJc6jEgWLQacasYsarYQumhm2Y9TYg4LYh7GzAnKMRGLAyeYOkT9a2CfMOkt/E+kogOKAQkKxDwFXLwHDAWYOgg6gOQUc9QvZ6BliDzsMsnzyKPkcjfI4m+BwE4HXwu+oQJDBN3ls6CsNhYBRw6uFnXmHyJEqgmACzy3+WkuvmMlCkTTFi6xTn5/DtV/9ATekumMr+js8/rcTwZSPuXtZj9IpKFOdEadq80SuGWFkepi6j1jPg7hU97lzR4/ZVPW5d1WPkmkoUJ6L021TmqlqOyvL2tSGXR0znaaL8CRkT/VLzucyGeL/uXjEk5OOyXdPj9jVDXD6Sicl1Ve1PuvZ5OpeJrheLc7l4WVF2xo90x/XH5DPg1jVVd1x/d66qfSBdizKovLkO1L4n2kncN15HDFPJzflxHuzeXjXE7+0t0tk1A+5cN6pEcZKN7u1VPUjXnC/1U+XD7wnJKeYn90WUjccXyCPom/LYuCPdXTNgJDb2FuhOGHvUHy5DIuT6S4S8/4k+qHk8XStfos+Jcqmei+HY+GOyXtXjH5/swye692Es2oMvOy9i6uUsAnN+hGmTGwYSJVDMnjWbZU4ShKRXKNdN+hLJOby8NkwupU6F5WXEPJ62WCjWkfHsaUACxdUamOtbP77+TFibyNO4J4lC8vRhoAGwNyDqsIEAEE3XVYEigZFG5jlj0xhpTZ67DrR+kaZ0+hQzfApNqSSywM/AmQ4+bx18Hh1bG+hzN8LnbobP1Qaf6xj8rlYEmBfOwjx8IUWHkFuPkNuIsMuMiIsAqwpaCbzRdNKQ0wz0N6hHdQw0snI0NXV6mKaa2jDnPMIopDRgetiSBBRpOisBtTixa+oTyXKMAdiQ24Kw04qwvQkhRwPo/M0ptwFvFD3eKDo2/ZWDRRUokkdVndb6csSI1yMmzAypO6HSURxRxxFgoAkYIH0SoDaCvJrzdNzIoA1BAuFsmmoMxLl0MQBeD7+rnnlsaXdVmj5K4NDvog2Fatl04BnHEcw4jmLG2RTbnbYOfqWOHWniUwjEqzRLIQOIBBJVoMjv/4KQTfPkHrzlhFpv33I8ivQ8UP3F2tO2sb7PUTJIjMnstsKvWODzGPDE1YzOlj2oKNoO++BA9l64K+REM9X8AF74pmHQHUJd8d/x3dnDeMLGjA1B+iFkDYk2evITkTfbaWREMxDomii+GRSXwW5CkIhfO4wILkpieSHOefEwzjNRhsknyEYyctnSyhfnsxTZqEyivXicyySGmnJcNyQH112SfHwjrVjI9Eb84nzWXj5VV+p9pW9C0vMryMdk4n1dlnxif2JxzkcM4zzVMgt05+JjTx13uXBvVd2p95aWJXCacRrxzF6PiS8MaCnfjdMtbfj992cIIoQA/JiLeRPJ9qU/6VFc4ctRVttaGtCCxa3V+43prQSKG22gZq99AgocLJKxHnKqRN4v5lF0xdYmulXQSMCJDGb1qAVaeygctUAeM6rnJo8dhVROKOMSeLitCDKyIOg2Mw8kmxJKawtjRNNCVTKBNozhhjqXkUJVFiMDf7ROkIAeEfGMA0IRHMbiTD4mowWBuCwkE61vVPlQSDrwsQ85rdXUq4CMvKls2i1NvU1seMRAIJM9JofLirCLPIu0ZjAZ5BBoVNNU8Mjq0jpGRuoREgwYxqb3qgY2tad6B9mRJ3F90jEdqq5pnSbXuXpeooF5E8X7zNvi+pRhYmwtTxe57FFUJ54SWHzwyyPUHCpDU/X7GP+yEX6lCX6XumabfgiiZ1YdP7Qp01J1oQEGKUG+OObVNcTJ+hV4OGl6tBUBCuNryUkW9VlIH3J5BV5UP85P5Cn+ECHKRmeM8nYy8VupbMRTkI9mayxLvkV0R+/kVemO5BN0syzZlqG72CwVdQxwfacL+X1Yre64fGn4ZUV34r3l9yI27lifBd0mjW2SKfG+Vt/bejZz5ZfvjfjUtA9VJXtwd/wnzM4FEKDdUIUlcGT9SaC4MTawbDUPNSCCxTwUP+9ElkBR/Ojkd5wDCG4oJhtyBD4IKCYMSdXgUT9w2rLiNYE9AopimhjnYHApIQOemQxYtzEOLrX84oAwNuVTvKbpsdry2mveB5q6SURgkW1CkwIokmcx5KLppLTu0RInFXSn1wXXCwOJbM2nWpa3qQ15+eWE/P7SjwIUX05dWTadvnIbKPIPy8+PHqKmuhS2A+/gl+9b2cZNdP4n25yKNqhiz3jiuJSl3W/BOBZBRlJc0Btf/530HIs8CITR1HQOxqjuIl5pBu6ENpLaFgz2OE/RYKe2hbqL7sQryhary/uUalffjPxifSVwl9TndPLF9CDKKwJPDnbi/VyJ7jT3ggFPsc/pZIsBscXuBesn8Vit7ogHgbAYxfucTj6uOwKk/H5r+pp0DyhvsXFHm9xxXhRq+MVlI/2JcvG4UFczhugH2GmlHv+8acaFo2WoLtuD22OTmJ0LIjCvnmDA7V16viVQ5G85GUoNSA3klAYkUBRe9EkfjPxL5wAi+cOX6Afl5zy4WAJQXAoo1IJEfi3qRl2bqU/pUSSgly2gKHpQxfZXG1/sfq+W/9aqnydA8eFD1FaXwlL+Nn67cVwFiq6NAIqisU7vGI2BnWSwU/5iBruWHzfEKZRAMZAOwLJ0re409yIOdjhwF3VLZRPfCOaNTQKKIq/YvZBAUQCNWt3p40cJMaDorsO/+y1obymPAcUJ1aMogWJO2cFSGKkBqYEMGtj0QDFpupPwUhc/jpskrk5hzNzHnPdAZQCKDCAuwXPIQeFiIU0P4ruGitP0OEgMubPjUVxLoJhk5G2ScbwxfconoLgfjZXv4bebJxB029jaW3Xa6VpOPRXeK8xzQuCEQAQnEXxk8CgmvY+JByeBPxvHGn7LAjvcS5RKNuIreteojOhJ4/JoQ1E+qsPlW41HMZV8MVAc965Ruxxka2Xi16JsFNfItyzdcZ6pZKM+83tLcSrDdcePn+L1xVCUT5Qtdi+WLB/3KPI+anlx2Sjk8i2mO5IznXziDxTL8CjGxjR9X2bc9fjPgBXdbQdRvX837tybgC8aQFACxQxWqcySGpAayCkN5C9QpA+BloQXftyYEdKSPggyPfkDmSP6yAQUhTWPi4HApeRzD6vWy8qAIm22EydhvSQ3jhYZS8SDU07qeRH5t57MeQIUH/3MPIpNVdvwz5vHEVZop19uGHPjeLnPstbg1r5X6VrgyTxOZGCnq6c12KkuN/K1hrnAV2wj6d3O+YkAT5SR5BD4sKmidC2WEePEj+ssVndZ3wttv7l8nKfYFsVF+UgPmXRH5cV+rkR3onxcNpGnKJ8om7gGUCwjxokf72esblZ0lw6IifLxMST2T5SN4lr5eJ2ljjstb5Irne6oPXHc8XurptGPj7RB3O8DVvQeq0J16W7clUAxp+zfzSMMP5RTnuKxee5pDvUkP4EinXUnfkD4yz39SzvphS6+3GU8+WO30fogoJhFr2EmwJgOKNJYWVhP3Rhn0TWWG60/2f4Kx3O+AMUHqK0uQVP1e/jnzWMIe9TddhOgSHwvCu/DFY+LNO9W5jXheWQwi+2K6dyYXq7BLvKkuEi8X7wdsW0CO9yjKNbhZXgdnhdLXxHYobpp+DF987xYGyyNgwmeR3KI+WI65VFfl6s7zoNCHtf0N55O+Vyf6YCiWIbzEeReV93RvRX7JMompnP51kJ3pC/elkZ37EcANY2+LwQU/xi0SaCYQzbv5hJFBIhifHP1UvZmgzWweYCi+MGgFzX9grjUXxGFl7340ZTxZCNiHfQRchkw59Qh7DQyI5g26iDgSEdt+BUdZj16Rj6PHj4lQX6F8hMUUPTsvEc6izDkpqMmDOx8xFkP7aBqQFCpZ7u98l1iaaMfvmMkbXrDgCIBVkUDGgVPYSqPIZv+KzeYWfdxk2Tsrmic5gtQ/Am11cVoqn4H/7zZhrCHdve1sONv6AicoIuIdham92E6Et93i70nOY9UdXgehWI+XXNDXcxb7H0slqU4v+ZxHmrb4uV4Om+Hl9fmc7DD86necvQg1qO6/FrbDk/ncvGQ2uJ5POR5dC3Kx9N5n/i1NhT5pIqLabxuqjTeDs+jkJenkK6193Y5uuM8OF+xHZ7G2+N5/JrCTPJR+Y3WHZdPlXnWrcN/B2zoO1aFQzGPoj8SQGhObmazwaZvHjcvAkJtnE7cpTT5JzWQRQ1sDqAofkhkPPnDnl/6iDj1wMBhROwGhLxH4fMcwQydP+aoYTvIvR7Sg+jNkB5T3gRNe/XgNBMDkwQqA0odwu4azHhMeO214fWQDVNKPWadlfC5dfHjRNTdItVdI+mXYHU9JIUaD6cIFIVdTbnOuZeSQp4mw3zQRb4AxfuorS5CU/Xf8c/+VoQ9FoQIHBJITEEJwzmVAc3XlyUbt6sfr9xg1xr+mcbBSupk4pcpj9pajmzEi8uXiW828ng7y5FvJXVWKitvazn1eZ3l9Gk5/MWyHMSKaYvFV1JnMZ5qPn1jngzYcLGtCodLdmN0dAIBCRSzaMFuZVZakCheb2W9yL5nXQP5CxTXyshZ2gdg9caUbCelDulMQocZLwePMI/Jwx9P4NZVK2716TB02QBFIPcVA9yXDWAhxWPkumIAp6FLOtzuq4f3khGeq2b8PNiGP5QjeO01Y1oxYVY4ToAfLcBAHjuCw4gA8z5ywEjexcR9Yx5FZ+Ka+iMCRYpzStnXpF/qk/nI8uutj3wBipOoPVSIpuq38c/+ZoQ9tH42NUgk4Lg0oEg7NcamRGrDJY9RoT6rs1xQkAZMaOURr+PepSWMFV4vXmel8oltCX3m/MUw3pZYJ1Vc4MPqrFQ2TT1RllTxDb23Qp9TyrbUHy8EPkvWt/YepAKKAt+U8ml5pL6WQDHrJqtkmE4D83PziEaiCPj8mJ2agW9mFsFAENFwFPPSy5hObTJ9CRrYHEAx00eFPp6cUr/MpVGeO3qZcdnwwt6MwfZqnNBvR3Xx/6Bi7/9Bxa7/jaqiv6Bq39sqFb+NyhgdLH4bB0oSVFHyNspLif6GyuK/oabor6xOZclfUVP2/+KL8wfwu/cYXimNmGVn0NH5kglQx8CdYoJfMSLgoWmqCeJnMfIxQ+ct8jiFHCjyKa2cr1hGxpN1lhv6kEAxARYTW/wnpvotds8Ew3pRg52/j9OFvC3iKciyIJ7pvc95xELR2M8IkNLJxEG3wJfxzCDfonrgvLKhOy3YWUx3fB0nlyFTKMqXqVw63VH6cuVb6r0VZVusTjr5tLLF1rkuGG/Cvc54b3k7RvhcyR7FezGPYlhOPV2CdSqLZNSA6ECkuC8QxOPf/oVr17/AyVMf4ey5C/jm2+9x/6efWV5GZjJTaiCDBvIXKNLLONNHi/L4B4p/5JdSZzGeMn9xva9cRy8cTVAumWGs/BuKit9G8eES7DdUotJ2GIdtBtTZrKizWlFrs6JGoMMNVnA61GhFdYwON5hRazPjUIMVVRY9Cit2obz0L7j0WSWeOJox67ZhNnZQOe+XBIorv39ch/kX5gtQFKeetqhTT8U1ihovojgddaGxnmZWhmggZzSIVzJOtO/kTO/mxcDOYsBgufKlk43LSKHAM2tAUeAp8l8QX0w+8fu2mO6WAxSXIt9ispHuliPfet9bUbbVAEVRD7TuXYc/+2241FaFmpLdGBudQDAcgASKGYxSmbV0DRBAjGAevlAInuFbMFhtKC4vR1llFQ5UH0JJeQUO19bhiy+/wrPnLzFHaxjln9TAMjUggeJSPoKyTJKBtMCAyZ5+/v1jA043laK8YjsaPj2CtuvtaPd+i85bX6F36CYuKs4EuWNxHop5sXivx45u7wC6vG50Oh1ovHAOhQeKcKDkbxj/woQZtw0zcaAYM07Iuyg9islG8Rre8/UaW5nbySeguC95jWLWgaIAMrIOFEXQJcY1hjobb4IcIniNx9cbTEigmP4ZEgGSeF/FuHiPc+3eirJlHyhebq1CLQHFuxMIhQOISI/iMi1VWXyhBuaBufl5BCJhuEdGcNhgQNHBA2j79BN0Xr2C7s+v4+P2C9hfWYXi/WVo7+hCwB/CvAAW5ZTUhWqVKQs1IIFi9kBO+o+obGOpunnwtQW1FQXMk/jpd1fQPe7A+fs30f7Lj+i670T32BC676nUc28IjEaH0Ds6hL4YXbw7BE5dYwrOTbpwfuI2Ou6NotM7jMOtbXh3219wtW0n3jgsDCiSF1HdVp8MGFqbGJt6qhhi6xTV6acLpp5qAJScepqvYz1fgCLtehoDijdjm9mIQDG+66NqoK/MoygY8VkHiukAhcZQzwegSLqJg1ZhWiJPWzfdcTCm0SGXI2W4ESBblC/XdbdS+cTxLXgUJVBcaHzKlJVpIBKJxCsGZvz4/Orn2HOgHO8f3I9jfR247LXj0ogLfbdc6PYOovV6H4oN9SisqMAnH3+Gx49+w1yE1jPOSQ9jXJMykkkDmwMoii9n/tFMFYofqnw1aDe33GOfm7F3xzaYjjej0/UDuu850THhQsekE13jHnSPDcepZ2wYjO4No0dDvfeGQdQ5PoTzk150jI+ga+wWesduo7H9Anbv2Ykrrbvwyk5AkUAhGQY6BLlx5zaox2fQkRt0NEecFjew2NRVYc3jUkGyLLeRYzv3gSLNMnrw8CfUVO1DY9U7+O1GK0KKBSE3PwCd3nn0jstES9DxgimV9Gzwcc/fq5nepbHyrA7Vo7KLycblEuqmBTjEk8vD62UrzKS7VH3msqQKsyWTyCeTfGI5Hk8ll9TdwmeE60sMV6o7fo+M8Dnr8eSmFZdaKplHcXx0EuFIENH5cJJZNj8/j/+VlJLmwu12o7S0FH19ffD7/WlKyeTNqAEaJHPRKMhoJ3r58jX+8fk/UF52ANvKimG+8Cku3XLi4qiCnjEvusa96LynoPOWEy1XerCzuhK7SkpgazyCRz//gnAoikh4Ds2HTIIAACAASURBVKFQAnhuRr3JPq1eAxIoih8GGd9osHLvugU73/8AllMn0O3pR/c9N7rGFfbOY95EASiKoDFdvGN8GOcnCTCqALNn8haaujqwt3APrrTuwSu7FdO0CQ2du+iuZ0CRgcUYMPS59RDJHzeY5VjZ6LGS3fZzHyjShCERKD6+0YaQop6jmNjdNBWYWeZYXQAUY94y5uXjQJHCdHwJ7PE6ZGyLdRaTT6jLeSSFawVy0vVFpqe/z1I3i+mGA8WLHCjeI6AYkkBx9abr1uJAIJFtXToPBAMBPP7tn2g9cRIFewux/9AhtF7sQN8tBy7eU3BxzBsHir1jXlwdHcKVux6c6f8WhRYd3incA5u1AbdG7sDnC7CpqHNz82BtxNRKcU5bS9Oyt6k0IIGi/Ngt9rFbz/z1BIqXW/filcOKabYmkQzbOgkU0xr/m/05kUAx/pxLoJgBBG/250D2L/4cZOFdKIFiKqtTpq1IA/PROcyH5zA8PIK2U6ewo6QYZQYdPrl2CX133OgZ96B3cgi9E0PoHRtCz/gQ+u4N4erdYVweH0H3XQWf3PwaVSeaUVC2HzV6A7zeYYTD5FmMYm6OpqLOIRwOx0EiB4s8XJHgslLeayA/gaIV/qSpTOIv1pnii/2aLT+S2fxIroRXtoEieRIvTAyja0ydpto7eQtHujpQuHcvrrQW4qXDhqkYUAy66xBy6UHnI9LUNvIe+jTE1jJmwYBYiW5knbV8PvMEKP78ADVVxWisfBePbxxDyG1D0G0VvHbZeMcJU+5Ebx4b9+L7Nd39ELyCbIqoWGcx+YS6YtvxuPQoyvdAunGXe+kSKOa9ibzxHaDzEeciUSAyh5/G7kNvMOH9wkJUWM349KvruHLXi677w+h4MMzC7olh9I6PoG9sBBfvjeDy6Ai7pnQCjx3eQdSf+QgFpaWoq9XB4xlCIBBi01mptwQUOWikkINEHm68RqQE662B/AWK4roc0RDJFF/MSMm9D81WMwrWAii2T6jTTnvHhtE3cQtHOzlQLMJLR0McKIZcdQg79QjFzkaUG9NspechX4Diz6ipKkFj5XsxoNiwBkBRuO+id1ECRelplD+SLWsMiECRjscYl1NP19vEzb/2+PmIJDmBM/7368+P0GC0Ym9RMWoarOjs/wFdnkH0TQzhwoNhnP95GJ0/DaN7UgWKF8dUsNg9oQLFi2PDuDQ+zDyOp+840HLhLAoL96HmcB1GRm4hFAoxkEiggIiDRQ4QecjlkeHW0cDmBYoECrUkGEDyg7esD956Adb1BIqXW/fhhaNRBYoeHULuWgkUt+xzkS9AUfQo8jWK2fYoCu9JCRRz8j25Xu9j2Y7wLKzg3TjrrMd/+63oa61Uz1G8N4lQNISI3Mxm6xjZy+kph4UUzmEewVCILU2cmJjE0WNt2FW+H83nPsNVZRC9w05cpG3gCSjeV8Fi5/1hcGBIHkXyLHZOJoBi121XvHyvZxDH2s9iz8EKFFcexNc/fIeZ2VlEwuE4UCTZOUAUQety+iTL5r8GNh9QFMHh6l7y8iO5/vpbU6B4bxgXYx7For17sRAo1ghA0QS/2wSfhuTU0/UfE+vzHOYJUIzvevp3PE6762kW79GaAEXxHS3GSW6aesoptiFOfNopXcupp+vzPGRxDK0AYG2WPs666vFHvxW9rZU4XLob98YmEYyGEIbc9TT/recs90D0JBLr8PwcgpEobt25C4vZhg+qylHV/iHOj/Sjd0xB7z0P27Smmzavod36JlRQmAQUx0bQM65SL9vRzwsqT9Q5rqB91Anb5XZ8UHMAH5QW4ZsfvsOrFy8ZOCRwIP+kBkgDmwsoktEhP3D5rIO1Aop0jEbfvWFcmriF5o4OFO3JBBRpHJnZOlif2wyR/MxLLcdYPo+x1LLnC1CcRE1VIRqr3sbjGy0IKWZ2PEbivEQTgk6jStl4F2YdKKZbGpDq3Z1qvaIEiqnHr3wn5Zpe/C4jZlz1+H3Aip62Shwq3Y3RsUkE5iRQlNZ3Gg1wjyJBtDcBH3502HHYYMC+AwdgOvMRPvX8gPO3B9Fxlw6VTgaKBAgJJFJInkROHCgyMBkDiQQUO8YVdI670TEygCMXL2BndTn2VR9gnst//fvf7PgVmn4q/6QGNhdQFD+WwoYMbEMFaWDk2oc0lTwSKIpjWMZTjZG1ScsHoDiPBw8nUFO1F41Vf8Pjm0cRUkwIuc2QQFE+K2vzXEi9rlSvNPtk2l2P/wxY0d1Wier9u3F3fBL+uRAIKop/NKtPnqMoamSLxucxj8j8HP589QJdVy+hqOoAtpUUwfLhCXQ5f0TXPTcDib0TCc8g9ygmAGHCi5icRps1JOpdfnQH3ZMedI+60Ds8iA+v92JX7UG8U7gTJz48hf/853dEIhHQ0Rnyb2trIH+BovaXac0v0uIv4Xzq0pod0iw/piv9mGrrSaAox5J2TKzPdT4AxTkVKFYTUPxrDCgaFwJFl5Ht3Kvu3rvK8SS+R5mHUnzvpuMteAIX7Hoq1hfjmvc3a0vgw9/hcuqpnDWTDU/5OvBIAorHKlG1fzfujE/CNy+B4ta2ujW952sA2eYx8/P489lzdF26hPcK9+CDA2Wwnv8MPe5+dgQGeRG7xpQY4BuCerg0HYWRDhyK6equp7TzKaNJL3rue9E36cXlCS8u3XHhw2+v4uBRK3YXFcFqbcDk5E+YnfExiekYjSjtvir/tpwG8hMoWqBOASTjgpPGaBENHG5kSKCY80ZGbgLFxFpFddxxAzeVcasZh+tgkKwPkNrs/coHoAg8eChOPW2OeRQtCY+iZmo0gUVOKxon4nuUjWU+9ilMNyYEgCeBYgY9pdOfTE8/tvJHNwQUxamn1aW7cXdMehS3nJG9aIdjDjsyxv/880+0tB7DnpISFFZX4qPrl3BpxIWeUQXdwppE1TNIQFHd0n0lQLF30gtOBBYvEnC850afZwDGhkaUlx9AS3MbfvrpZ/j9QdYN6V1c9G5uygL5DRQzfDREA0cCxbwxVnIXKBrho/MWmSHOjWUJFDeDQaf2IV+BomaNYiqgSGsW04K6DO9QqiO+RyVQzJv36OZ5LhcZnysd1+tQT7tGkYCiXKO4Kc3oVXRK2MHmt99+w6lTp1BQsAs1RiPOX7+Ca7fcuP7gLrp/GkEPHXuRBBZXCRQnVG8igcTe+150/+RF1wMvLo958E1/P06e/AglJfvRYGvCxMR9RCJ0puIq+iqr5q0GJFDM3w/RZjQGJFCU43FjxrUEiin1LoGiBIfrAKpSjr08b1cCxbw1i9dB8HlgLqpuFEPTOX/95Vd8eOoj7NpXhNqTLTj9w5e4POLE5bseXJ4YQR+dfzg2pNI4TSHVkjjFNFM8Ua9vgg6WHkLfpEq9tF5xwsO8itdGPbikDKDx3KfYW3UQpqYm9PcPYnp6Jn62ozwuYx3GSY40sbmAIk154pRia3U59TTnjR4Cirs+2AHrhyfR4+lHz5iCrgkPumjt9oJ3Y+Kdt/C9qeZ1TgyjfVKN07FClyZvo7mrA0WFhcs4HkP1JjKPoptPdeahBHabw8jLF6B4HzVV+9BYtZLjMfi7kW/sxcdwBs941oGi2KY2Ts+SIKPYNp8VQml5DiCk/FvnnTnrrsd/B2zo47ue3ptAIBpEaJ6Ox5uPE5mDcjObHDGK10OM+egcIrED7v/z++84duIUikpKYTreijOeH9E1oeAiAbjxIXZW4qUxCofZTqZLm2aaCSyqeQQULzKwGAOM4x70jXvQM+HBhfsKuiYVdI/YYT73Md7euwuHdDo43QpCodB6qEi2kUMa2FRAMW5MpACJlCeBYs4bWUlA0TvAjgvqJpA4MYSeCQJ8i7//xDJ01mz7fXXX6L7xEVy8T0CxcwlA0QhaY0LgUCRKk4beZtRBvgDFn2JA8R08vtGGkGJF0G1hx7nQkS7qmu0090cEXgxsLWEKddo6K12jmAGUMpkIKKZ5f7N0CRTl+yfN+M7BHxB8bh2eDNhwsa0Kh0t2Y3R0AoFIAKE5CRRzyAzeGFHmwhE8/OUR6mxmbNu/D7UnmtGt3GQbzHTe96CbpoNODjHjhwyg7gn1rER+BIZo6KwkzoEiA4vjBEqVBFD8yYP2SQW99Cu9chPGz07hnZIi7K+uxPXr1xEMqmsWN0ZzstX11oAEivnz0dkKBoIEinI8bsw4l0Axpd4lUJQ/DOUgAEs5VnNQTgkU19uizaP2pl6/ht5kxK7yUtQdb0bX4Pfopl/H7ym4dH8YdARG55gHHeNedN4fRicDi4mzElcCDsU6WqBIG9n0jnvQOaag/b4XFyY9aKdzFm/b0T08CFvvOeyqLMe+fcWYnJhEOBzJI21LUVejAQkUpWGeSx/dXAGKfPMP8iAmUQ4aI7l0//JXljwBij8/QE1VMRor31U9im4bgm6r9CjK51IC2hwcAz6XDn8O2HCprQo1Jbtxb3QCwUgAYelRXI3Zmv91aerpt199jd2Fe1FrM+Py4I/48o4Hl4Yd+HriNq7d9eLqvSF03aV1NyNonxjGhXs0tWp5U6pEYKiNi0DxElsHOYRuAqXjHlwYU3BhwoP2+0Po/mkIvQ+Gcf6uHcZPTmLXzj04erQFvll/fL1i/t8R2YNMGpBAUQLFXDLucwUohlazU2QOGiy5dI9zU5Z8AYo/o6ayBI2V7+HxjWMIuRskUJTPmwSJOToG/AQU+2243FqF2pLdGLs7gVA4gIgEipnM0s2f9+d/n6CpoQE7CgqwZ18RqurqUKmrR7XJiENWCyqtZlQ3N8LWfR4nf/gS3aOe2AY22QWKBBbjgHF8CJ13XLBeakdNcxMON1hRaTGhTF+PA2YDyo06FFWUY+fOXSgq2odbt26Dzn6Uf5tfAxIoSqCYS4b7egLFS2378NzRiDeKET6PDkF3DUIuPRhIlEBxixmf+QIUpUcxl95XuSOLITbzYbE1oPJ7t573TALFzW9Dr6iHM9PTuHPrFhobGrFn9x7s3V2I4sJiFO4pxL59Jdixew+2792Ld/cX473qAzj9/T/QTecpJu3otzrQ2EsgkY7cILqr4OKIC7XnPsIHhw9iz65ClOwuQsmefdi1vQBFMflKikvw4Ycf4tq1a3jx4oUEiiu6+/lXaXMBRXHHvBQbIsjNbHLe+M82UGSzNu6r71PazEbd9VTdzIaA4jNnI14rRsx6dQgoNQi69AgSSHSaEGRn0qXamVEaW+tpbK1PW3kCFB+Km9m0IqRY8nAzG+0zJYKbRd7hOb7rqc9tgE8h0KaHn+JuI6adFrxx2vDK0YCXDluMMsUpT0uNeOlQ6RX9uOW0YcZlgo/tEqt+69T2TPCznZnlO2p93huZ9SyBYv7ZxOsiMXni6FiMcDCEVy9f4dGjR/jl4SP8+vAR/vXrP/HPx//Cjz/ehNHaiIKiYlQbTOhz9KNnfChGy9/ZTzv1lIAigUQ6n/HSsAutp0+joHw/Sg9VY6Dfjsl7E3j86Bc8/OlnPHyg0p9P/mS7nkYiERB4kH9bQwObCiiK00/ETRj4LnoSKG5JoNgxOcJ2lb44NoLLk7fR0tWJfYWFuNi2D0+djXjlMWLGq4M/DhRNCDrNKSnjrpLi+JPxnB9ryYZkvgBFOh6jCI1Vb+PxjRaEFDNCboswVukHDmOckvoovhPZ+NyIXU95m9pQBIvc+E61A2ru7npKa5mnvHq8GaqHz1PLZilMK2b89r0Vo59b4LlqhedaQ4xs8bhyzQblqkruqza4rzZAudrAQveVRihXm+C+0gTl6hF4r7VAuXoUE9804t83dXjtrENQqYPfVYdZtw7TMXCadN/lu2jD3kUSKG4NO3pVvZyfm2egay4SxTxRKApE5hANRfDLL7/BaLGh7EAlTlzqQc+4VwCLq/coMqB4fxhnfvwaVfV6lB0+jB/tdvh9AZA84WCAHeMRDYcQDYcxF43KdYmrutv5WVkCRW6UyDAXjIu18ChyoHiJA8VOFSj2HduHP12NeOkxYnpIB5+nhm3NT55ECRS32vOQD0BxHg8eTqCmai8aq/6GxzebEVJMCLnFHzVo7JJHXAWLSc+0BIprDhhmFR1mPfXwu3V45bLhp2+sON2wE62mQhwo/ivK9v0FFcV/xYHSt+NUUfI3xKn4b6go/rtA76Ci+N0YvYeDpe+jYt97OFJXgO6jOzBxvRazniOYdekw467HtFsH8mom3XcJFDdMHxIo5qddvDFSzwPgRIAxOofp6Vl88Y+vsGvPXpg//TCrQJE8iT33h9F9fxjHPr/EPJetH32E51NTzNvJlDBPaxC5UDy+MeqRrW6cBiRQ3GoGcW73d72B4hNXI154jZgaIgOvhk0ZI69hOqCoTkfNbR1KI3El9yfXgeI85jCHBw/HUVO9B41Vf8Xjm0cRUowSKOYQEAo76xF26hB0WfHgSyvONpZh166/oqiyBIesBuiaG2BqOwrLiRZYTrTCeqJVjR9vgeV4C8wsbIPlOKdjMB87Bsvx4zC3HYehuQ2mtuMor9iP/e//Dz6p24Gfv7DhjdPIgOKMu45NeZXvgJW8A7JfRwLFjbNt869ljsdI8rl5YH4efn8Q3qERfFCwE/oPjwveRJqCmj2PYvPFLry3Yxc+a+/AG58P8/FNaggcikRCyr+tpoH8BIpW+OOHS4vrXYQXvfjruZx6umG/qC7XYFlPoEhTT+MeRa/gUaT1ieLUU2GtouptpHw+7oQxl0MG63L1LsvnOlCkrzV5FCdRU1WY0aPI76U4BVU97kWYysnGKp/+mWraZ2xci+/RpDpUN93YF9sh7xZvJ1OYSgaBD3+H57i3LDhQg6jTiFlnI776qArFO7fjcLMFn/7wOc47vkaH61t0KXRc2g/o9v6InqEfWdjt+QEq/Yhuz40Y3US3pz9BygC63APoUgZx+vNrqDeacXDXe/jyVBWeE1BU6uBzkzdTehTTj810Y3Zt0iVQ3GoW9Wr6y4GigMWCwRDu3BnFBzvWEChODuNoXwfeeb8AZzo6MR0IgKbDElBNBonSo7ia25vPdfMXKFpSGCDCy140cLiRIdcoZjDuBN2lNQDXvsx6A0Vao0hTTzOtURTXJSZNS2UAcu11kitGz+aWIx+AIgSgSGsUaeqpZo2iZkwysBifhioAryTQlwqkxca1+B5NqiOBYqrnYd5jRtRjw5MbJpy1FaNgZyEa+87jwuggOsYc6Bx3omvChe5JN6Oe+wp6YnE1TUH3hEegIXSzc7YpHGbHqLGj1Ia9OHnxGvaXFuNI5bv406XHjKcWAbcOAfmdy5nvnASK+Wwdr7fsGYDijg8kUFzv2yHbS2hAAkVp6KcyeDYqTQJFOR43ZuxJoJhS7xIoLgt0RG81YcbTgEff1aFNvwuFZQdx2nEV5ya+x4VxBe0TXrRPDKFjchgd94fReX8EnfeH1WtKmxxBx+QtgW6jY/KOShN30TExqtLoMD61f4991fuxv+D/wn/d9Zjx1C1L1pT3ewN/JNyM8kigmLA1ZWwFGiCP4t07oyCgaMjy1FN+hiJtaHO0twPvbi/A2Y5OzPilR3EFt2pTV5FAURrmufSBXgug2B47HoN2PaXjMcRdT+l4DNr1lI7HSOx6GjseI35EhjhG1GMz1LWKGTwx0uDKM6M1X4Ai3/X077FdTy1Ju56K3m96rsXpp8zTFJ9dQWOaTwXNMI6zDhSprXTEnzOaOkneT8EDyuWmtBx+tsJeG6ZcVvz6nQ7HdDtRVnkIncr3aB8fRMe4Fx10pvX4MOjYHqLuyRF0EcWu1fAWuiY43UbXBKc76JqI0b1hfGL/FruqylC883/jiduAGU99Tusml+/bWsnmd9Xjz34bLrVWorZkN8ZGJxCKBBGZC7HNI+fn5+Ph/1qKpel2u1FaWoq+vj74/f6lVJFl8lgDaw0UL9JZihPDaO7twHvbC3CuXQLFPB4uaya6BIrcOJHhWn0sl8M320Cxc3IEBBRpuhado3jx/m00dy08R9Hn0Z6jmGLXyBw2UJejY1k21bOeL0BRPEexDSHFmofnKKbSP09LBQ7FM3FzGyhGPDbMOqz47RsDTup24kBlNTrt/egZG0H32HCcVrsPRc+oF58OfoeCqoMo2vk/+NNlBu24Kp9tPo5yI/Q56/HkphUXW1SgOH5vEuFICNH5cJJNR4BRAsUklcgL0gAHigVr5FGUQFGOs6VoQALF3PigyA+8eh8kUJTjcWOeBQkUU+pd9OqxH0q4F3KlaxQzeC8Z/80AFG0pgOKtOEgkwJhNoLhv5//gqdOKWUUPOsvRL3/QyhnALIHiUqxQWSalBmjJ4poCxfFhcKDYEvMonm/vxKycepryfmzlRAkUpWGe0kDcIGNjvYHic0cjXitGdjh20F2DoEuPUHzzD6NqeJHxFaNc0pWUJZvPbp4AxZ8foKaqGI2V7+LxDe5RtK5yGmkG8CaB4rJAh+pRXB+g+Nngd9hZdRD7dr6Fp04bOz9RAsVsvhNWz0sCxa1sXa+w73xPG9pjNBQMYfT2KNbCo3hxfBiXYmCxtacD27YVgAFFn1yjuMJbt2mrSaC4+o+BNNizp8P1BIqXW/fhhaMRbxQj/B4dCCiGnCpQpHtKRpdPQ5Qm7/dm1EG+AMWfUVNVgsbK9/D4xjGE3A0IuiVQzJVnMhNQXLUXcVw4Nm3Ui9MD32FX5UEUF7yFZw6bPBZjg37czDT2JFDctKbz2nVMPJSCA8Wd7++E8VR2z1HUAsXt2wpwgTyKHChClISfpUhp8m+raSB/gSJNfdJuiiAYsOIv4XwjBLlteM6DnI0AilPkLfToEHLXICyBYs6PkUyG2crz8gUoajyKbpsEijkEEAgozjht+O1bA07odqKishodtEZx/Nbqp5tmAIrPJVDMyffWrLMe/6U1iq2VqKHNbO5NIhQNISLXKG41U3vp/RXhGQeKu9YTKPoDmKNzFCVQXPpN2+Ql8xMoWuDXnBe2wECUQDEnP5wL7pPGyMs2UKRdBPmup2wzm8nEZjbcoyiBovADi+Z+LHa/Nk9+ngDFh+JmNq1yM5scG69hjw3TThsef2vAcd1OlFdVo93Rj+41BIolBW9BAsXcfIfNuurx334r+lorcbh0N+6NTSIogeImt6pX2b1cAIpR2o6X/c9hHiJJj+Iqb29eVt9UQJGBw3TbquvlQcQ5ZlSlAhlrARTpbLJe2vFUczxGeqCoeqr9LjN87mRa9AeKPNBxKr3LtHwBitrjMcxJx2ME2ZEuiWMxku6r+OMZG6d8Y5r1XKPI29SGqWRItbFNbu96GmLHY9jw63cGHNPvRFlVNS44+tGVZaDYO+rFmYHvsPvgQZQWvIUXDhv7vtFxKEn3XF5vqD5mXPX4o9+K3rZKHCrdjdGxSQTmQghD7nqalwbzegi90UCRzlGMzHN4OAfxXwWPqq9xPXQh28gNDeQvUKQPYuy8LR7yKabpQjn1dEM/mksxYNYSKF4aG8FlOkexsxPFewuRGSiaIYHiVjI68wEozuPBw0nUVBWisepveHyzGSHFhJDbjKCTkwlB2oxJ2JAp/txJoLjm7z8Cim9cNvzynQFtBBSrq3He2c/ORczmGkUGFPu/wx4Cijvewgu7DUGXgZ2bGb/fEiSu+f3OpGtazz7tqsfvA1b0tFWiev9u3B2fhH8uBIKK4p88HkPUxhaP5wJQDGMeUUYiTKQ4AUgwkr7FrTNQ8xYoikZPOmCoTZdAcUM/nJk+qjxPAsWtBM5yqa+5DhTp+zyHBw/HUVO9B41Vf8Xjm0cRUowSKOYQIAp6bXjttuHR9wa0GnZif3U1zjn70TmR3TWKEijm0rsjtSwMKLrr8Z8BK7qPVaJq/27cGZ+Eb14Cxa1jYa+gpxIorkBpssqaaiBvgSIzDjQeRe5ZTBumfqFzkCLDjdfPvc8t2LljBywfnUSPdwA94wq6Jr3omhxC98Tyzx+jNYp86unyPIq0DtYCn5soMf2UvIzJmyhtvM62yrhd22l1uQ4U6Udc8ihOoKZqb2aPoisx9ZR0xonNwOA/nrH3J5/+mWraZ2xciz/IJdWhuunGvjBllL2LeTuZwlQyCHy43CRP2nbTybN+6dyj+CjmUSSgSB5FCRTX7x7kyvjgHkUGFKVHcU3t2E3FPBkohnHv9j2s52Y2NPVUehQ31ZBadWfyFyimMiy23scoVz6K2ZKDA0XzRyfRPTSA7nEFnZNedK43UHRa4XdZ4SMSwKIKFLnBK8dgtu77YnwSYGetnvF8AIoQpp6+jcc3aOqpZo2iZpMvprf4NFQBeCWBvgzjWALFZQFTvkaRpp6yNYoEFGmNovQoLkuPi70P8iHf7zKC1ijGp57KNYqrtle3BAMRKIaDYYzdGcPuD3bB9OEJ9IwPCSSclyNuibzEeLrjMSRQ3BLDbFmd3OpAkRugYkgHrnOi9Hz4KG0WGSVQlONtwVh209qrhaSuUc6WviRQXKB3evdJoLis978Eitl6HvOfjwSKyzJFZWGuAREohiRQ5GqR4QZqYCsDRQ4OVVBoQMipUthpABFdpwKK9AGgaSVpifJXQpl4psvL5XYW01OKPo1+bkHBjh0wf3wSXUMD6JpQ0Hl/9R5F2khCu+vpldZivLAfwRu3FT7FBL9bF9sgySRMO+VTT03wuakM5QnkNrCDrv1uA3ycFIobk4jVS1mfj6MEnyRenKcmpDKLE+fNZVH7QP0QaeE4Xpx3vK8auSh9cbmoTEI2iifkSaSrwIWmGuoRdOkRcukYhV06EFFaSnCzoh938gUoanc9tSTteqpOi04Y2fwdp77HcsWjSB7MVMTlji0pEEFqvkw99Vgx5bLil2/FXU9vrumup3Q8htz1lI+d3ArZrqcD4q6nEwhEgwjP09w+QgTqn9zMhmtChvHTC2kzGQkU5YDIBQ1sVaDIDKjY7oAECOmgdS2FmIG6ECyqhi03vlOHsy4DlktacLGU6+W2R4qdEQAAIABJREFUQeWXwndBmZX0ZwVt3f3Cgh0FO2D6+CQ6hwbQOaGg474XHfeH0LWCNYqdsXMUu8dHwM5RvJ84R/FKawle2lvw2tWMaaUJ04oF04oJM4oRs4xMmGXrEwlYpbrPpEs9ZhU9ZhQ9pj16TBF5KW7AtMfIaEZR+RCvWZrGyqa0igA0wYd4MX4elR/x1NKMRy3Dy5IMqUm919QXkmFaMWPKoxLFOTH5Yn32MZCbgl9MLt4myaCVi64pnXTBy/mUFLyYvDHZ3KquZ5g8JqYvklcFkgmQGGQgsR4RZx2izlpEnLUxsJitNWv5AhTlOYrZ+3Eg+6AipFgx5bDg12/0OFZfgLLKKlwYvIGusdXNEluwY+qoF6cHvsOuyoMolucoZvEHo+yOCZ+7Hk8GbLjYVoXDJbsxOjqBQCSA0FwIBA45kS34v5ZiELrdbpSWlqKvrw9+v38pVWSZPNMA9ygSUAyHIhi7O4Y9O3bLqad5dh83k7hbGiiy6WzcU1GHkEulsKsORCFXPcJOXQxAql7GMJuWakLImZ7YWWYOI4LLpEw80+Uttw0qn45XpvSgw7Ts/lCdTDxT5Y1dtyaA4nAWgOLkCNrvj6B7Ihko7issxPWWQkwNNGHW0YiA2xqbZqdDwF2HIFHMaxWK/4jAxwCFxhiR51ndMIQMWP4jQtJaRqcFQaeVUchhQ9jRgDALrQg7LAg7zAiz8ZTYeCSVJ5sbyKKXiNpOyKKJO8wIxY5NCDhpcx513SUPAy4rAkwukk89XoHuSTp+vJ+ZZCMZ4/LFpnCn5mdi/VblszA5VLlITnUNaNClHvUQ9/i76Mcceh7puaxn3kWaksr1srowH4FiGwiYBN0WBGI603oUk3QieuiY13UJa23T1qG66Yxq0XNJ94e3Q2GG9ZCMn1A37kXUIxCPZ+t+p5N9dekSKK5Of+nHVH7y9bl1EihuJoN5PfrCgSLtXkZAcfzu+DoCxS7INYrrcZfzq42tCxTJU0hT2nQqKHDXIChQyFWDkIu8FnUxw1QAjA4jwg4ydNORESG7YZm0GM9UbVE7y28rvKj86dpaXp9W0s74OgLFL5r3Yqa/AX6HDSGXOTa1sRZ078NEzjpEnDpEHZz0iDo4GRB1qBSJ6ZNAFv1IQMYwAa+Q08Io7LAibLcxithtiA42qGS3Imq3IGo3I2o3ISKOpww/RBCo5GOP6lDd1ER8LYgwMGoFgdSgUyWKq8TBKgFWKqvKsoCfI1m+VCCfpyXJtoh8EbvabsihAmkCtHFycfBKoYkBUDY9XLNeMTvGZZ4AxZ8foKaqGI1V7+LxDQ4UrQIYywDE0oK+ldSRQDHVuNMCxfKD0qOYSk9bJS0dUAxLj2J+GcobJe38HBhQ3L1jF/Qn2oSNbGhTm9VNU+gbH8bFCZVaezrxwfu70N3Th2AkitB8FGHMIYJo0n9kPorI3FyconNzmJO0ITqgMUlTEuiP7sFa/uUnUCTPiPgr9VLjqkHEPR60GYbfrVdJ0cHnrsOMu1YlVw1mXDWYJXIexqyTQpFqMetMTT5nLXyuumVTOn6Z0lfSDsmXiWeqPJ9rJX1afjt3rhvWzaP4j+NleHGjEbOuZsw4bZh2GDDt1GHGWY9ZBycdfHYd/PZ6gergdxDVMvI5qJ81mHHWYNpVgykXhXWYdqqk8tNh1qGDz6GHz26A366Hn/NlvGrgcyTGF/Hi/IinSJTOxyLV8aelOvgcdZh11LE+Ud+mYkRxta8kF/VVLUd9ScVPlE3sqygXxUXZqFx6+agdLl89ZmLyTLlIRgOmnMY4TTuMmHGqNOswwecU14jSulHV27CYpzOzcZovQPFn1FSVoLHyPTy+cQwhtw1B8obH34crAX0rqSOBYqrxFFasmLZb8PhrPY7XF6DiYBXaB2+gW049zeCBzk9vYar7r03zu3T4s9+GS21VqCnZjXujEwiGA8gfoDivGqFkKIbD4SVTKBSCpJXpIBgOIUAUCiLgD+D20G3seO8DGE8dzy5QnBjCxQkvo9aeDgYU2zu6MTU7i0AkjOAcUYjNkw5HQyAKRcMIUl4kjFBk6eNhOWNHll2aXun54rqSQLEMJ43v4V/2I5hh66fMsSl04nSrdECRDKAEqeCSe31omiCtnzLAp9DasQa2CcErhxnPB414bjfimd2E5xqitGd2M55moGcOC547l0dUZzG+2jap/PMVtZVZfm07dL3SPqXilSnNc82GD/gaxTWcelpYWISe5jL8p/8EXng+wlNXK/50NuJPpw1PnVY8I3JY8dxhYxtFvLBTaBXIghcOIipjwTOnGU+dZvzpIrLgqcvK+Dx12vDMacNzR2OcXtiboFIDEnwteE5jz6kS5/fUZYaWKI+XozovUpIqmyof9YX6Rf1TieIqNbC856wf1D+ql5pnvE2nWe1vCtlIB6J86XgldMdlaxDka8JTx1FGzxwNeOEwMXrpMOG104IplwXTLou63tNtZhsMkYHGgaK6vlHdUEpruKW/zhegSB5FAorkUZRAMf393BjwwYCiw4LH36hAkTyKEihuzL3IhbHBgeLl1irUluzG2N0JhMIBRPLCozgPvHr5EhMTE/B6vVAUBU6nc1FyOBzgZLfbWVwMKc6vqRy/1qZxHtoyvJw25OUyhTxP2ybnRfnLLcPLi3XFOOfNw1Tlk/KcDgw6HRgg3dmduNx7mZ2jmG2PYu+kF32TCi5OKmjtvYDt2wrQ3HIMdpcLDo+bkdPrgsvrgtujkktxwel2w6m44SJyu0HrZiVtjA7omXz27BmmpqbW0qGI/PUoLgYUF/5KTgeo0zoomhZI3kSfosOsYsCMuwEz7pN4drMVv31tg+fCfjjOlsBxbj/sZ8tgP1eOwXMVGDh3AP3nKnDz/EHcPF+JG5qQ0jj1X6jCcikVT2qDt8N582sKl9sGled8tO2laite5kLlstu6eUHVhyivGI/zjumN8rpPVOP9ggJ1M5s1BIp7C4twwlSMf5w+hG/OH8IPHVX4oaMcP3SU4oeOEvzYUYIb7aW4eWE/+s+Xof98OQZixOP95yswcP4AbhJdOIAfidoP4Id2ih/EjQuV+PFCJW4wnVfj5nmVBs4dxsC5Q+g/V43+c5XoP3+Q8em/oPIhXkQ3GJ8Y3xh/SrshlKM6JEP/+VThQfRz3V6owo8XqvFDjCh+40I1S7tJ8tG9ontMYyrGT+RJcS4Xk02Qj8kUk5XiYjnOi2QU5Rygdljf1XZJljidP4Sb5w+j/9xhDJ4vh/1CARwXCuBu34mHX1fhyYARbxQbZtw2tjstm+obA4p8jShtPsQ9jUszGPMEKD4UN7PhU0/Fd+HC9168/3Lq6Zp7tbRTT+VmNlsXJNJzlx9AkWavRWn+mmprzs0DkXAUXscQWhoboas7gENVJag+uA/VB4txqLJkCUTlJK1EBzUH96H2QDHqykthPliKquI9eLdgB+o+Pome8WGBVjf1tHfSg977LlycdOHYxXZs374Th4p2w3qgEPrqYugOqaQ/VAz9oRJGukMlqK8uRn01hUSlKlXFQrrWxlNdUxonzkNbV7zmZTkvfs3r8nReR7zmaTxcTl2RD49rQ1EGkTcvJ7YrxnlZHop8eDxNeV11KWqry1BdWYZmmx6ffHgC4z/9Al8gsiaAcXMBxYT3MG4cCRsusM0ynA3qWi0yJL06PFfM+KfrFJxfnMYpSwVMFR9AV7YNuvLtMXofuvL3UV/+QZzqKj5AXcUOlcp3oI6IrnmchR+grny5lIIP56sN420ut40Msqdrg6WvoB3qP+cZl1fQV4q8AyU78f6OXdk9HuO++j5Vj8e4hZauDuzZuw/l+3bh8P4CHCp9H7Xsnm5HXcU21FW8x6i+YhsYxcfCdtRr4vVsbND4eB91FRqiNM3YoXGkK9+BekbqmFLHl8ojI78Yf7EMj2t50HVyWuz+sX4m38vE2E7IwOsu5BPra6r+ZpCPy0mhyJuni8+KqpsdqC8rgI70VfEudOV/h/Hg39FQ+y4+OrIHrm/a8O+hE3jpbYDPY0HQbULIYYTf0QCfs4lNTacjalK9B1Kn5QtQzHw8BtsASNhQKKmvOQEU6Uc68T0txvn9og1raFObVBvb5PhmNh4r3jgt+OVbPdp06q6n5+030Jnlqae9o16cGfgOuw8ehDweg4+b3AvzByiSfUlgEUAkOocH9x/iUEklygreQ33pX/BxYxlONx/EubZqSWuog/NtVbjQdgAdLVXoOnoYfUcqcbR6F97dtQ01Hx9b9brEpHWNkx70EFC870DbxQvYtq0AttJduNhQga7mcnS2cKpAZ4tK7S0VuNBcjgstRBQ/gAstAmW6pjyez+PrHXJZebt0zWXiealCbXl+vd4hl7f5AM62VOGorhDl7//fqCvfjcajx/Hol9/VH3zUpYtZA42bCyhm/lD4XTYEnI0I0a6TNN3UU4sn3ibcvvERag5XYV9JKXbvLcT59k509fQJ1BuLUygSlRGv1Xhndy86u3uWRB1diXLJvLS8xeuEbGpb1B4n4sfjXA4eqm0lt7NQ/lT5S+2T2h/eHvHmsopxnqYNe/HRx5/h/R27Yf7oJLqHBtA9rqBzcvXnKPaOj+DS2AguTxJQbMeevcUwm204f64dfX2X0Nvbh+7ubkk5o4MedHf3oLf3Ii5duY72zi40tx3Fnn0foKh0OxpbDuHWwDE8HTmKKZcRM4P1CDoM8NmPYtbRHFuzl/l9kASiCLy4rfArFvg8BjxxNaOzZQ8qirbDPjiQtfftahjR7/0PHk6ipqoQjVVv4/GNZoQUU9I5imzTn9ixP3wqbryfIvBiIJpP2V+JF5LqptOvAPDYrrS8nUxhKhkEPnmy62nQY2XTox99q0errgD7q6pwjoDi+Op+/E+y78ZHwIBi/3fYc/AgSne8xaaw0w7AC+552nuU7t7J9PTjevm6yQOgGNtjMzrHDEx6yUzPzOJYSwsqdu7EBXMx/v21CdPuE3jtaMOrwRa8zECUn64Mz0uXz/kuJT9TGd4O57fScCltLFZmsba5rJwPHez8zEXrN6x4bj+C5zePov/0Qezb9T8wfnw0q0Cxe3IIPfcV9N13oqX3LN55Zxs+Mx/Eb999jOf9TXg5YEuiV4M2vBiw4dmANSU9H7CBKF3+UtMz8VhKG5nqL0eGdHy4DOnyeRuLlVtKPvHi5ThfHj63N+KFqwVPBo7h6vFKFO0swLWLX2H2DUCbIGXzb/MCRa2RYVCnqTlpt0fa6VKHafch/Ga3oPHQWygq2o0z587jydPnCEVoU6d5hKMLidI5pcpX0+YYj3BUDYmflihPm6/ll04GsZyWr/Y6Uzu8H5na4WW0sort8Da0ZdT0pehL1TO19fCXx/igYM+aA8XColJcvnwNr169QTSinmtLx1IFAgFGFF8NEZ909Xkbi5VJV5+nL8aH5/PyYijmiXGxDMV5HoXaPJ4vhqnK8Px0PDLlh0JhROfn4Qv4EAjP4snzf6Gj9zMGFi+cKMKv/WYEhxsRctOuqAb4nY3wuY7ENrtajmGXD0BxDg8eTqCmei8aq/6KxzePIqQYEXKru8OqR5yoR4oEhSNb4oavBIoZwO1yxkqGsh4rXrksePidHi36ApRWVeGs4wY6JFBce93nICjOH6A4T+7EeZBj8eHDhzhQshfm8l2Y+KIFftpa3WlBmNbtOMwIMDIhYM9ADhMCkpatA7/TgGnlMN4otXjt1mHW0wR39yHs3vkWdB+1ZBko3kL3/RH0TbrR3HMWf3/n7zhjrcCf9k/hczUipFhiZEZIUSmomOCng47jZIBfkbQROiCDJ+IyY3awEROfH0F16Q6caGvF0ycvEKUffrL4l79AkX6dFqctaX6RFo2i2K/Rfkpz0dECdH6cHlPOGvz0nQm60v8HJpMe45P34Q+GEZkDovMJIo2nJNoQLA2J9ZcaT9lGurZj6UvlLZZbr3aozeW29eiX37CjYA8s5FH0DqBnXEHXpBddk0PonqDp+cv7ZZ7OT+ycHEHfmOpRvDJ5C61d7SgqKsWlS1cRCIRAGwvTcyV3ec4tHdC7KToXRgRhROYD8IenGT16/BMajphgO/QXPLrRwDai8jvoPNR6+N1m+NguoJr3waJGZK4DxXnMgYDiOGqq98SA4hEGFMNu9bxMOpNSPaLFCA4UycOU8DIJP54xfXAPXwZdie/RpDpUNx1gEtuhdy5vZ7FQK4fAJ088ioEYUPw5BhRL1goo3vXibMyjuH/HW3hpt7EfSvhZp+nvTbp7JtPXQmd5ABTJmpzHPMJgB7wD8HgUHNz3AT6z7MN/+tsQdhsYhdz8TDE6V0yPgFOXltSzx9RyMr50PQTcOsx4ajE1VINX3lq8Hm5Af18t3t29DYc/PrFsAyiTwdQ1cQ9dk/fQNzmkehTf+xvONpbiPzfbMO20wcc+pvRBNYEW/TNSDJhV9Any1GNW0obogM5uw4ABUXsDfv3mCBp0e9HQUI1///EIkWgoizCRDOQopqen8cknn6CiogJjY2OIRCLx4zmy2tgymd29cxu6Q6l2PaVNabRGheZDJxo4cSODDlKnw7pNCLkMmHLUw3vxMHSlb+HEiWP475/PEAzTMTHkBcMCwJgEtubpCBPVw0te3iRaAUAiQCXyX2p8uUBsPdtZSVsEFAsK9sD64Un0eAfQO6age8KL7okh9KwQKHZNjIDWJ16+N4IrE7fQ1tmOfUWluHLlOkKhCH0m2b1c5vCUxddYA/PzUcwhhCj8iMCHCPygw53+9fu/cezEcdTs+z/4+YdmTDuPIOKxIELnoCo6BBTNuyAtoBHL5R9Q/O1mDCi6zAg7VEoCinwKaty7KACvJNCX4V0qvkeT6qwFUCSeoiyCvPF3eG6vUVwvoNh314tz/d9h74GDKNvxFmhWGJ0xGo7fa3Fsy/hagMCl8CSg+LTfhpze9ZRgIr1YyZtI5HQ4ULnvfZxv2oM/BmnagoFRkP3SrkeAQKJLD79Tl5Z4GRkm9LU0XRgRcFoZOJtW6jE1bEN/3yH8/+y9h1tbubY2/v19v+f57u/ee+6555w5kwqhY3pJCGBsQ0JLMullktBrymQmmSSkAG7UFFrKpLdJb2DAxsD7PUt7y8gb2xhjwAwiz4qkvSUtaW15S+9eS0s/xv64DEBxCHXDw2ga7mVA8ceN/8TJ0gS8vlGBic7dyuHP5hJ2wDKfYNji2UIa5iK2iHZZ6QttAftKS19qJa2kDArY18Fx6y48vFKBksIk7C7Jw6tXz+B2T4V1ebaegKLTlgcimkwVoFiI7uadyNf9A0eOHMbX72MMrHGQqNUsiuCNNIkSKC6sMRRlFkxcAsWw/rzXcGWzmJ11YwZOTGNcpUnWn7fvP+DY8VPYkfh3PLy6F2NmAopGTNm3w9mVh8muAkzS2Yo2EXQstFiOdKBIv7VZxfQ0Ow6l2f/As+sSKAazWF/RPH40irXMWeHirCECKQMaNRrFL50SKK7ocw7q45Pi9dQDFJO2YfDuYOQdj0FAkZltEGCcBTo7OpGZtAnV5VH4s3M3nHa9hyY9X2wKmUtXQsK+SMwn44UIWgZWA1ydZXBadsFh1WOsuwQdjTnYGPMDdhyhcxTD9xKpGx5UgWIfKhtP4ceN/8DJshi8vrEbzo7dmO7YhenOEkx3FmO604TpTiPc7IskmeUZMMW+TBViylIQBFE+XxSorK/8wfDzVS4QH7oXrjILtc8Xn9DKkOmpw1aEUVsJHlwtx259MkqL8/H6xQtMu+mTT/j+1hdQ3AEXA4p6BSh26tHVpEe+7t84cfwYnFNuUi6p2kRlb50W3Iimpgwo+gKMdI3ZcywuFOsONr5SfEg7uFheTNvpxzTXX/8kUAzfb3tt16QFiqRNVKwpvo2O4+eTdchL/CceXt2nAEV7MVz2fEx2ERXASVrFvxxQJGc2itfT0qwf8PzaHkzZiuG2mjwaRfrwS1rFOeJmqcr5sdwUVXF6Y2JHBc3tbVTzWCjk+x5p76divhpSGatYF6/TX8jbI7SD8xZD1j4hj1faV93+8vLr4SpjxGRXCT5bi6GYnm6FLjsLpzvbUDfUE9Y1XuPdLvzcfgkxWelIjvobPnXuYtpY5egnOhpGHyQpx8hMkBdwdpyDj1A9aoblCbpeLf+/Gh/qn78+GVSLJwMmLUX4cKMUZ/ZkY2dSNAbvDihAcXqKWW3NztJ7jmZW4P8E88Km8+p0Oh2amprYpvFgyiyUhwNFMuAg06gb128iLWEjaiuj8Na8K3iQI4DIoIGRLOMtX3rRmXfBSaafFhMm7WWw121HdNQ/kH9ob1hfInXDt1A7fAuNQ72oaDiNDZv+hVPl0XjTYcK42cT2pdLe1LnJRLunwdsU2dvEmO5xogmEJhIietmqL3qWpntiPb7K0ItafUkvpgznRSErFwSfeWXE9vG2UeijTx4+iyhD/ZrXJ398uBxIfooMaV8HmQg/ulqMcn0syk078frZS0xPSaConIfoQ1sgmkn5eP84bTvhsu5kH0KYRpGAYmMx8pM349ixYxh1TLA9dbSrm8z1iRjYUfcDKq9zP29dEUX5ySIvLyyBJ4+fS9PThcW0TnKQDk3RKs6wLTT0iwTef/yKo8eqsSPhn3hwZS9GO3fDbdsNl5UWyyZMLAogck3jWtAoAg8ePsCOLB1KM7fg5dXDmO3cgxnzbvahlz72ujtNcHcWC1QCdyenXXB3ElFazWM2we0hXo7np9BfGfq4TGX9ldntzYvlVT5Is3ZSW70oULvF9hQrPImvSKw/Yj5tXJOflw1YLpgyJB/qK1lq7cZkVyk+MUsgPfYUbEFqVjqqOq+gfrBLPf4sTAqBASuOd55HdE4yErf9J95ayjFq240xW6m6laiAnRNMZwX7JVshxj2kn9uGxLcjeUK6p+YNVJ+/e7wsC4PkQ3n91RfouofXSvEhuYi8aDuXsnajdYqrsxSf2vbhzJ4s7EzaiqG7d+CacsE9rWzviRigOM1etIrn0+vXbyIlcRNq9kThrUUCxRUFvQRALCWMJsx07lM5umq3I2brP1BwaE9YgWLtcD9qR/oFoPgDTlVE4U2HAeMcmLGQAMocSJxT3fvaG6BqT5m7a2Fy9dqoXswmamXzurqQpwV7wDJ0WDCVE/YnsAW/di+CuBGel6GQ81Hb7GUSQPd4ObEMXaM+8DIir0Bl6F4oZejr9kJyIAcrCnGwSAuex1dNqCyKQYUxD2+eSKBIL2H/QDGwht/JTKlJy6yannYWoauxBPnJWzVAUQGJEiiuPB6RQHHlZR65HAko0mduAovsc7cAFKuwPeEfeHB5L8YIzFh3w2khb6fFzKHN3FzG56qFwrUCFB9ie3YSdmX/iGfX9sFt3YUpm0mj9eMaMvroWCwQfagmomviR13+oZJ/7BXL0JpF+cDtvwyV81eGrtN9QTMpagc98UBtEOtW2+21juH9FfNp4zyPNtTKSCznj5dYRpUPUwIoxy6NWgrw9Pft2J//I9KzUlDT+XvYgWL9gB1HOy8iKicNSdF/w8fOSvXop92K8yJbPiYXJHG+FNdAmt+K10dXMusOpm4xD5XhvALxEdedS+WjXW+JfRL5ULuWykvsk7h+NGLCYsL7G6Vo2ZeCPN1GDN29DfLkTEcVcpAYERrFaf5dfBq4dv0mdImbUbOXgOJu4eHxhyjDuQEdZllEBFAskkDRSoBxjQFFQywqCSg+fiE1iksAirTvVjGrngOK9qYS7JRAMWKwggSKEfMoIqAhBBTJ1yf9U7T7ikbxC44eOy0AxRJMWXdj0lL6lwaK1PcHfzxEbk4CTLl/xx/tJXD07MR4d8GcEzrmlK4IDrtKNiMcHjLBYSMywmE3wOHlwE4sYwhQhvJxx3cU8nLaMsUCH7GM4DBPdJ7H4ryuIjhsYn1CH1i7hXwe/nQtjGWIv1fdIk8tH5Ip+Z8wYdaeB1dnJl5fSsPhnf9AZkYSajouon7QHlaNYt1ADw53tiEqOxu6rf/At5uVmO0oAdpJy0tbKxbyqUD+J8gPBSe94p+C+6kQQyvVx/OF4rdC5BUsH+K3UB+090U+hf77wz4U8/5QGEqfxPJin8jsWzH3JouyUftOvDIXouFALLan/guDA/2YcrnZkUxrBCiWqpoeQsMa8qB/H2BJm5enA5l98TzaMJQyVIff9mn6IfJbsTJ+2reiQJGbnvahoqEKGzb9WzU9DVGjKMrR60gCrq3jodQokumToiHlgJS+MC1No7hHBYqvJVBkZh2hahRpv6rbor7UrXqMdhaBgGKezr9GcZ5FKV0Q/8QMvuJiXhlfUAISKC4oonWUIQigeIU0ihqg6PkQKGoRFopHtkaRnZ87A3z49Bk5uSnISvlvtDXn4F2PCV/tBXBYdyhkyYPDslOlfDgsBSoVwmHRq0RxurcTDmueQj7LUFmxDKV9lSF+nA+FnBeFlCZexEdto8/QX7vFenmc908b8vu+QrW/nn7ysqKMtOWCKaP21ayHw6zHaEcePt3Mw5Pfd2Bf3r+Rmp6Eqpu/ou6uJaxAsX7AiiOW84jKTULStv8fH8y72Qdw0t6SQ0Llgyh5QQ1ElI98UhCR11za66olo5CH8gVbt8hX5EN+MLQ81DS1wdOeUPgQT94f4uOnT2HhI/ZJy4ccRZZg0lKCt2Y9hm4YsSvvHygxpOLxkz+U97d2HbHaexT9axQJKPp5efoFcKKKVVvWD0AigOaPTyDQx8CJlgelA/EJ0D5/QNEvH1rc++MViI+fMisOFG+jcagfFQ3V2LDpR5wq34Y3HUZBo0imHkGanno9P2/V+pxpJ4FFAkeLBUi+ypAMtTLmYNQfH1XuftvK+fD2CWPJawyI/dOWoXucj9g+sYy/9mlNIXyVIaBN5qdkSmRke22Y6akhlpmeSqBIewFCNz3lQFHZh6oARVtTCXYsABS9VubiC94XMNRe8yq8UIIXXiif9n5cnBUeAAAgAElEQVQo5SKzzBN+PMbh8B2Pwc9RFI/HoHMU5fEY2nEUaenAQDE34R+4f2WPChR3YYKspNg2Bnq3+lo7BLoW2UCRP5lRxzhOVZ+ELunfKM3/Ebcum/D4uhEvrhUKVISX14rwoo1CI160cTLhRRuRES+vGfDimh4vPeX0eEFlWDmDzzIv2gys3pfXKG8hlNBXGeJXjJeML/GhPGL7/MWVNlDbqX1UXqmDt59CpQ2etvI2q+32V4bnV+Qyx4fq4/Lx5kXX1b6JPHjcq20k02JGj64ace+qCf0XilBesA26tBScvvEr6u6Y2VagcDktrB8046illQHF2Oj/wqObZXjdsQuv2svw581SvLuxG+94SHGV3nquU54ygSrw7kalhugaUbmaj8JSpV5t3ZRm11TeAk9WxqsO4sPr5nwr8JblIR6c31y7lfb779dcf3l5CrU8eP/EPpEMlLbPyUbDl/fN02et7IgXr5vCvXh3fS/eXN+DkWvlOL0vDinx/42a6sP4Nvqd/ZSnXfO916+qMxsJFNXJQQJFdY+iAA75/kR29o4fgDsP6GsBjgjgxLg6WbPygUCVrzILAUV/ZbQfJQK1NRigKPKhONUXDFAUy4UiB6U8nXP5qM2ECkMsyo15ePVEmp4uFSjSF1YCivQh4ntnESzNJdieElijyBdpLCR8xf9ErMXjPOR5gg6poOg6J9iCYjmKB/MXuWWePKFzFGNQfHh/WM5RpDMUa0b60DjUhxY6S3GkH3vqqhEvgWIwA2WV8ywEFP8X969UwtFhgttaAjpOaCIkbSLNBREOFOknOws43bN49Owl8vJ2ImHrD8iO+k/sLdyGQyVxCu1KwKESokSVknCoJFmhYh0OlRBRmu5Tvngc2hXvXaZYLUOhVxm6rpahcn75UP0pKh8qQ7w4nziFH+Optpm1PUB9vP0s5G3g/fTT13lleH95OV/yUfvt4RNEGcrLZJSCgyU67NmViMqyROwq2gpd0kYkpmeh6sZvaAgzUGxQndlszc7Cxs0/4oAxGodM27C/OBn7i5Ow35Q4R8VqnEIeZ/eTsd/ESYf9phQ/RPd4PqFuXhcPOc95fKgMLx8in3l1Cn0ivqwNvvikYr+JSNs3ag/vl6ZP/nh5+BDvALyMadivUlb035AR828cPXgQL168FN6n8+fqCAaKtIjVEl9Ac+BAi3yRVODFvtjxstoyXHvCy/krw8upJq5B8dGUYZonX3won7pIZ21VwQcDjDw/hWLbeBlezl8ZbbkAcuAAdUU1irdRO3zHj0YxSKAY8FlogRDvP7/O5ac+K1aXKGeen0KxDC/Hn89yl+Ht88dH2z6eT/v86bq/Pi22DNeYmeCwG/FHWzHKjXEoM+3ES+bMhnxyhu/vr3U8Bh83/N3lbTqvHJWiPjubHt/MRTC3lCA3ZSuOCl5PxaMb5r3O1QWb9xOYl8v7ts+UtgylRaDIGfkKxQpDKRMsL5HPypRRgOK2sALF6nuKp8HmwT60jPSjsq4acYk6tJ45D5fLzRbgqodyscMyvuoSWBgoPrhSAQcd70R7xKwlf0mgSHuZZmamMeN2Y2p6FpNTdJ7iYzTV1aLckAdTfgZMhSJlwlhA6UyYCrMUKsiEqSBLIXaN0t5lWH66Rnk95dQyrKy2jMqDl6E8VE7lY2Rp3pYMGAvSYSokonI8FNrgaTPxJ14q8baI7WY8qa1qG1hfiZePMuyadz5WjpctUMvxthdmCfUI5ThP1jalrwo/LtdMFOxMgcGQgR15iUhOTYQuawdqOy6jeciGRnZERm8IjgupjEg9IKB4rPM3bM3JxIaoLSgqSEGJPh3FhdkwEelzYCrMUUN+ja4TZQkhxXlam5/SvAwvx/Py677K8HJi3Wp+3j5P29Ty1F4vXrx+lZ+nT3Sd+qbtE13X8ONlWN1BlqE2eOoW+ubVNg0fbZnCXJj0uTAW5uJA5S6caajF86fP4Z4KvHaLUKBYJizSxcW6sLCdpw3i93hI5fjiXr3mAWI8jzbki2/hOjPx9LX45nl4GZGXuhicB/SCKeOPVyA+/soQP39yEBaqKwoU76B2+K4GKMYox2OI5qZ+NYqB+spl5KPPvuTg9/mIz0l8rvx6oJC3IVAe7T1eZjG8QilDfH3JRtsebZrzUoDiuK0YY3YTHl4rQZkxHqWmfAkU7QuYnopjzYfZuLIhn59/JADF1PlAkfYEsX1BhI/4nxazsescQIkZeQF/oa8y/JoI/HzFRT7BlqF6xL9gy4XCa2llwg0UyeyUgGL9cB+ahvrQfK8fFfXViJVAURwQERoPBBRPITfh71CAogFucklPHk+16xHxnRAwHrkaRcXpBXmun8bMjHLOKz2w8ckJPHnyBMPDwx4aGRnBvXv3cP/+fUkrKYMH9/DgwQiG7vTjj/sjsPd0obi0ArqsPNS0X0HzUBcah7pD3KdIIJHOYSTqRsNwF+oHbDjSeQlbc9KwKTYat4YHMXL/Hh4O38P9kQe4d+8h7o38oYT3KM3pHhsfNEbu3aexMox791US4/waD+keI2V8sfL37gv1PsA9xpfzoXuc18gcD6ovEB8PP5EP1cPr1YYiH+qT0B8xztsvXmNxLR9Nn7z4irwC92nk/ghG7t/H6z/fYMzh0LxfxTly7pYEil4vaL4gFhbKEiiG8JXJ/3k8pE30DxT5WYDimX4UF0At09IKz8fn8/MFhhYDwvzVH+z1UHhFchnqN7VPOYeHvKiN2k14cK0EpaZ47C7Ox4unL+F2B/4qNffaCS7219IoCmPHB1BUzgNVzzyy6/HVXITO1hLkLBEokj9GOrOWXv+cAkufcnEQyEvwdDBhKGWo3lDKrWQZ4MmTp4iKCp9GkYBilQoUyfy06V4/yhqqEZOkQ4vUKAYepqt+NxBQPIncxP/Bg6vlcHQWwW2j9yadoUjvgEAfOoV3hHZesxVjwm7CeJceb60VqK2MRXrCJnR2tK+qJOa8Iyou9cnigf7oOr2/3aRpnJqCy+WC0+lkNDk5CV80MTHh8zrlDXTPV12hXlspPivZp8lJkus4piYccHz/gjfv3mLfgcNIychDdXsbmoYJJBLQC1Wj6A0U6wZtOGK+xI7H2Bofiy/jY5h0OeGedMHlnILT6YbTOa2GlOY0N0acrkk4XROLJGV8KeOM6uL1asOl8pn0jGWnMxAf4qu2yeXE4vtEMhD7pO2HmF5Mn5xw0nmJs4rH5ln6wrOA2coaA4p8Mc01dtqXrrKYVRa1BBa0gIHyL7KMT6Ao8qG4Dz5M46l98YvleBm6pk4gPrWk4SjDeantYZpVAXwxjaJyRg+dreK0laGrNhcxUf8b9nMU6zhQHOxHZX01Nm78EafLSaNIX10VUKgsmgsZQGQgMSBQFOVDceorJ/Ge9lnI9HzT5oVlQvvwJFAE7ty+hYLcVBwo2oAXnWUY82gUueZAHHsUF2QbTqDIsZI2ZNCLO/BX3PdzOBZ4ZUkVBQMI11ue2eUFisN9aLzfj9KGamxL1qHlrDQ9DTxOV/suB4rKpxj+23r/8TOOHuNAsQyOTj3c7HBwcgCmbhcR3wVBxSNdozg779w1DhZnZmYYYCTQyImuSVpJGZC2l8zYpxm9/PM19v50ECkZO3C6/RoahrlWMBxAsRt1pFE0X0J0dhq2xcfDMeVinwHZtOJjnvL9Sw5lHqIywp+WF08LWZQPlIudy1aKD3+rCA3mfdCGQpaF5m/+4ZgXmaEP/DOBP/KvIaAoLv59AUUtSOBeITUgad6LmderDdXFnc+Xu5YXL8sXhLx9wuKQaWR4Pm1I+XgZEcj640Pl6V4oZdTjEESwyIAiHdRqwgQdFmsrRVddDmKi/o6CQ5Vh1SjWDd1B3dBdNA32Y099NTZt/BFVZTF4026Eg/dHbNu8uCgfklsgGYlyFp+FjHsBl3m/Cf/yIYcM0vR0IaAojjseF2TqAyiGbHoqThh8XlHnMZoQxHPe+G0+QfgOqfBiJ871kH95gCI3PSWNogSKvkdkZF5VNPXiyKdfzvuPn9YVUOTPZk6zqL58VK0iXSdQ6Os+LyvD5ZYAf6crfF6+e409+w9Al5GLU+3XUB+SJpFbjXGQybWKPagfsONo5yVsy05HTHwCxqdUL5rBTUA+hMHbL/7afMXnxp6PSvxcCrZukd9K8QlVYIH7pKwLlFme9YTMAJhGkVK++/YXBoo+zs2btyAOBDLoHj+GQgtO+OJPG6plOODx4heIFy0iQwF9oZTxBRT1DCQqQNGw7ECxPqxAUfsM/KWFhbrXc5HXFwMaJVBU5pvAGkV+zIk4FoVxthxAkc9jwrteAkUulHCE4QeK5PWUO7MhoNhwvx+7G6sRLTWKfhZ1kXQ5EFD8GbmJf8ODq399jSJ/Ir6AIL8mgSKX0mqFNCnQO1D58wKKHddQt1xAMUsBihNTboUxNcE3DuFN8xPy9i/0Hg+l8mDrFnmvFJ+5Z+ZHMH4uB+7TPKDIukP/cZpf7RoEisGCqlXUKPKFIIE/DyjxBxS14DKYMrQAVcuRxi0oPmIZFWBybZ2XRlEEiv8Tdo1i/dBt1A/dQbNGo/jnsmoUuYyFxbrnuchrc2N0YVkwoGhVndm0laDcGI8y6cxGY3oaIlC0hODMhr/bKeQTMcXZa19qFMOnHfW3R7EL9cM9qvkW/8oeXMiPx6Dzy0SgGCWB4vyVSsRdoeXWnEk3/+m9//gRR4+fkECR3j+z3iapPB1xj/Iv3yA+OSgdJaBYuX8/dJnbcbrjOuoGQzE55e84fxrF37FNBIq8CerctDiR88IiWPMVX1ytSu5g6xb5hdSJECx1QuUTuE/Km0uAhR42FPEkvIS5hoAiX+wLIMcLINEil/JwEr/mCyBpHkDg+SnkZSiuXTTz+2J+Hhfq5yCRgzCW5uCP5xfr0vLRpn2VoWvafGJaW0Zon59yTjI5tRgxQd5G7bvQVZeFmKi/oeBQRVhNTwkoNgzdRstAL/bWV2Hzhh9QXRaNP9sNGLPSQrnQB3H5iX0U42J//cXF/DIeePwEkg95Pi2Gw2bCH20lqDDEo9yYj1fyeAwo5yjSHsXFA0Xt8RjiOYra4zEW9HqqvuKV6WL+YtZrBvCb4JOGDLmItF5PGwZsqCcvfyECRfJ2Sg5tCCg20R7FB7dQ2lSD6JQUtJ77BVMLuCzn7ZLh6khA+X3NfYqg9HoFioGeAAFE+bfaEuDPYAbP371Exf6foMvOxWnzDdQuSaNI7y8Ci5wU09NjHZcRk5WB2LgETKrH/IC2wfFmLFocVJB/jqG4lhZdoVBAW9dCaaHooqML1S3eX3TlQgGxHm1cyCZGKZufv7UHFEUgNg8oigtcDvrEULzvK04gg/Jr7/HrvC5K8zz8HoUCiPUARdVpjFdbxTK8noXCUMpQndRmKhuofjq/kICiARN06LcHKP43Cg6HGyje8gDFfXWnsWXDD6jhQNFGXh8L5xFzAhCw/YH6Ju8FfvaLlc8cUHwkAsXHLzEd5oXt2vR6unSg6LTqMdpZBEtzCbanbMUxzTmKPoEiveA1L3pKit9B+TTrZy6QlxeQgAIUYzznKIYDKJJWkXk8He5HkwcopkqguMCziITb2t8XpRWgeHzdaRQDPQ8JFANJZ6XvzeDZuxcoP7APupztqLKEAyhqtIsDXWBAMTMDcWEDiiQnOYMt62jRrB9EXhIoegEQDsa0i2d+XQJF+vq9FKofkkAxvMBNO1aXOy2BIr1Aw71HUdQoSqAoTlGREyegGB0VPqBI71HSKopAcXdTDaJSUtEiNYqR8+D9tMQ/UDyG3MT/Xld7FP2ISF6OOAmoQHG/ChStN1EzSI5olrauU8qrZqgSKEbcUw+qQWsPKJYKJqQE0jjRIpjMEDlpF8U8nxbYiQCP7mnL8TQvz9M81NYn1iGWCVajSPWKdXA+C4Uir4Xy8vvBlFk5jWLD0C00Dt5G60AvPBrF0mi8JdNTqVEMMDb581zt0IhJSzE7F+zx1RJUGuJRYczHa6lRDN301FoIt6UQbjMdD1MEl1WPsY4iWJtLsEPVKI45JhRjG3JQRsceaT+u0kte86LnC1l+S3M7qLlDZlIkQNZzz5+9xJbN0TAc2IfG3g7UDy7N9JQDxaahPjQP96PhXh9Km2uwRadDY+tZTE64pPgjWAL898W19pR+/+kDjh6XQDGCH9s6bxoBxecoP7AXKTm5qLK2o2aQAF5/+MDi3S4cb7+M2MxMxMcmsjMTmTKQfNp4JiFPxPfz8HmbLvq84bsOeTVsEohQjSIBxcUuiAkQcUAYKAwVoIl1+qtjMUBxsf1bzvwrCxSbVKD4U91pbN3wA2o5ULRK09PFj/vlHBfz63ZayUSZzCuNkEDR3zmK4ruC4pr3hWg+z5xRKUBx2qyHyzIHFG1NJdih24LjR4/C4ZhgcyQBFk4KclTnTh9zKF3S4smwzRzrqKJpN7n4B548fo6tW2JgPLQfzbcs4QOKgwpQrBvpwb5fWhCTkYH9h49g3DG5jqS89rrKf1/eQPE9jh4/KjWKa+9xrpMWz+LZ+2coP7AHKTk5KlAkbSJZeoUJLN7txon2y4hjQDEJLied0wfAAxT5L4dCP390K8BtP6Xk5WWSgASKQQFSLQjVLPw8dUiguLAJg6JRJGc2Ho1imdQoRjpAnGuf8lsYtxnwqK0YFYY4lBt34tWTF3KPoo3Mck2Y8FhAkKx8vCt8AEUyPXXT/mDyQKzuUVQ0iltw/NgROBwONgVwz4Fs3w+fTMVQmCjosgSKgkCCiWoWJwyUzwAulxs3b3QgOjoOlVUn0XLXhsYh+5Kc2fB3JdMojvSjetCOPeebEZedjXhdCj5++AwCqb7+xEfO477yyWvLJwGSOweJ/Hf2/hMBxSPITfwvaXq6fKKXNYcsgZUBisc7SKNIexQT4SRnNvQD8Tiz4b8cCuXfWpDAGgGKfMHlY9HlAWmk/RDzBYrP15TMLYR93aO6RC2Bv3asdaDIvZ7uRlddtur1tDJMJgmKDTz3eto80Kd4Pd34b1SXbQMdjxG611Nfz0xeCzymQ5WPARM2Axz2IvxxzYhyYyzKTDvw6slzTPPzksL05lubzmw4UNTKl5vL0zti/ntC3KNI9+e8npJG8TAcjjH2iXV2lg6vVkhRLfrXKNJjkFOx/8FIYJvOeCOamnLDMebA109f8O3zN0ZfP3/Dp49f8Pr1W1xtu4H41DSm7TtwrglnhrrRSB5PR7pRP6Icj0F7DUMhDhSbH95GfZ8F2XvKEZ+aitOnqvHojyd4/+4Dvnz+gs+fP+MT0ZfP+Pz1C8YmxjE17fZ8DKBnzcl/r+WdcEmAZC2BYrikKetZGQnM4vm7Z6jYr2gUq63tqB1cqkaRezxV9ijW8z2KPr2e8jcU/7TC0xTKv0iVwBoAisGCNO3CLJzpYNswfwE4yb2fenk9DWfbwlEXmZ6aGE1YlvccxTo/5yi+CXSOYkTLLhzyXzt1TNiKMG4rwliXHg+vGVBm2oay4u14+fQZpt3qwbphetv9pYAifw/4CV3WQrY3keRLXn6/mYtgbiGvp5tx4ughjI+Nso2Js7PT4CRh4NIGGgFEt9uNT58+Y3BgCOfP/oLqU9WoO1WDupM1qD1VgyOHjqF4dzm2xsZjY6oOO04fwemuG2ge7ELjUBcaR7rRMNKLxhE64qI/JKL9ic0j/Wi634+auzbsb7uALL0eiXGJyMvNw6H9B1F1+jROnT6Nk1Wn8XPVaZyqrcGltiv48/07TLMT/eaDlqVJR5ZeSAISKC4kIXk/8iQwixfvnqFy/x6kZuegxtKOuoGlAEXVgc0QOcTpRgN9PBuw4Win5hxFEgTDhtpfDf/UIoFi5I2VuRZJoOilkfS3YF+vQPHvKDgUXo1i3fAd1A3dRdNgPyrrq7Fx4484XR6DNx1GOAgQ+lpIS6AYwp5df2N5adcJxDjseox2FeDB9SKUmqJRWpyLF0+fskX33Ktl6bG1CxSLVK0h1x76GdfCWHdaC5nJKYHwcbseX81F6GwpQW7qZpw4dhDjju/MdoeDRArVmVfqkUIYagQSaXy5XC4cP34ceTvykaJLQ4ouFUmpaUhIT0d8Rjqi09MQn7cd6buLcfDCGVR1t6PutgWNAzY0DXejkbSJSwSKDGCO9KPxXh/qh7pRf8eGmqsXUXH8CFLy85C4IxtxOWmIzUlHXFYaktJTEZeSjNTsTPx06CDMdhsm3S4GGOWyK4TBEGIR7ZKX0tL0NERhymIrJIGVAYpHzJcQnZ2GbfHxGJ9SnXLNaH8x/G3FQ7rPaYXEIdkEJQEJFCVQZCa7vjWK4QeKtcN3UDt8F41D/ahoqMaGTT/iVHkMXkugGDFgMJDJ6jgDioUY7VaBYnE0dpfk4MUzCRTH+R5FGwFF9fzUIEMCiuTN2QsotnKgeADjjm/MG8DsrFvQKHKwSBMtTbDyb7ESIKB47tw5xMbGY/euMpw7fwENF39FzeVfUXX1N5y8+huqO6+hxn4Ttb1mNA/2oHHAjnMPb6FpJHxAsVEFik33+tB6vx/n7nShpasDDdbrqG7/Hadv/Mao5soFNP1yFvuPHkacLgmJqTrcGRqAa2ZaAsXFPvwl5tcueyktgeIShSqLL7ME5oBi2jJpFOsGbThsvoSo7DREJ8TB4XYpNg/MVTcHhQuFcj5b5oGwqOrXIFAU9wqKcX/7BpemQVEWzVKjyB0vLDX0BxRJozhuJWcepFnxJuU4lHA8R1lHIBAYzD1memrXY6yrEA+vK6anpcXb8UKanqrHY/jboxh47NGRGOTEhoAiNz2d0yiGASjSvCvn3nmTI2kWaf9fcnIKMjOycaqqBo3XLuPcLRvO3rGj5a4dDXe70DDYhYahHjQNk4lpL5pGFGoc6UUDgTwyHQ3R9FQp1weqi+ptHulD63APWoe60TxgR8ugDXX9N1HX346zvR1o/uUsMnKzsSl6K46fOsn2KrpnpjGDWc+eOfmo5z3qsF8gGYvLXUpLoBh2McsKwyqBWbx8+wx7ftoDAoq1YTU9VcxP6wbsKlBMR3RCAhzuKWXqIc9gXr8Y8dejjcs3WFgf+xIrk0BRahQjQqPIgCLz+ugNErlJXjAgRuYJDEbCIR9fexQJKMo9igTyRK+ni3sWLove/x7FY0sEijTnclrihPFXLD45OYlLly4jJ3s7klPTcKi1AU09HfhlqBetQz1opP03w6rDmuE+NA73MmKAkdJLBokEMlUASiB0uBfNwz1oGe5m1HjXgoY7najqvY4jF1uwvTAfUXExKC7djWcvX8ClLsTEpZZcZi3/SCUZa2UugeLyy11yWIoEZvFKBYrp2TmoM7ejPmx7FAko9sALKMYTUHSrQJHarf3ViL8gMS7fYEt5yuEuK4GiBIoBgOL/hH2PoqJRvDPP9FQCxcUBi3CAvlDqkEBReQXfuX0LBbm+zlEMUaO4nECRz89y7vU5f87MzGJ01IFff72I5JRUxO7IRmnjaTR1d+DMYDeaBLBYP9yH+uFe1A+TdpEAneLEhjmkWaJGsZnVR3X2omVI0SiSVrF1yI7G252o/K0BUQVZ+GHzRuyuLMeDJ4/gdE9hmn2p916CyUft81GH9aJ2yUtpCRTDKmJZWdglIIFi2EW6DipcA0CRFtBk+hkMLediW+QfiI/gBp85YeHpQGVW+x55PaWD1Jf/eIza4dsgIjfyFQ1V2LDp3zhVvo05sxmXGsU1sE9RHo9B80K4geKURQ8iBt69jsfYjOPHDsAh9ygu23RMOIsc25AJam9fP1JzsrEtIw079pShrrMNrQPdaLhrR91gN+qG+1DHgGIvmoZ60TzUh+bBPjQP9aN56NYSzE+9NYq1Q3bU3LXgzHA3mrpv4qfmasTnZSEmLRl1TY14+eY1A4nOKRfcszNMs0VAhdOyCUtW7JGABIoeUcjImpFAuIEieUz1Ph5D0SheRlR2BqJFjSIpDD1vKFF7SHH6Ncm/SJXAGgGKqw2k/ur8OVA0YILAmn0XuuqyEBP13yg4XBHWcxRrh2+pQLEXFQ2nsWHTDzhVHo03HQZIoLgWxpkBE1YjHDYDHrWZUGGMRbkpD6+evJDnKC7B9FQEirRXcbSzCJZm5XgMBhTHpTOb5Z5E6VzFqakp3Lp1h3k+jU5LgfHYQTR2t6Pxjh21d+wMKCpaReXMxCYCiYxuoXno9tKAorDvsXrIxo7e+GWkD/tb6xCXnYaYhHjU1tXBMTnBwOGEy8m0iXzJJZdayz1CvOuXQNFbHjK1FiSwHEBROSNbAYxketqFw2Y/QJG9pLS/HAkUI33kSKAYlOnpWljAL6WNEiiGYoa5PstIoEgv9eXUKEqguHrTJgOL0zO4PTSE4n178ENyHNIqinGq4yrzetow0IP6wV7UDfYyqwgCigwsDoUPKJJJ6/mHt1Hf14EDvzYjoXA7UvNycPlaGyack8xpDZ2dKDqvkUutlR8z2uUupaXp6co/B8lxMRKYA4ppWeHYo8hBItcsSqC4mKexVvJKoCiBorpHkUxPpUZxfYK/xXxkIE/DJowzjWIxKg1xqDDuxOvHLzE9Rcc1hO9vbZ6jWMw0rsGZys+Zs7sterjN5Pm0iDm1GesogrW5BDtSyPT0IBzyHMXwDawFanK53Rh3T+HBi2coO3qIuXnPLC/BiSu/ofFWFwgsNg73M6BIx/w0UHyYzE6XqlHsQ/O9PjQOdqOl34L9ZxsQtT0TKQU7cKHtMkYnxjE9OwPycOqeVrycEjjhtEC35O0wS0ACRd8CJU/CpJkfHx/Hp0+f8O7dO5/0/v17LERUdqE8K3V/uduymPoXk5fL5/P7D/j49k/cGuyFqcSI1Mws5sym7i6Zjt5CA73LhkTgF0q8F/UDXTjSeRnR2RnYGhOHF3/SM/yIz28/4OP7D/jw4T3ef3iH9x/e4gOF79+y9IcPHyLmWXOZ/ZVCku/Hjx8ZUb8cDgc7R9j3rz17cXgAACAASURBVNj7qgSKEihKoCjHQNB7I5W9rASGTHh8tQR7iuJRaciXQNHOvZ4qspm0ikf3LBwnkDht1sNlmQOKtiYOFA/B4RhlPhZnZ6eFcxRpqSr/wi0B0s6RQ3c6/evhi6c4XHUSmxPjoSsqxJErF9F0pwctI7eYt9P6kVuou3cb9SO30TBymwHIUI7JaCQnOeQ4Z6QXP9uvI//QPkSlpyBlx3acv/I73n/7zM5JpL6S1pNTuPsu6wteAhIo+pYVAcSenh60trbiyJEj2L9/v086cOAAiPh9nuYhXedxHvq6xu8FCkMtF6hOfm8xdVPexeQnHqGU4W3j4cEDB3Hs4GEc2v8TTKVFSEhOQEpGJuos7agNK1DsQ/1AN452XsG2rExs2hKNvfsP4eCBIzi2/zAOHzyEg4cO4uChAzh06AAOHtqPAwd/woGDc8+a91eGvn83ocqFxsLhw4cZ0e+yoaEBFosF379/Z/OJ71+zclUCRQkSJFCUYyBooMgAkKUY4zYTHl0tQaUhHhVGCRTHFgUU5zSJXPNIexS5RpGbns5pFCVQDDSJhese18wRUCTduBvA5PQU3nx4j9rGJkSnpiDOWIjDV39F/R07GoZ7UXu/D1UP+lB3T9Eq0lEZpG30BxbZfU8ecmCjUONwD2ruWHCg4yLifirBP+NjkJqdjetmM746xuCcUVzMM5PT2VnMqGAxXH2X9SxeAhIozpeZ0+nE+fPnkZOTA51Oh5SUFKSlpfmk9PR0SFoZGWRmZCA3KxtZGelITItHdPw2JGdksnMUa5YFKF7GtqwMbNoaDV16JrIys7E9PQvZmVnIzMxEZlYGMrPSGWVkpiEjIx0ZGRmM5JhYnjFB8s3KymKUmpqKpKQk5Obmoqamhmn+5/+a565IoChBggAUuddT7szmbyg4FG5nNtzrKTmzIa+n0pnN2jJ3pbMCi+GwmfBHWwkqDPEoN+bj1RNpeqqcoxiMRpGAore5r+jMZtLL6+kWHD8mgeLclLV8MQ4UtQCAjp/49PkLjp+uwiZdMpKLi3Cy/TLqb1tRN9yF6gc9qLvXh4aRfg8x01QBMPL0XJ4+BjTp6I3mwR403bHj+M1LiC834G+pcYhPT8OtW7cx5hiH002QFcyBDYVsb6IEiss3EIKsWTtOKL2e9yiSuenFixcZONy5cyfOnTuHp0+f4vPnzz7py5cvEOnr16/gJF7XxsU8Ylybj9J0n4e+8vL7vCxP87ximufRhjyv9rq/NM+/UN38PtWjLRNs3Tzf1y9fMPr1Gz59fI+79++guHwXkjIyUWNpx9KBouj1VDE9PdqpAMWt0TH48PkrRr+NYvzLN4x++4Zv37+q9AXfvn/B12+f8e3bF3z79m1eP0UZ8L7wkMuEpxcKeX5eJw+15cR8PK7No03zfP7q5Pl5PkrzeLBlFsrH6+Qhr5/z5tdJgzgyMoLe3l4kJycjISEBbW1tIJNxslTx9SeBombBpl3ArY80ObMxMZqwGOC0laKrLgcxUctxjiIBRfEcRToeI0Yej7FGxiF5PB23FmPMbsLDthKUG+NRZsrHSwkUERgozgeH4rvFRecoWvSgcyonbHp8MxfB3EJeT7fgxNEjGB9zkM0hMCOQn5e6rxe9vBa6BBggmJnBt89f8UvzOWRk5yA6Q4fiU4dR330TTUNdqB/pZVrFeg1Y5JpFAoocJFKeunu9qB/qZt5UW/osqGm7iLTCnYhJSoa+0IDhoWG4XFNsL+I0TeByL2LoD3CZSrJxwYA7gXdlr+h6BIq0uKRFJu1H3Lt3LwOKV65cYYtO2mcuKTJkgJkZzMxO4+nbpyjdV46EjAxUWW6i6k436gdpf2IoexQJJPbM0XA3GgZsONbxO2Ky0hEbG4+x8UnMkP8CpxszU1Nwu10+aEqOkxX8rbjdbkxOTqK/v59p++l3++bNG/YMfL0uJVBcIwt0cVEZ/rg/oPh3FByqDMMG57lN0QQSa4fvgpxAVDRUY8OmHyVQXENjUDkaoxijdhMeXCtBmTEepaZ8vJBAcQGgKGoQ+dmqc6HTWggyOR23FWHcrgDFzpYS5KaKQJFWpSJQ9PVKl9eWSwKzU9OY+PQdly5eRFJWGjamxcN46hDqu2+g8a4dtM/QAwzJvFQlDhApVDSLfWikozAGutDcZ8GJS+eQvduIuFQdjh0/gZdPn8M16fR0g3/l5WDRc0NGVlUCEijOiZ/G6JMnT5CXl4eCggK8evWKgce5HDIWKRJ4/v45Sn+qQHxGBk6HFSh2o2GYnH0RULzEgGJcXDwmnC5l3nLPADNze+zF/fazs/SpRf6tpAQILJJTJAKJ27dvx71790DXfP1JoLiGFunhB4h88UpAsVjVKBoFjeJKAkWTPEdxDYxF0pqN2YrxvUsBiqWmeOwuzseLpy/hdkuvp2SWS2B6vjMb/lsrApmWTtoKvYiA4qRVD4ddAYpfzUXoaJVA0dektWrXCBm4Z/Dl8yf8fuMKMot2YHNmEnYcqkBVxxW03u1G62AfWoaUPYoEFBXtYT/q7ykaRQKSLUN9aB3sxZlbNvx8+RekleixNS0Jp+pq8Pwl/Y7cmKYJW6MxlkBx1Z68T8YSKHqL5fHjx9Dr9TCZTMxBBmkZ5V/kSYABxf0rARTTEBcXhwmnE6TNBK0PJFCMmAFBv8/R0VFUVVWxvcKDg4NMy+irgRIoroHF+fIBRL54JaBYwsDiBJmg2srQVZuLmKj/RcGhPcugURxA4+AtVNTXYMPGDThVHos3HcUSKK6BsShqFB9KjSIOFG3Ai84yeDuzme+sxus37AMougSNIjc9ZRpFZnp6FONj44pt2wxAH1/ZB1iOHCiUf8svAWb6OwP3lAvfHd/xx/PHMFTswobkWORW7kJj53U0d3Xi/JACBhtG+pizm5r75OyGtIh9aLxtR2OPGWf7bDh6rhlJebmIz05Hwy9n8OHrF0y6XewIDLZfJMCekeXvrOSwkAQkUPSW0MOHD5lzDIPBwICi912ZihQJvFg2jWIPGjymp1KjGCnPO1A7yENxc3MzMz8dGhqSQNFrobYGFuQr214DJi0ljCbMJkwSUKzbjpitywEU76J2aBCNg7dRUV+LDRs34lR5nAoUi6CY4JEZnkhkosdBrQxXUxZsj6JN3aMoAEW5R5Efj2HChDXwfkRfGkUCii6rrz2KW3Hi6DGMj00woMhB4jygKMFioPlw6fcYKJ+DBjMzbrhck3j4+CEKTAbEZ6Yjr3w3aq9dRmuvFWeGetEw0oua+72ofkDeUXvRNNyL84N9ON9nw4kLZ6DbuR3RCQmoa2nGF8coXDPT7AgM0bMp827KdiguvQuyhvBKYG40rO89ilyqDx48QHZ2NiRQ5BKJzPDlu+coWxbTU3Wv4oBdMD1NwIRzSvmBuGnbhDQ9jaRRQUCxpaWFAUXSKJLXYl9/UqMoAQjzejphJaBYjEmzEZP2UtjrlkujOAcUK+trsVEFiq/byfRUAsXVBIHB8JZAUXmN3rl9CwW5qT40ihIo+ppo1vw1DVAkle7MlBPTLhf+fPUah44cQXRSEraX7cbJKxdxZrCX7UOsedCL0w8VwEhAsdp8HeU1p/BDXAySszLR3HIGX759Y1CQAKIvmpVAMSKHjwSK3o9FAkVveURqSgSK5MymOpzObMixjQSKkfro57VLAkUJAIPWwpEGZMxWwo49mOo0YsxsgL0hA9ui/hOFh8vQNNSN5uEeFjbRodBDFO9B81DvHA32oTkIahm8jeahu6gfuI3Sxmr8c8vfUPtTNN7czMe4Va/RJHKtotQoBgPiViIPAUXxeAzp9VRreuoPKM45rtHuT6T0lIVIHef8eAzm9XQBjeK8V7+8sKwSYPsGae/VDGbITHTKhVn3NJ48fYYDx44jJiMdacUGHL9yAS23bWga7ELtcBfq7tpwqv0y9Pv3Ms+mOenZuHThIt69/4CpaWVvrwgSyc/p3L9l7ZGsPEQJSKDoLTgyPaXzE41GI9v75H1XpiJFAq/eKhrFuEzF6+nSgaJ4PEYP6gkodqpeT+MSMO6lUaQjGIi0mkW5n3U1xofD4fCYng4MDEjT05VYRK9VHuM2A77bFaA43WnElxs7MPDrdsTH/l+k78rGz9bLaB2y4dy9HrQM2tEy2MXozGAP+3JOX8/PDPbhzGD/gnT+bh9+HbqL2tu3UHj6IH6M+7+4cCoW79u3Y8LL3JSDRAolUIycsTUHFB+J5yg+lucoKsdj+AGKGuc1WrAoAkUa76OdRbA00/EYW3H86DE4uOnprGaP4mrMLuuZJ6EDpuEjKEcAj11gZx0+efUKB0+dxNY0HVJNevx88RzO9VvRdNuCqvbLKNy/B1tj45AcHY++yx2Y/PjdpwaRAKNS63oWdOT3XQJF72f0xx9/sD2KEih6yyXSUq/fPkf5TxWIzcxAtfkmam53oyHk4zHmPNo3kLn9EAHFLvBzFGPiEzDumlL21E8rHrslUIyMEUGeijlQTE1NhQSKUrsYULvIgGIXLXBNmOk0YtxSiD+u5KG8YAPisrZg74UGtN4249ygHWcG7Ggd6ELrYBc4UGwd6kXrkOLtr3moH4Ho/NAttPbS1/VryC3Lx/b0f+F2Ux4mbhrhtEiNYuQAQn97QSVQpNf8ok1PJVCMjNlxqa0QgOLczjRyhjoLF4B337+h8dcLiE5PxabUZGzKTEF84Q5syUzFZl0STGVl+PTxC1wOJ9wutwSKS30eq1heAkVv4Uug6C2PSE29UYEiaRQJKNZKoBipj2pZ2yWBogSGAYGhFozQId9jdnLAYcR0pwkTlnx87S5B454opCT/HfH5WSg5sR9Vv59D9ZULqLp6AVVtv6Kq7SKq2i6h6volnL7+O05ev4yTNy7jZ6LrnH4X4pdx7MI5FB3ch7xyA9JSf8QJw2b8eVGPmXY9M7/zdmLDtYpSo6h9ZquXNrK9rOM2Ex5dLUGlIR4Vxny8lhpF9RzFEDSKVsX01M0+lNA+XUWjaG0uwQ6pUVzWyXLRlXuAIkU4gekWXVDA4utPH/DLlcvQl+5Cxs48pOTmIDN/Jw6fOok3Hz+yvBOuKXZIO+klGdGh5SrxcxMX3TZZYEUlIIGit7glUPSWR2SmZvHq1RPsrixFfFYmqjtvou52T5g0iqRd7EXDYDeOW9sQm5uNbfGJeP/lG9x0hiIZYMzMgt5vpFWcmZlmxD64Me9skSmxv2qrJFCUQHFRQJFAB7nkd1qMmDKXwGnLx5gtH8+v6NF8IBuZaTps/PGf2LDhX9i0aQM2bdmIjVs2YeOWzQpFbcGGqK34MSoK/46Owg8BaOOWaMRERyFbtwnHTVtx/3wuJttzAHMGpiz5co9ihI9dGiN05iZpnx8TUCyKR6VBAsW54zFCA4puSyGmzXq4LEXM++lYRxFsTSXYoZOmp5E8UXOoSOaibsxiimh2Bu7paXz98gUf3r7H8OAQvn37xq656R6AKSjrJirP/nhFPOTXZRixEqBHpexWndMtv//0HkePH0Fu4n/hwdUyODr1cNuKlI9I7FicUD56GjBpK8aE3YTxLj3eWitQWxmL9IRN6Oxojxj5SKAYMY/Cb0Omp6Zw93YPsrZnI1OvR3XHDTTc7UPD4C00DPWH5Si0xuFe1N21Y3t5GbYlJOHC5TaMT7hUoKgcqUjH/7jdU5hR92f7bbC8sWwSkEAxwhfbq6cN8m1OSBoMpsmzqOcpWvMxac3DeKcBr66Xw9JaivNHslBdFofqsgRUlyeguiIRNeVJqClPRk2FDjUVKaiuSEV1pUpivDIVVSqdLk/CmUNpsDZvxx+/5+NbZwFclh2YtmyHy1oggWLEj106TN7EFj6P24pRaYhDhXGn1CjaFzgeI5DpqbUQBBTdZvodzgFFqVFctjkybBVzsMCBIoFF0gyCaGoGcE1jatrNwCOBCo4DxZA1RrxAcfkX8RKgxySB4txjkkBxTharFXO73ZiYmAB5sxwbG/Oi50+fo9tmx+5iPeIS47Hv55No7rGh4W4vGsMEEhuG+tA43IfGoW7sqT6N2KQU6HeVwmLtwsc/P2Bs1AHHGLXNgTGHA47xcbicTkxLwLjiQ0YCxYhfbPsGbKsBIGlhqgBFAmlF7CxFp7UAU9Y8zJjz4bQZMdZTjtGeMry5VqBSIf68rsfba0WM3l034N11I95dN/mlt9dNIHpzQ493Hfn4Zs/HRNdOOG15mLQVYNKvIxvpzGY1xoV/ngaQ51OHvQiP2kyoMMai3JSHV09eYHqKdCXh+6PJY3R0FEePHkV6ejronB+aCOkFt9p/i9+jqIfWgY2YDtqZzYx0ZrPaz17kz/EdB4oUMjTITa2cbkxMuUBmqXOubzw+cOaq4hXxcO6OjEWoBOhRSaA493AkUJyTxUrHaE6kufHNmzdobGzETwf2o6R0Nyr37cWefXtRWbkHBUUGZGRnY0v0ZuTq89Fw+Xecud2Dsw/uonFIdEqz1DgBz240d9xAUUUlNsYnIDVnO4zFu1Bevgd7KveiorISFXv3oKyyAo1NTXj27FnEzO0r/exWi58EihIoLtL0lMxhCtUyJragJfNTOgB80mpg2iOH1YgxSxFGzQpRnI7RIHJYjCqZ4LDMpzGrCQoVY9RiwijVZS1ix2EofEVzHKUt3nsVxfuRA7L9g6m/bhtpP+s429Oqxx/XjCg3xqDMtAMvnz7HtFsCRTLJpeNmAo4NZoJW6AUcXZZCuCx6kHwn1eMxzD6Ox5i3Ml2tWUby9ZIABw0Usj8O+Jijv7nzET33eT4ZrlkJ8GfOwSKlpelprjweYxVGNH1U7ezsREJiArZERSFKl4jorBRsSUvCtpRkxCcn49+pSfjX9gwUnj6On29cwZk75MW+F83DfWga7kfjcD8LKc7ToQFIAoo9aLptR3O/FcVN1YguLsSmvCwkpmcgJSUN8elpiEtPRWyKDgmJyUhLTcexo8fw+fPnVZDe+mQpgaIEioEXqj7lw8EY7YdQtR+afBMWPfOISl5RKc4p4KKY7X8kcMEBJweSBoz7XFArvCVQjEywSUDGYddjtKsQD68Xocy0DaXFuXjx9JkEijbyCBsiUGQadTJfVfYLfzMXobOlBLkp3ucoSqAYmZM6x4We1gmIkCZkj6MaTwYZWesSkEDR+wlKjaK3PFYqRe8Xp9OJX3/9FanpaYhNiMeek0dx9JcmHL7QhGO/NOPnc63Ye6EZ1f0W1N3pQ8NAn+KdfrgXTYwUsMhBIg9DBYp0TAZR3UAXau5YUX3LgsM3L+HkhXOoOXcWJy+cxc9nW3Co6jS2xcYhVZeKtrZrfs/xWylZric+EihqAM5CQEbeDw6USKAYnJz+yuNp3KbHWFchvncX4MF1PUqLo7C7JAfPnz1hpiPhfNH+pUxPxXcS/xAj7FukDyOTVj0z6R236/HVXISO1hLkpkqgGM4xtRp10YTMaTX4S57LIwEJFL3lKoGitzxWMuVyufDlyxccPXYMW7dF46fqE2ix30DzHTOaBqxoHLChdaQPLSP9zMMp7UlsZprDHjSNEBFgnA8WlwoUG4a6GWAkMNo40I0zd7twXqXGjjaUHz+C2IREmAwmfCSP0HKv4ooNGwkUxUWZjIegXfQNiCaspFFUiGkTSVsYhHwVc0VFozhuNYKTbxM9qVGMZKApahQfMI1itKpRfCo1ikyjSB5hyeEPmZ+KJPymfABFl9QortgEKRlJCYRDAhIoektRAkVveaxkihb9U1NTsPd0I8+oR1xOOrLKTThx/QIDig33FEDYMNCtAMVBOu/6lqJNXFag2IPG4R6Fz2A3Wod70HLHhjpzGwxH9iM+Iw2FRgMGBocwPU1HZgimGCspwHXISwLFIMBLJC/GI7lt3NyUwmDb6QUUbUa253GcFtU2X3u5JFAMVq6rkU95lkUY69Lj4TWDanq6HS+l6aniAt+qHB1CZ5J608JAkfYEk3zpqBoyPfW1R5GOm+I0z4XmOpzsZJelBFZLAhIoekteAkVveaxGatQ5gZ77g0gr2IFNunik7CrEyc7fUT/chYbBLhBQJG1i09CtFQOKZILK9iwOdqNpwI5TnZdRcGgvtqYmIytvO4b/eIBxl5M5il4Nma1XnhIoSqAYNIhbLNiQQFFY8K/DcSaBojKt+Pd6KoHiep14Zb/XlwQkUPR+3hIoestjNVITs258mJ3EnYcjSM/NxtbEOKQZC3Diyi9o6LegaYhMTBVnNc0EGEnbtywaRcXklO9VZEBxoBst9nYY9+/F1phY7Nm7D89fvoBj2gUnZth3z9WQ2XrlKYHiOlzALxbwhZo/VKBI2kNGVnL4oWgTfZueEhAjbSWdKaeQkl7fAC3U5xXucmRqTI6J6IB5L6+nT57L4zE8pqcmjTaRtIvC+PVlehqk11OuTaTQS6O4Xmc72W8pgVWSgASK3oKXQNFbHquRmsIsHJgBaRYfPvoDh48eQUJaCtL0+Tj0+znU3bWjfpBMQVUPpwwkinsUvfcpkidU2qe4KBroQdMdOxoHu9E40ovG4V403LXjxM3fUfBTJWJ1OlRW7sWjPx7BPT3NgCL9lojk38pJQAJFcVEm496L1FWXB5mbahbOq94mYREv27LAeFHPUbQZ5DmKuak4ULQBLzrLGHBm5tQhmp4GfY4iHdOnmp/KmXXlJlXJSUpAKwEJFL0lIoGitzxWM0UggM5VJAcxNTU1iIrZhriSApRdbsXp/k4G3hhYFIEiObTx49TGAyw5wAwQttzpwdleG5rIzPVeH6PjHZeRYCrAj/GxKK2sxKPnzzCtnodM58sSyb+VlYAEinKxv8BifzWBkQSKXtqlNTdWJVCk13m4TU8lUFzZSVJykxJYqgQkUPSWoASK3vJY7RQBAfIi+v79e5w9fw5xuZmI0e/A3rMNaOyzsPMT6+/1gIg0fwwkhgEoNg/2ovVONxrv2FHXZ0bluUYkGwuxRZeEvYcP4+HTp3BOu9lJTyQj8RxSqVlcuVGzxoDiLPuccO36TegSN6NmbzTeWkojGOisJsj6K/DmniD/Cn1Zj31QgD6Znz5qK0aFIQ7lxjy8evIC01Ph/S64No/HCG2PIgFFt4VMrYuYyfVoZxGszSXYkbIVx48eg2Nsgtnm0EdYqVFcuclUcpIS8CcBCRS9JSOBorc8IiFFWkWisbExnP/tN2zTJSMxLxd7mmrRfNvOnNzU31NMRMMGFIf70TLYg4YeM6puXMGGlGRsjovHyVNVePvhI9wqOBTlwwEiD8V7Mr48ElgjQJHwIW1g1QDFPdvw1lImgeKa0zStR9C0/vrstBrhtNCh8kY8vlqCSkM8Koz5eP34pQSKoe5RtBJILMS0WQ+XpQjk/XSsowi2phLs0EmguDzTpKxVSmBpEpBA0Vt+Eih6yyNSUjMzM3BPTWFy1IGLv/yKxJRUbEnVoaKhBs19FtTdMoPOO6S9hKGanjYM9aF55BZoT2Ndvw119nYU/3wMW3U6JKeko7GuGZ/+/AC3m1b98i8SJLBGgeINRaMogaIEyRIkR/AYMGLSUoxxq0kCRb97FBd5jqIKFN1mRaPIgaKiUdyC40ePwuEYZ3ML0yiSVlF+eo2EuVa2YR1LQAJF74cvgaK3PCIpxcxQJ11wfPmOq1fakJNfgM1JSSjavxcN5muovW1B/WCXeuYhObThpDq98bknkefpQ8u9W2ga6UfDUC9qbO0oOXEUMSmpyMnOQ8fVdkx8H8fMtAgR+QTGw0iS1vpoy9oDijOzuHbjOnRJm1AjgWIEg4T1p0Fb2/sJl+N5kdfaYjhsJjxqK0GFIR7lxny8khpF9RxF0raSeW4A2fvweup/j+IWHD92BA6Hg81e9HLnJP3ErY8JXfYyMiUggaL3c5FA0VsekZaanZkBZmbhmpyEpcOMnMwcxG2LQ1FFOY52XELtHdIs2tUjM3qVfYsMMPoGi+K+xroBO1ru9aOq3wxT1QlsjUvErqJduGPuBSYVgOgNCXmKh5Emrb9+e9YQUCTD01lgZgbXblyDLmkjavbE4K2lPPBCK9AiTN6TspNjYNnGAJmcjluLMWYz4Y+2EpQb41FmysfLJ9L0VPF66g8o6jHJACKFhfPI5fd4jC04cfQwxh1jc5sT+SZF1WvcX39Kkz2UEog8CUig6P1MJFD0lkckpfjHRQKL0+5pfP/2Hbf6b6GyohLxumTk7jKh+sqvONdnRevdLjQN96L+Xi8aPM5tuPaQQGMfGkf6UHdfyVN314qmW2ac6TVDf2w/YrMzUFxWhsGhYUyOT3q+Z3pDQp7iYSRJa320ZQ0BRRpDBBSnce1GG3RJGyRQlCBn2UBOQC2PlHtQcieg6LAVY9RuwsNrJSgzxqPUlI8XEigG0Cj6BociYHRZC5kTm3FbESZsenwzF6GzpQS5qZtx4ughjDu+A7PTCs1Ms3cm82qzPuY02UspgYiTAC1xucdGCin9/tN7HD1+BLmJ/4UHV8vg6NTDbaOzZ+nsYPVj0aLnGgMmbcWYsJsw3qXHW2sFaitjkZ6wCZ0d7REjFwkUI+ZRzGuIByjOzoL2LPL0u3fvUFpaioTEJOQXm3C2/RrO9dnQfLeLeUNlQJF7RPVoF/vQdL8P9Q/6UDfUhea7NrR23UTent3YlpqEot0luDV4F1/GvvvZj8jBoRjOa7K8sMwSWGNAkdThU7h+8yp0ST9KoLjoSSSAiZusKyjwIwFk8GOIFjxjKlB8cK0EpaZ47C7Ox4unL9lG9XC+29am11MTJmxF8zSGIij0FXdaCzFp1cNhL8K4XY+v5iJ0tKpA8dgBjDu+AbNuhThQnLdMDaf0ZV1SAlICgSQggaK3dCRQ9JZHJKU4MKSQgCLNrfTndDrx5s8/sW//T0jMSEW6fidOXjyH1j4LWga60DzcwxzcNA73oFEEisM9aBnuwZkBO2rNV7BjXym2piTCULoLvXduYcw1jim42ccT+p0om8iIrgAAIABJREFUn1FEYKiNs0zyvxWUwJoBih7L5Rk3brRfQ0rSRlRXxuDPTun1VIKX4MGLlNXKyYoDxe9dJty/VoJdhlgUG3bgxdNXcMvjMTBhJdNTeh76RZFTzU8axXF7Eb5aDOjgGsUj+zE+9pV9UPNoFUm7KIHiCk6rkpWUgLcEJFD0locEit7yiKSUFihyrSIdnTExMYHnL1+gqqEO8ZlpyCwuwtFzzbjQb8PZwW40jfSgftDOAGPzvVtoGOpB81A3znR34uRvZ5FSlIe4rFRUHjqAO8ODGHdNYpqdacBX+FpQ6CsdSdJaH21ZE0CRHgUNF/Y3O432jhtI123B6bJteN0hgaIEPysHfqSsg5e1FigW62NgKMzBs8cvJFBkx2P426MYWMbK+YlkdloEh1WP77Zi3GgyMdPT44f2wUmmp26nYnrqBRC58ZvnbcrfqjKUEpASWEYJ0C+O//oopPR809MiuG0G1fSULA3oA1Lgd8H8+9L0dBkf47qp2hdYJMDIQCOANx/eoaqpHluTEpCStx2nz7Tg/G07Goa7UDdgReMwgcZe1A3Y0HTbikO11cjO24HN0VH4+dRJfPz8CVPTdEoi/S7m/i2sTZRz12oMwjUJFG+230B2RgxO7NqCNxIohjCZLHbykfnnT8hSJgvJRASK99qKYSyIQolhJ549lqanJBtFo7iA11MfC0URKI5ZCjFqK4H5bCmykjfg2MF9mBj9KoHiasymkqeUgB8JLAQU77M9igZMiUDRx29/oXfuJHlRlnsU/TwFeTlYCfgCitNkhkreUNUPHe++fEJDaytik5IQm5gE/YmDONl7g4FFAop1A134uecGSlqqkJyegcyUdLRd+h2f33/EjFsxZ52DiEpMAsVgn9DK5luTQLHT3I4duTrsK9qG5+17MWkpYuS0GkDEXpZCqLign39dfOnyxddiQrE8xcmMTDEl8w8iFlO/mNcXL+01MS2WXUxcrIPiofZJW89i0oHaq60nVHlr6wk2vdi2hdK+YNviK99i2+erDvGar/rE+9o4Hy8UjtsMGLMb8NVejIFLRmxP/xcqSg348O4Lpr3OSVr6S2/N7lFc6HgMH4tFeiYk9wmbgWkUP7cX4v7VPciO+Q8cqCzDny+eY9o5AcxOASByASDnNuqhirRq1dK8C9oMS0gvpigbCospsMS8VJz+gq0m6IzBVrhAvgVuezVnUR1ZTMUB8ga45dU2yjfvwmIKh5CX8QyS7bLIjlXq+U/swQym8ef7Nzhw+CfkJ/4HnlwtgaPTAJfNAHICtuCxOT7eC8q7WAJFj8BlJGQJ+AWKswToZjGNWUzNTMMxMYkrV9sQGxuPTWnJMNX/jOZeM5p7O9HY3YnSlhr8Kz0JyckpON/YiqmxCcCtgM2Z6WlMuaeYk0rlTAP+gw252bLgMklgjQFFWuhM49v3L8jL346U5Dj8/vNOTLTrMX6zADP2EkyZjXBZjHBa6CBreuGSBzElpDQjumc2eMhpNsBFL+lFEpWjeiaILAaMq0RxTmHh02mAh5fKw6HlpemPc5F94X3X8gm1T7we3n8uD18hz0MhleNt0YbUJ14v1UNtC1UOvB7O21e76Bq/v1DbqK28zqWOB14P5+2vbSG3z5/stP31M4YCtY89EysBGKJ8OLry8dZcgms1OchK+B+cP9uA8ckpOqIprH/rCSjyBaGilTTge3s+vnUYcST7P5CfmYluiw3TznFyPwBgAsCoAhhF2zevOL1XZ+Y8pXKPqWEJlfO42AOnh+7FV7THo3vK8UdeeyvD0gbVA6yvuhhPzltsjxhXATblXTY5+WrjYmW3Cu2jjw8BnyvJUc2znmRHH2b80CzccLrGYba2Q5eagPrSrfjYVoDxDj0m6R3M1ykhfESSGsWwTiuyMvrOIpzHOzOrgEQKiVwuF8bGxtDWdg3Z27djU/Q2pGXnwLi7FOk5udiWkIDsHXno6+sDAUN+PiO9E3i9JGT+EUUKPDIlsAaB4gwmnRM498s5JCTEwZi5Fa2Vsbh4SIf2qlxGN6tycbM6F9eJanJxTSWKM6LrVTmMbpzOwc0lEJWnuq5V5aCtOgdXq3NwjUi9xvioebx4nVocX198iJ8XH+rT6Rx48aG+LYLXQnyIH5cdhfN4qfzo+g0hL5OPKhPeZh7y+nzWpXk2/trXJso70LNVZcHr4bx5WzyhKlt+329fte1TedMYoLEgPiOqO9j6xPZ52iTIT9tfkrVP+QnPntdJ9fGx6q99PutS+8rrobFG5Gmf2l/qN9GVqhz8cjwDLce3ozBrA3Ky4mC2tWNyZpp9lVSmh/C8GNcbUCSNAwHFSTt9BCvCuKUIllM65Oo2w1CQiTNNp2BuvwSr+TJsliuwm9vRZbbCbrahy2KDnchqhc1qUckMm61jcWT1kd/rWidsVrNAxIt4+iK6p+a1dc5vh1e9Kt9gr/ntl9i+INtGbRTbR21Ycjt8yJHazOXBQqF9Fq38BNlZBdn5apdfWfhpg6/8rF6N7CxC++Y9X2EMiLLzVbeva7764esaleXXSQ4e+QVqmx/ZLaUdvA1iHSQTSy9s1i5YLWacOVOP4pIdyMreBktdNsZuFmCiU49JM1lHiZZR/q2TtNYc/AOSND0Nz5wia1EkwAEdhSJQZGl13+LXr1/R29uP6qpaGIpMKMjXo9i0C9XVteju7mUeU6k2Vpdw5Aal2XUVLCoc5f+RJgF6Tg6HA83NzUhNTcXAwAAmJyd9NvP/+LyquWiz2aDT6dDU1MQ8JGluh5ycG06k+J7Bt9EvqKk+iayMJMRE/QtJ8RuQkriROblJT9mCtNQtSE3dghSiNIVS07aAEd3TbfZQmm4z0pIVSvcR93WN5VfrSNFthi5lM5KJUpU4pVOINHyoLr/1BWgDtZfqojp1qXN8WFrDh/JyHlp+gfrp1Sfio/aJ+FGc98lLdskKL5Ef5+HJp8pCrIPXRe335FNl76sufo3lVduilYNW3pSXl6OQx8V+Uh7+/LgsedtYqHl+vG9edanPje6J9dFYoDHB+01hqtBfcdxp62X95ONLkJ+2jV71acaPvz7zOthYDeLZattG7fa0T2gb9Y//BqjuhORoRG2LRnRcNFKz0/DL1d/wcewLptTN6+xc1JDfCN4F1yNQJEsJp90EV5cJTpsJb9pL0XAsFxmJ/4W4Lf8fMpL+jYzkLUhPikZ6UizSEuOQmhSHlKQ46JLjkKyLRbIuRqVtSNZFe1OKkBbjPB9d49d5SPd4nIW8fgqJH/H1pqTkWCR52kH5hLbwuni9PM1Dfp2H4nW6xq/7ijM+C7fPW04xXv1L0kWDyKvPYht4nIdiXjHu8z7JgbfPt+wUWfI8quyoLp/1eT/PeW3nMhLbxeO8Ph6yvCJf72c694wDjDGxLl9x7TWeTlFlztvGQ36ftS1Y2flpn1ddwjji13nIefNQva7TRYNRcjRSkqORmpiI1PhcpCWkITUhDgnb/oGMlH+iocaAZzd2Y9JMIFEhp0UPp6UI3MTcNyD0ByCl6an3zCBTS5UAA3eqVpFpEmkFrqapbg72KP7t2yju3XuAoaERPH70FOOOSa9tJh6HOIKWktUhgeJSH9Oyll8zQHFOCoqSembGjdHRr3jy+AG6bJ249OtZnD/TgLMttTjTWovW1lq0nKlF85laNJ1VQooT0XW6z+kMlWmpAYWsPIsrafGe930qo/JprVH4EC+VR3NrLYhYO1pqWEjt4vURH4WXN2/O3/u+0qcWtU7WJ6Evza01oHu8PxTO1c158lDsp3LNKy9vM/FS+8P6pPLW8lH6I9YzJzex71SOPw+SC8VZulWRDW87fw5ivRTnbWzlMlfb1nhGkb2nTrE+9bnysrxuSvN6OF/elrl2Kf3n9ykU2zRXp/d1yseeE2tfjc/xwOsMVB+rRx03vD42fr3kKMhOGL+8bTzkfHifWV/njVXNGFJ/A3N11LBnwNO8D57n6vUbqEHjmWq0nK3H2fPN6O614N27F5ic+I7ZGXW/HDM2mftVLzW2NoFiMTON1+6pDi5txKRNAYguO4VG5tTm5c0SPLpigqU6FRf2ReP83lic25uIc3t0OL83Fef2puLM/2vvyp/jKLL0/JW7sRPDDrO+sDH44LAwtqU+ZI2NwRgGfO1GcEQMGMwS/LAbgW2wpO4Wuxt4AzAQYO57CUs2ltStC/ttvKx6Xa+yM6urqrul7vaniIyXlZnvyC+fqvNTVpeO76bXn95Nr5/YRedOPEivmfIAvfbMTnrthCrP7KRzch32Na+l3ZLN/qau2Ge5i147sdtTuC8c+8wDURwSk/Zv12VMQiw8LxNbbCz7ieI7p+I797SOU8V2QsVm+bOxa+LJPpt4RPUmVhKb2GuOjeLTsbViqNbxmQfia+bwbcfVjDuGjSMPwv4g7ii2AMNobW3sohxjrEO7ylfrugQYmbFqnFw3ceO+Jla23Si+wH+0njq+AFfJAQd2Eq9IHU9Y1/FLbK+f2ElcznN5eie9cfxheuPYGP37k4/Rm0/tobee3UFX/6NE305N0Jz56opFEkEUO/1IgH6PEAgObSLjmijevn2HVldWaWVllVZXV4mv8TP4CAwgUWTQA7LI8jY/xra2RmurK3Tn9zVaWW7QMpeVBi2tNKix2qD6aiD5Wgr3m7LcMDqryw3KWsSX8bMS+DG+XH5W8vvhuIwvx5waPMewvZdzEtxYpvEj2MhYwUhibYk7XDfWS1qHVDiksNWMbznME8FW4SmxyhxSxabscS5IPti2OEd99pqxMdbKnthwYpciv4xdmafExr8bYZtZW4Vd2/jU75msb3POqw1aXl0yc7zzu5BD/t4OvxKbZXc/QAaXKJbVd5LC71A3v6Mk164XcZXMKSKfJHJhssgE03ynuFqihWqZbk2X6cZkmeYmx+nG5FG6efk43ZgMytzkcZqdejIsx2h2+gmanT7a/TL1BM1OHQsL+3vKU2RMD2NpmZ+Ojf37YuO4dXw9wKklNvah40vCTsXXq3VsiU/Hxtj44lOxMYYtdnqFpY7PFxuvt46vi78DU0dpNixzU0eJf9/m3j1Fc5efpRuTT9H/XSqa/3+6MDNmXkjVCF/Ixy/mk5fytb6Yz3eKqNtxojj42/LBngGTCimDPRNELwgMKFGU8EMZ7jlX1T/xFirJ707gbal+h0LLFlUG55GKtmpfYsqKVHPc7PXQl/Yj8+rFnLQfmU8mP2ryWl9iZpnJnhrMVR2f2FRDAu/c4CsqfbS+2G6Jz2dHt1trJJSoxRb71np23cJO4hM7MlwNS7anFLjKduT3QrpYxn50h11XA6VL22yZG3eaRva6Fr7pTBnpsDq8RJFJot4IRvXlWtGcJAZEcZyWqmWqT5fN2xMXp8ZoYfpxWpgeoYXKI7Q4xS/LOByWCapPTlB9apzqU2WqT5WoPlWk+nShu2WqENg19tkH+2KfdpEYeAyXLsfhm5eJT3ymja8HOHnjK4Z4pI2Nx61TfLnWluezXmursWNc7JyTa+6T0j3sFqcLJGWhUqB5U4o0XynSLX7R10yZFmpFmg+/a8wv3YteYuOr++8F0T0CRLHDjxKod4iAkESW+BkOBIaCKMrxNr9yn1+sJi9ZE/n7HSIucs2y+aZ42eXmlGLH2BZCKi9564Ef9sd77mbpoa9O5yTYiNT4S136RLYQDGtdZBzLJgaMRw4cYrZCfbEjUo9pFxv3y3ijL+vUYWxmro74xJfITPFJbF3ALhZfaI/bYvE075fcwd8zZtm9n+EiivoEMSKG0WYwbDNEMSKLTBQbFSaM4+a7i8szBVqeGaXlmYO0XOOTivGwlGm5yqUUnV5wf7OwzeCFGsEYHsdFdEK95njWTdIRfyLFnsjQl9iI2dVxKT+J8YWxxOy44uN4GBOJi6XEpKXYc0jzL5n0WKk7xsr8vDqs69HrZx3nWtyFOJg14lzm035+NFwXJnBF8y9t6rUC3Zo8QPw/UBcro1RX/4bK/6+80pBEvi+AKHbvUwWW8iAAopgHtf7WGQqiqBMzbb2/lwXRAQEgkAWB4SKKCeTQPl00ZIjJRfxRVHkkVSRvUiOiOUZLtVF3qY6pcawjpxv8aGtwahm0cV9ox6vDurZOgZZqCf59cZl2HVu4KXbGJ3OV+DSe1pwMsZbHf3lcu9iSYhCsWEoM2rfUdQxah+syJidOiWuhffniS4pN67TDyZdfan4GIx2Trutxut7D+DrGjuPUc9D1CLtGZYzqlUNUnz4YlMoocZspsRj0vNPWQRSzfG5gLBAAAu0RAFFsjxFGAAEg0OcIDC9R5A15UpFTtuAUQ4ihLUEUZaOtiUaZlkAU4+Q0kbxFZKc9oQZRjJPGCDshiovTB4kLk8aGlCrjFv6+5yKNIIp9/lGF8IDAwCEAojhwS4aAgQAQsBEYXKLIpw68idRFSE2aUyUhismnip0TRY6TT97k9I3jDU+VYhtabtcnKbZOmjl5SAZvoPWJW4zUOPw041N4OnVkTjwunJP3ZDMpBj1vxkH71XUbI62nxuU5eU1cC+3HF19SbFqnHU6eNYxhkuRL4ZBap8P4OsaOY9YY63oUmxDFeoVJok0UD6mTfjvXfJjodhBF+7MB10AACHSGwFAQxc4ggDYQAAKDjsBgEsUyBd9J0hs9q96WLKwnUbQ3vmmIoq3TK6Lo8COkLzXRYOzbESB78+4jOxExaCWMPh2eg1r/tmvvIGMdk52k2PSc2uHkiI3Jt55fjLTr9bNwSK3TYXwdY8drZ89DrnVshegEUU4SRVZBFAf9swjxA4FhQwBEcdhWFPMBAnchAiCK63GiKJtelrzxBVEMcNC4SD1ODHIRJBBFi1gyEWNcBWNbasxzEFkQxXX75Lh27RqNjIxQqVSi+fn5dfMLR0AACGRHAEQxO2bQAAJAoM8QAFHcCKIYng5m3WDnIUBtX2ajSYMQBiYLWU8A2xGMrPbUCWHzZMxHdiRu0WkXi+PULutaNGMSnyw1lrpuxZd5HXuJHcep4+sUuww4xDBMt7YN8wIb9d3E5omiXlMbL71GvjoePe2zjyaEAwQGHgEQxYFfQkwACACBoSKKZgMekhzXd+ViZMDeMPJG1VXscWmvtS3ZjHNbkr6tI3pJOnn7bF/tYmM/eXSS4tP2pJ403o4hrU47m65+sW1L11jdZo/na93frXoeP3l08sabx1cenbzx2Xogivg0BAJAoLsIgCh2F09YAwJAYAMQGC6iqE8VHPVEomhvHLt1zZvfPIQvj06emPPEl0cnT2zQ6Q3JBK6tuIIobsDHD1wCgaFGAERxqJcXkwMCdwcCIIq93jTnJVUgiq2b+V6vFezfvZiDKN4dn3iYJRBYPwRAFNcPa3gCAkCgRwiAKK4HOWCyyCWLrzw6WezrsVljY908Oton6tnyAXj1Fi8QxR59xMAsELhrEQBRvGuXHhMHAsODAIgiNuC93YADX+A7CDkAojg8n2qYCRDoDwRAFPtjHRAFEAACHSAAojgIm1jECLKFHOhtDoAodvAxAlUgAAQcCIAoOkBBExAAAoOFwFARRX5ZTfPNp/3yMhts8Hu7wQe+wLcbOQCiOFifXIgWCPQ/AiCK/b9GiBAIAIE2CAwXUVQbRtf/qtuQt56qmDJ9RxF6IEDIgfXLARDFNh8V6AYCQCAjAiCKGQHDcCAABPoPARBFbMbXbzMOrIF1v+YAiGL/fTohIiAw2AiAKA72+iF6IAAEiGiwiaK8GdTxBk6cKGZ8y2q/buARF8jleuQAiCI+EIEAEOguAiCK3cUT1oAAENgABAaTKI5Tw/wTe/5fg1IssgiiCKKIR32RA6lzAERxAz5+4BIIDDUCIIpDvbyYHBC4OxAYXKJYViRRyKI6eQBRBElITRJU3kDnLs0bEMW74xMPswQC64cAiOL6YQ1PQAAI9AgBEEWQBDzaiBxADoAo9ugjBmaBwF2LAIjiXbv0mDgQGB4EQBRBEkASkAPIARDF4flUw0yAQH8gAKLYH+uAKIAAEOgAARBFkASQBOQAcgBEsYOPEagCASDgQABE0QEKmoAAEBgsBEAUQRJAEpADyAEQxcH65EK0QKD/EQBR7P81QoRAAAi0QWBoiWJ1jJZaSrcJgf73HHa9276GzZ6Nl77u9ly1bV1fLz/ss5u+9Bzsejf9sC3bvlyvlx/2101fEr9D1sapMVOm+ntj9Ev1GL385Dbau+PPNDV5uc1ddP26r127RiMjI1QqlWh+fn79HMMTEAACmREAUcwMGRSAABDoNwQGgSj+rXAPfTd1lBZmxqheK1GjOk5L1TZvPe3q5tK3UZW3rdqy25tbn/9BbmeMbNz4utvY+fx029d6+eE1T/LVzZxI8sN93fTlyoVur1Eb7GqHQRT77QMK8QCBAUYARHGAFw+hAwEgECDQ10TxyhUaHdlNz43dQ99PHaXFmTFqDAlRbNQKZJfubry7uYlvb8uei1z751Q0/wuT/x9mvHSbgKwX2Qn8xOcic0ueU6PamguMXxJ2bpLNxCpJL2tffuxk/W3pj0+wsmUydn57vrkmzAlEER+LQAAIdBEBEMUugglTQAAIbAwC/UwUP7hyhcb27abnx/5EP04eoXpt1JymLFdcp4ly+sAbwc42l2bjzpt3Z2GCIyXa1MY37hJDPI6mvVqB6lZJJgbxTW/TjjM+X9zZ29NswpuxWPPh+bXOKcAlwC/Ajk+IdeE/BMQfd4zPXcfU9O3EQdbIR0jZvx7jx0f7bK2nmFPs8c1oPs34M2DnOk2Mk9N0c2r6zoBd93M8DXa9y4dgPnwvCUttgpZq47Q8U6Dr08fo709so73b76WpycmNuTk7vOLRUwcoaAICfYoAiGKfLgzCAgJAID0C/UwUP7zyPhX3PUinRv9IP00epqXaAVqpjNFKhTeP7UqcpLVu8KMNu93HBMcmcsF1MUZqYgTHG08Qh99m4KuVVLnja2fHHbdvPv529sNkwsZGX7eLJT4nxsFNDpNxdMeQ7Nu/TtpXvM46rXjE52DHkmdOefMh8GXnPZPE+Dz0tXtOrnlGbW7s2I/tO7rOM6c82HEM9hoE13nyoWEIIj/GzuUwLVWP0mrlr0RTRZp/90l6Y2I7PXzfJpq6PJ3+htrjkSCKPQYY5oFAFxEAUewimDAFBIDAxiDQ/0RxF50cvYd+unzUvJxmpVIYMKIYbG6TN7IRWeRxSeQkjZ1o099KfLL0ZSWKixbRkrkYGX6vLpnYlMJHi/VJbUBCbIKQjIOb7PgJFZMrP6ny4+AmO4v2Kan1eC3PxY4/ETvzGKqbqCXj6Z+TPw/c2AWPfLtjkBP8THPy5EMLduZRc50PPSCKlZAs1g7TSq1MdypjdOvyMXr9yDZ6ePs/09Tku0R0Z2Nu0JZXEEULEFwCgT5GAESxjxcHoQEBIJAOASaKt27dopMnT9LevXvpo48+Im7rh58PrrwfPHp66C/0w+XjVA9fYrM8UCeKbqK4OFMgmxzozbuPnNibca3T7bovBiFtdiw8J18MjZqfVNnkQBM6fjxU/Glp+477dZMdbbe17idVfhxa58RzSZyPwcFBFNvmg5ukrRdRrIdkNzpF1PEEa6TXhHO7N/nQZaLIJNEQxTItzYzR8swordZGaXbqCXrl6GZ66P5/oumpCyCK/fCBgBiAwIAhIETx1Vdfpd27d9OHH35IS0tLzln8wdmqGm/fvk3VapUeeugheuGFF2hxcZHW1tbUCFSBABAAAr1B4Mcff6Rjx47Rrl276OrVq31DFN9//39o/6O76ZnR7fTt5dO0UHuaFmv8XcUy1SslalSKVJ8uZChjVJ8eTS6VUVqsjNKCs4zRQqUQliItVLiUTFmcLlG9Wey4xuI2q6M0Xx2lBS4OP+y/zsURqz82ty2X/TRtSTFIXLFY2s6JsS/Q4rTGr0TzIX6CY4BpMGaxUqB6xb1mMd8tGIoPltEaRT6CNdO+Fiq8tq0YJuMQzsnkROQnzZxi8afELsp1zq8g3zjvonlJTsr83XNyzTNqs3Pcld/sW+f4mMnXPHPiNQ7WIcAvDXaSf1rGfLeso+AhvvScxqk+zaVMS+8VaOm/y/RbbZy+eucYPbHvH2j/I5vp44+v9ObGm8PqZ599Zv6gd/DgQZqdnc1hASpAAAj0EgEmh/zDHI7rv/32G73yyiuGKH766ae0vLxs2u0Y2hJF/gv+J598QqOjo+b/4/z8889msyYObYO4BgJAAAh0igD/gYr/usV/5SoUCnTgwAG6efNmp2a7pn/1k6t06OA+OvjAn+jj/zxJN6snaf69p2jxvyaoUQteaMMnKg1DGj0y9tif/4UlfGokpV71n4zxyUpUyuaUk086GxVdylFM5oUpgW059eLTlgU+cbEe1ZR+lhKLS+pxvay7fOs2jVPbORl8gxfLBPiVabE6Tgu1cSMZw6AwpoIxj/dj4Z17tahsRGsU+RBf4odl8omiOw49H7aRbU4Sf1vsTD4Uo5yqcH5F+RbNS2PHj9Mm5LGvL4Ydz0mwivwFvsvB22r5dy/M8ez5EH5n1ax3Nuxc6+Gdb2xO8XxoVCZoiUt1wsznZqVMv0w/SdXXynTwwX+kwoE99N23X3XtntapoevXr9PY2Bg9+uij5o96q6urZkPKm1IUYIAc2NgcYC7HhdeB91crKyv0ww8/0P79++nw4cP01VdfEf/Oun7aEkUmhN9//z2dOHGC7rvvPnruuefo888/N0x0YWGBUIABcgA50O0cYFL4wQcfmNPELVu20IsvvkiNRsN1D9uQtvpyg87+60l67P576OWJB+jj8yX66Z1xuj41SrOXHqcbF/dnLI/RjYsjbcvcpRGadZbHaPbS/qhcPECzYZm7eIBuXAjLRTu2EbJtXn9nhK47fQS+5zxx2nbccfriz9bui0EwtGPhOfnimbvE2O+nuYshfhcfp9lLB+h6WATHWdMeYeyLwfYd96uG9BBXAAAILElEQVTWie2pdYrVL3EM4ot13PHfuOTLGT2n0I/M51KUG3pOAQ558kHn+uPNXOO8i89J5sPSPyffXAMdsRFhx378OR78Xuk14dzOlg8HmvnAeRHNKVqjuUucP+610L5b5ybz2U9mLZq/swfpxoVDpsxdOERzF8bo5wt/pf89f5hOFe6nXf/yR/r7iy/R6nL/PN3Ff9h7+eWXaefOnebrAl9++aU5WeRTCxRggBzY+BzgfRUXJojffPMNvfTSS7Rjxw568803zf7KdwDYligK8+RjySNHjtCePXuoWCzSqVOn6MyZM95y9uxZZ9/p06fJLmyH20Tquq9N2lnquth2tdl94se2Idci9Tipa6nr2q9LP0tbkl27T+z6pIznfq7LtZa6njRO+9A6uq71uV33ybVuk/Eu6WoTG3af2NTtXM9aXHZcPtvZ1XZkrG1Hxmip66InUvrsa2lnqQuP09d6nPRpW9Kv+6RN7Nh9ul/3abtST5Jih+8v4+Pj5lGmZ5991vyxql++n8jMdGVtlb748nM687en6NCerXTk0U30fGk7nR7fSqeLm+lMcROdDSXXpUibSD3ubGkTneHC40ubyFyzHWkL20+H41jq+pnSZjpd3GT8mxhKW8JYttDZ4hY6W2IZxlbabOriU9sRu7qN45FrOza2IUWPMXOx9HSbjGWp67Yvu09siE+XZAzFrpZiu8WmrJHBkHHcTKdD/GJYhhjLGpn10+vTtBPNSeKN5GbitQrWi2W4TqUtqh6spRnjwCeyFeVHHIdgncWP8cF+jN/ITzC3yFdzXpZPwUv8xq+DXDJYmPxi32FRczOYmhxmbIMcZ6nrbF+ubV9mrOizfbEtvoocx5bQd/B7JJjEbJUjH9pXs27WMMBPr72dD8H68TxkPcO1UL8P7N81J2kLfCr8m3PiefDv61Y6U9xK/za+g54v7KDi3r/QQ/f9mZ4+OkHXPvucbv/eHy+y4Xsin1R88cUXxPfrRx55hCYmJgxhTLrfd6vPt9/slv2NsLMec+q2D7bXbZsae7HdCz9im/3puvaft67tpann9dMudtlfHT9+vMnnWIe/4pP005YoijITxq+//preeust2rdvH/Ff+bdu3Urbtm2LSW7TRcYlSe6zC9uwdbRdqdtjbDty7bKndWWclkk64j9pjLavx/t0tG/RtfXS6oq+LcWe7UuuXfZFR0vbrujb0mVP69rjdZ9LN20MWjetjo7Fpe+KTetIXeuKjh2DjBXZTkf0xZ6WYkNLl71OdMS/z672LfW8Oqy/fft2s9F4++236ddffzWPRPBfu6TIfWmj5Nrva7SytkY///ILnT9/3nyH+957723ex7LipNdG63aCobaj7cv6aOkbq/3LGK2n7Uq/S0f3aX3dbuvpPu1H60vdN1baZZyW0qcl1+3COnqMtqHr9hj7Wo+Vuj1GX3NdCo/Xfb5rGe8bK35F6vG67rIvOlr6/Ei7Hit16dOS63bh8XqM6NvSHmNf2+NddrUO16W4xoq9PDqiK3bFj0hp15LrmzdvNmVkZMS8K4L/cF+v153fJ9qoeyL75T/mfffdd3Tu3Dni7yryaYXEzlLm4pLcJsU1VtuRfhnvsmePl2s9VvRtezLWllrX1rH7RNduF5+2FHtaig0tXfY60dFxaDviR/uWel4dl31ty+dT2rXUej67drvWkbo9hq9dRfvuREf8atmJPa2bNm72zY+J8+/p3Nxc2/tIaqLIGzR+fpUL36D4MTB53Gx+fp58hd9ayIX7RUpd+kRyOx9P87VI0ZEx9rW25dNxtWs9bVvqosOSx0oR/9Iv17aebnf5kjaRPF7b1PYkBrEpsbjG23bEvkixqyX3iS2R4sseJ+3ank/H1Z5Gj32wLo+VIn5dNmW8SPEh0qUjfaLD0i4SA7fLeJbantbR7Xq8jJF+3SdtIrUvrnO7Hs91LtyepCM+ta60aSn94oul+JA+kaKnryUGHaeMkz6xqSXXdb/oSDvfW/g+w8/RCznUciM3Q+ybY+HYeGPEXwDnWPmRDp6TSK6nKVnHax+d6Nqx+Wxlbbftuq6z2vSNd9lu1ya2RLYbr/tFR6Tuy1v32cransa/yya3udrZXtb2pBjElsiksXafT8fXbuvra9ERqfu43q7d12/b0dc+nbTt/HIY3nPxeH6hIBf+4z3fh/rpR+6LfD+Uzwkbh7RzFj0ZL1LaWbra0vT79LK2a192XWyJ9PX72l16rjZb33WdR090RLrs+tp8Ot1q9/nV7Xl9+fS07bT1PLZER2RaX0njXLb4HsKPizOna3cfSU0U5WbEBuUGxZskFGCAHEAO9CIH+D7DNzG53/C9p90NTe5TGyElPsjo5BdYAAvkQOc5IPczxlLfD6W93yTHKT9Y/87XHxgCw17kAD8uznusdj+ZiaIYTBu0jIcEAkAACAABIAAEgAAQAAJAAAgAgcFAAERxMNYJUQIBIAAEgAAQAAJAAAgAASAABNYNARDFdYMajoAAEAACQAAIAAEgAASAABAAAoOBQG6iOBjTQ5RAAAgAASAABIAAEAACQAAIAAEgkBUBEMWsiGE8EAACQAAIAAEgAASAABAAAkBgyBEAURzyBcb0gAAQAAJAAAgAASAABIAAEAACWREAUcyKGMYDASAABIAAEAACQAAIAAEgAASGHAEQxSFfYEwPCAABIAAEgAAQAAJAAAgAASCQFYE/1Ot1QgEGyAHkAHIAOYAcQA4gB5ADyAHkAHIAOSA5AKIIoow/FCAHkAPIAeQAcgA5gBxADiAHkAPIgVgO/D+oEi+Vp0WXqgAAAABJRU5ErkJggg==;" vertex="1" parent="1">
                    <mxGeometry x="21" y="70" width="784.72" height="220" as="geometry"/>
                </mxCell>
                <mxCell id="4" value="&lt;font style=&quot;font-size: 36px&quot;&gt;How Components Communicate&lt;/font&gt;" style="text;html=1;strokeColor=none;fillColor=none;align=center;verticalAlign=middle;whiteSpace=wrap;rounded=0;" vertex="1" parent="1">
                    <mxGeometry x="21" y="20" width="529" height="20" as="geometry"/>
                </mxCell>
                <mxCell id="6" value="&lt;font style=&quot;font-size: 24px&quot;&gt;Communicate with a Custom Event&lt;/font&gt;" style="text;html=1;strokeColor=none;fillColor=none;align=center;verticalAlign=middle;whiteSpace=wrap;rounded=0;" vertex="1" parent="1">
                    <mxGeometry x="21" y="330" width="380" height="20" as="geometry"/>
                </mxCell>
                <mxCell id="7" value="A child component dispatches a custom event that triggers an update in the parent component." style="text;whiteSpace=wrap;html=1;" vertex="1" parent="1">
                    <mxGeometry x="21" y="360" width="530" height="30" as="geometry"/>
                </mxCell>
                <mxCell id="8" value="" style="shape=image;verticalLabelPosition=bottom;labelBackgroundColor=#ffffff;verticalAlign=top;aspect=fixed;imageAspect=0;image=data:image/png,iVBORw0KGgoAAAANSUhEUgAAAU8AAADvCAYAAAByplaoAAAgAElEQVR4Ae29h1tVxxo1fv+f7/l9371J7JqoUVNMYozJjSkqvRdRQDocijWxt9gLArZYY6ceDiDoVQETk5sbk2g0sSDSQc36PWvOGc5mc9DjEUTw5XmGmT3zzjuz155Z552yZ/+jubkZ4gQDaQPSBqQNPF0b+IcA9nSACV6Cl7QBaQNsA0KeYnnLyEPagLQBD9pAJ3lC/gQBQUAQEAQei4Bx1CHk+VioJFEQEAQEAScCQp5OLCQkCAgCgoDbCDw1ef7999949OiRcg8fPgSvtdPx4tvxERwEB2kDA68NkNf0cyO39fT3VOSpifPBgwdoa2tDY2Njt8nlpqYmiBMMpA1IGxiIbYCc1tDQgNbWVpDnSKI9Eajb5ElF7e3t+PPPP3Hu3DmcOHEC+/fvx969e7Fv3z7l67C+pm8MM/1JMuY8Or+rfDrO6DOsnau8Rv095dP5zemu9GnZnvTqeHNenU/7Ws54zbCreK1LpxmvdR6jHp2u04z5dJqO0/nMssZrc9h47UqfK93Mo50x3Rg269W6jfHmsNZp9J+Uz5yu8xrrosNGWXPZRhkdfpwunV/7Rt1Pyu9Kr47T+vS11mX0zWmurrW8MU2HXfmU1/E6r/aN8TqsfZ2vJ59yWo9RRsfpdKM+LWdMM8s/Tob8dv78efzxxx+K9/Qo22iFukWeZF5amv/973+xfft2JCQkIDAwED4+PvD29u7iGCdOMJA2IG1gILcB8ltcXBy2bduGX375BR0dHcoKfSrypNlKq/Pq1av45ptvEBkZibS0NGzZsgWHDx/Gd9991+mOHTuG48ePd3M9xRtlKWOUM14b45nHmNbTtY7XZWgdrvK6ktXyOs14rXW6SjPrN8oawz3pM8ro8JNkdZna1/lc+e7I6HxPKpdyZn3Ga3N+Y1pPeXW8sQ46n1GfDmtf53vctdb5tLLmfDq/Md5V2FiXx6VTzh3ZJ8noMtyRM5dpvta66JvTXF1rOZ1Py2jfGN+TrFGG+fS10XelrydZcz5eP05W6z506JAiTRqJERER2Lp1K3799VdFoE9FnjRXaZ7SjA0JCUFWVpYatt+5cwctLS3KIqVVqh2H9uIEA2kD0gYGahvgfCf5zWazIT09XRmMZ86cUWs5T0WetDqvX7+urM6goCCcPn1akSOH8mZnVCxhQUAQEAQGKgLkNhqNtEJpNHKkfevWrS6LR0+c8+RYv6amRlmcHK5///33AxUPqbcgIAgIAm4jwClLLo4nJiZiwYIFauqSpKr/nkietDxra2uRkZGh3I8//qjzii8ICAKCwKBFgORZXV0Ni8WCzMxMtXDEOP33VORJBUKeGjrxBQFBYDAjQCtTyHMwP2G5N0FAEOgTBIQ8+wRWUSoICAKDHQEjeXKXEfd7PtOw/cqVK4MdM7k/QUAQEATUyroetpM8uded5KkXjZ56zlPI07NWRcA16J5pkFyCgCDwPBEwW55Cns8TfUdZfAj8xTL+avVDNaRIQUAQeAoEhDzdAOtZLULm70kH39DimxY8ZIBDAOOcibFqWkdPeoyyEhYEBIG+R4B98YUZtmuC8PS2eyIWV3p1XE95WAejzOPkdH2N8q7iXOngSwZ8Q8vf31/tF+O+WfOfUa8Om2XM1+7KmfPJtSAgCLiHAPvYcydPWle0tviOqHY8J++3335T+0QZ1kc8sYIkGP1uvCYX6mC8fj+W8rzWTsvzzEAek8cX96lX52GYe1L/97//qXdSqZc66bQ1yHP7mP7DDz/g2rVrqg5MZ510+ZwU5j2wHvfu3evUx3TGsXzmpQ5dB5ZFx7owncdijRw5EjNmzFCvfDGedaCjHGU4n3L58mV1chXrxXimsy5aF+vB8wToeM/Mw7D8CQKCQO8j8NzJkwWy8/Osz9DQUKxatQrFxcXq9SZfX198+eWXmDt3Li5evKgIip2f78uHh4cjOTkZFy5cUCiQYMj6lOW7pXwxn+TBBat58+YhOjpakdKuXbtUOV5eXuqoPOb566+/kJKSosiK8YsXL+7cZkAiIumVlJQoeabPmjULfn5+WLJkibISKUN36tQpBAcHq1OkeCIL68d74CtbrB8Jk29eMS+JkXp4Ektpaakich4uwHq8//77GDZsGMaNG4ewsDBs2rRJ6Scxl5WVKYuUeT/77DPMnDlTHUTA06o0yd6/f1+dXMW6LF++XJ1tyOOyeMIVCVT+BAFBoPcR6BfyrK+vx+rVq5W1RbLhkJWk+d5776k4WmEkAlqHJNqdO3eq+I8++giFhYUKBVqWPNVk0qRJGD16NEiSjOPc4eTJkzFhwgRFViSbd999F2+88YYiJxIKtxW88847yo0aNUrpWLt2bacVTLLmOaRjx45FQEAA5s+fjw8++AATJ05URHn37l1FsHl5eWD+Tz75RJEm6zJ+/HgUFRWpevMemGfKlCnq7D/W5fXXX1fnmf7nP/9RlirfiyVp8p7pM8+6devUvZOcv/jiC1UP3jvrrq9Z/x07dqh6sD48mIA6SLCsO+vx8ccf4+eff+79ViMaBQFBQI36nuuwnWzN4S0tTnZ2kslXX32lLD/O/c2ePRvDhw9X5Hf27FklS5Kg7PTp02G1WtVjo3VIC4+ERQLLzs5W5FlVVaVIkTooT4uQBEK9lKMeWoEcspNoSXwjRoxQFiyH1zdu3FBEN2bMGEVyzEsLkXpZ1tSpU3Hy5ElVFq1nEh7v4dNPP8XRo0fVEJ2WYHl5OT788EO89dZbitiog9YxyY312LNnjyLrmzdv4vPPP1dx9Dnc1sN/EistUhJ4ZWWlimc6LXbqoMXK+tGS3rBhA4YMGaLuj/L8keG9ECf5EwQEgd5HoF8sTyN5kgA4NOX8HS1HWlskOFqOHJrSqtKWJ61TkhL/KMuhPclJkyeJgoTIOJInLcy6ujolyxOf3377bSVL0qMsj5DiUJyyPBmap0ORpDhEJqGuX79eERB1kKBo+ZEsFy5c2Emeb775prJ8Sd60qPU8JevHYTfjaD3zPnifJDaWR7KjZc35TJImrWeWy3wcjtOqJvmyHqw7pyT0dMG3336rSJUYHThwALdv31b6hg4dqizdgwcPKh16frb3m41oFAQEgX4lT5Ie5xRp+rIiJA5akyQSkhKJgcTDIbkmF1qj/CORXLp0SVmZethO0mGctiY5FCeBcN6UhMKhN2VJsIwniZMgad1x6oB5aalOmzZNxZHEOXTnkJ+WqL6OjY3tJE8Oj0liHKqzfN4H60Zi5Fwu5x55j7RMOS1BPSyPp+5ThgTLoTjjSZ4kdeqhdaunGkj2rK92xIDYMX3lypWKPDdu3KhImT8wTGc95E8QEAT6DoF+JU8SGUmLR9pp8uR5oIwnKXEVmkNgbXmShGgZalltZZJISLAkHVqPtORIdCRGyjL+yJEjneTJITvjaFGuWbNGkRkXdWjJkjw5V0id/MYKzyjlWX20Yhmmn5OToyxB1o/kyjlVWpUkTRIcdZPwSIj8EeCUwbJly5CamqrmP2l5GsmThMfyOCfKvNRD8mQccaClqYmTli2tb2LEsll/TglwkYl69Y8A5eVPEBAE+g6BfiVPkgOHsdyCowmR5EhiIOmQnGidkaxIhrQIOW9IguFwlwRFOerhsJlWG8mTlhzjaHlq8uT3lDhFwHiuyJOEjORJ0qEFTKuNJMbyNDGxPFrFnEPk8Jtl85pf1+MwngtUJDTqJGnRmiTRUwctTs5rMo7ztbQuSXIkU+qiHsaRaFkur3kftFppqbK+/EYKrWddD94LdZA8c3NzO8mTQ3ziqXcq9F2zEc2CgCDQr+RJcqHFR8uTfyQNbuMhYZAUSU4kE1phvCapcnGJ8tyyFB8fr+KoRy8YkQC15clVa62Xx+Xr1XwOz0lyHLaTYPWiDEmci1bcTkQyIxFxVZxzivwyKHcIcPGKZbCuRvKsqKhQOgkoyfXf//63IjhasT/99JNa2OE8J1ffWR7PPuW+VsoSA94z5zhZDudiSfDcbkWSnDNnDqifnznl9qeYmBgVz8UrWuq0PDlsp17qIjZieapHL/8EgT5DoF/Ik0NxkhbJkNYWyYwVIVHSsiRxcWWbw1VacyQ17n8kSdJ65N5O7vvkMJiWH/XQOqVlRlmupjPOOGznSjjJiSvjtC45NOZiDmWol1uESESsAxeqSMC07EhgHGJz5ZvEx3JZX+bnPCrjSMpG8uTiDrc3kRCZzrzc70nS4/3y/ridaPfu3Wp1fenSpapevBfKciWeGHGqgfO3HLpzsYp7OEnsvOZUAetOfHgf3KrEe+Z90PomnvInCAgCfYfAcydP3gqtLS4GccsN5xC53YYVIRFwwYjxtLZohdKC4tCdq/CcO+SQnMTDVXIOT7l4Q2Il6TI/rTnqpA6SG/OTVEluSUlJivxo3TGe9dAfcCKB8Q0gxnORinOfJDIOqTldwPlPWouc26QMHVfEWU+SIkmbcfo+OK/KTfPMzzlNLhzRgmY9aTHTql20aJEa0tPKJClyqM9745CedabFSwKlHqbRmqXPe+YeU1rOLI/3wc+i8mWBr7/+WuHJusifICAI9B0C/UKetNo4f8jhL4mTnZ8VoaMVxXgOzTknqQmJBEqSIaGSCLl1iBYeh7G0tPSX6zi3yGEydbAM6qQOzi8yP2U5f8h4EhRlaEmyHszLP53Gt3M4l8lN87RWOaTX9aEcdVIf68D6MR8dSZxy3DdKsuXbSqwT60vHsvgjQZ+WLmV///13dV8sh4eqUgcd5fmDwHvm3k3qYz7Wnfn4RzniofFkXXSaEpB/goAg0OsIsK+zz/EbRjTYyBfsd4znH/lEu3/ogLEWJEISHYeltMxIUC/CnyYyfSPGOuk0Haevta/j6buKM6b3ZViXbfZ1mYw3/hnljPESFgQEgd5HgP1tUJJn70MlGgUBQUAQcCIg5OnEQkKCgCAgCLiNgJCn21CJoCAgCAgCTgSEPJ1YSEgQEAQEAbcREPJ0GyoRFAQEAUHAiYCQpxMLCQkCgoAg4DYCQp5uQyWCgoAgIAg4ERDydGIhIUFAEBAE3EZAyNNtqERQEBAEBAEnAkKeTiwkJAgIAoKA2wgIeboNlQgKAoKAIOBEQMjTiYWEBAFBQBBwGwEhT7ehEkFBQBAQBJwICHk6sZCQICAICAJuIyDk6TZUIigICAKCgBMBIU8nFhISBAQBQcBtBIQ83YZKBAUBQUAQcCIg5OnEQkKCgCAgCLiNgJCn21CJoCAgCAgCTgSEPJ1YSEgQEAQEAbcREPJ0GyoRFAQEAUHAiYCQpxMLCQkCgoAg4DYCQp5uQyWCgoAgIAg4ERDydGIhIUFAEBAE3EZAyNNtqERQEBAEBAEnAkKeTiwkJAgIAoKA2wgIeboNlQgKAoKAIOBEQMjTiYWEBAFBQBBwGwEhT7ehEkFBQBAQBJwICHk6sZCQICAICAJuIyDk6TZUIigICAKCgBMBIU8nFhISBAQBQcBtBIQ83YZKBAUBQUAQcCIg5OnEQkKCgCAgCLiNgJCn21CJoCDQ9wiwQ9LJ34uPgJDni/+MpIaDGAFNlo8ePcLDhw873SMh0Bf+qQt5vvCPSCo4mBH4m6T54CFaW1vR2NiItrY2dHR04MGjh2KBvuAPXsjzBX9AUr3BiQAH5q0trfjvjz/iwJ59WLdyNb5evASrVq/GkePHcOOvP9Hx8MHgvPlBcldCnoPkQcptDBwE2OloZebn5yMlNRV+gQH4wscLn/l64XN/b/hHhCJz0UL8+NNP4HBe/l5MBIQ8X8znIrUahAjoZaDm5mbs278PoeHh8A4JRmRGCjJ3bcJXh3KRuf0bhCbMg09gIGJj4/DTTz+jvb0Dfz+CDONfsDYh5PmCPRCpzuBEgB2Ni0Dt7e3Yt28f/AMCEBAcjIQlC7C15CQ2VhdjU60V2ResyDlzHPEpKfD28UNkZBRspWV40PFQrNAXrGkIeb5gD0SqM/gQYCdrf9CB+40N2LJjO2b6+sA/IhwLN6zFlnOF2FVTjuxL5cjR7oIN3xQdR2xCMvx8AhEWEo78k/lobmzBowePFIlSp/z1LwJCnv2Lv5Q+yBHgnCVXz//44w+sWbsWIX4B8AsLwaLszdhTU46cyxXIqa1ATrXd5VZXYHf1WeRdLMfO0gJELchEYGAIIv1DcejQEdyvb8CDBw/UEF4ItH8bj5Bn/+IvpQ9iBNi5OEz/8acfsXDRQgQEBiB0ThRW7NqGvefLkFNTgZzLZ5FbW4m86qpOt7u6CrsvVSK7+iy2lRUiedVy+EVGIiJiNvbt3Y87d+4oQiYxC4H2XwMS8uw/7KXkQYyAJs7LV37Awq+XwCvAH2Fzo7Bwz3bsvWDD3osV2FN9FrtJnLVVyKtx4RShVmLHOStSdmxAeORsREbOxs6dO/Hbb7+pPaHcWC8E2j8NScizf3CXUgcxAuxU3PR+8eJFZH61CDMjghExPxWrDu1Gdo0NOZfL7dZmbSX21JxDXq3T5daeg3Y5l88h53IVdtVWYMd5K5Zv2YiwuXMRGhqK9WvX4scff0RLS4ssJPVTWxLy7CfgpdjBhwA7E4fS9fX3YbOVIT09A37BwYhbmIlvTh/GtmobdnGOUw3Vq5TFubvmHHabyNNOmiRO7SpVnm1nC7EkewvmxMchOCgEq9esxU8//qS2Mj16JO/EP+8WJeT5vBGX8gYtAiTOurp7OHbsBOITkuAfEIS4xfOx+cxRtQC06/JZ5FyuRC6dgzAVeZJAHRYo452kqcMkz0pk11Yg+1wJlh3IRWRqEkJCw7B8+Up8//0VNYRnZ5a/54eAkOfzw1pKGqQI2C3Ov5XF+d2R7xATHQuvkBDEfrUQa08fxq6LNuTWnLW7WhJnJXJrqnp0ObVV6OoqkaPz1Z7FzgulWHPsW8RkpMMvNBSLlnyFivKzaG5qwaOHsoj0vJqZkOfzQlrKGbQI0OJsuN+A/fsPIGpONAIjIpC2diW+KTimiG5Xdbl9Zb3mLHJqqjxyuTUO0q2ljgpkXyzD2lOHEb0gE74BQZg3Lx7FxVY11yoW6PNpakKezwdnKWUQIsD9llztvnOnDps3bUVoaCSCIqOwYNsm7LTmI/c8N76fxa5qEl6lw3lKnlXIrXW67NpK7KiuwMb8Y5izMAs+QUGYHTUXx48fV/tAWS/561sEhDz7Fl/RPogRoMV57949fP31MvgFBCE4JALLNm/GzvNW7OWcZnUlcqq5X7MSu2q4au4ZcdJa5TDfuCrPOVLOj26vqcCy8hNI/mqx43XOSBw+fFjtLxULtG8bn5Bn3+Ir2gchAuw0tDqvX/8DaWnp8PMLwKyIMKRlb8b2S2XY+X0Vsr8/h+zaKux0OIZJnto97fDdTJ4kUlqiu6orsPNSGbZWFiDpmxXwCg5AZFAIdu/ZjYYG+9tIg/ARvBC3JOT5QjwGqcRAQICdhY6vW968eRPp6Znw8vGDV0Qolu/PQc7Fcuzggg6JU7vLVdh5uUoRqSZOTyzQnsgzp4bTAhXIq61AXlUx5m9YhRkBvvDz98fKlStx9+5dNbXAestf7yIg5Nm7eIq2QYwAh+nclH7lyhUkJiYiMDAYMbFx2Fh4AjvP8USkcuysPovsmkr7EL1zn6becnTOo8UiV8N2u+VJ65NzqWeRW12G3Rds2FNVgtTNaxAcEgY//0AsXbocv/32uyL8Qfxo+uXWhDz7BXYpdKAhwI7S1NgIm9WK2NhYePn6IjoxEftPHMfWC6XYRQtQLQ7Z5zntizvOt4U63xryeLW965ynnv+0b3sieXJxyoZdF0uRfbEU63fuQGhUlNprumzpcvz8889oe9CBdvwNOV65d1qfkGfv4ChaBjkCjQ0NOH3qFOZFx8DXzx/RllS10r2DJyJdPKsWhnIuVSH3kn1RSJOnk+TsRPq0c51a3tWwvavus9hVexbZtWXK7bhoxdqj+xAxLxaBtEC//hqXvq9FXUcLOvAIf0OG8c/aZIU8nxVByT9oEWDn4FC9/t49nDx5EjGJ8fCODEHMokxsPnEIuy+UYRdPRqquRO4lunPIrXaSpyY37au3h3rZ8qRupbe2EnyDia9/Zl+2z4HuPl+KTUe/RVRqEnxDg5E6PxOlVWfR0NKMRzyaXv6eCQEhz2eCTzIPZgTYOfitocL8AsTOmwf/2NlI2rQCG0uPq+Fxjtr8flZtSeK2pLzqfiTPy3by5GucdHk1PBe0Arn/sWL1kb2Yk5kGr+BApKal4tKlS2jv6BjMj+653JuQ53OBWQoZiAjQ6vzpp5+wIDMLoWFhyPxmJTaXHsf2mlJsrbZiR7UNO2vs1qc6Cb6ac49cwLFvZtcWp/b7zvKktVuBXTyJvroCfKNp50WbcjsuWbHjfDHWHd2HmPRU+Pv6YfvWbWoVfiA+kxepzkKeL9LTkLq8MAiwY/BDbUePHkVwYBDCIsIxf+1yLNu/E0sP5+HrAzlYejAXXx3Mxcpj+/FN4THkXShD3iXHSfCmTe2dw+teHrarg0V4ePKFcuSdK8XGguNYcXgvlh3Iw7Jv87DsQA6+PrALi3O3ImFBJvz9/DE3ag5qamrUXtUXBvABWBEhzwH40KTKfY8AO8b9+/dx+NBhxEbHICgoCKFRkQiLi0Z4/DyExUQjLDYawfNiEJoUh6jMNGSsX40tp44i91I5+C66OuDYcXpS76+2c/WdBylzrrUCGw5/i6SlSxCenICwhDhExsdhdlwcouLt4dDYaASEhcLfzw9JCYm4dPGSkOczNiMhz2cEULIPXgT4FhE3mVdfqkZubi4WLVoES3o60tIzkJxqQVJqGhLT0tQJ7/zSZQD3fWamY1XBUeTwO0QO61MTZ+8O2+3kyeH61ye+RXRKsnrTyc/HHylp6UhOsyAlPR2plnRYLBmwpFiwdMnXOHrkCH688qOay2Xnlz/PERDy9Bw7yfkSIMAOwjeKaIXeunULf/75J27S3byJGw732++/o6ysDLGx8fALDEbaiuXIOVuCPG5edyzg6IUcvfXoaf2uW5UcVmdNBbadOoq56WnwDgzEmnXrcam6Bjf/uo2bf93CDeXs9f3z5k3cvnUbTU1NyuIU4nz2xivk+ewYioaXHAF2ovb2DlRVnsfs2XMRk2bB+lNHkMfV7r4kz+pyLN+1TX3GOCU9A9du3ETHw647OMW27LvGKeTZd9iK5pcIAY6Ar1+7gYWLliCQH3rbvR27uXjEecnO0+PtK/FPa3Wq1XvDApTagF9TgdxqG1JWfoWZ/r7I2Z2Huvr6btvfhTz7rhEKefYdtqL5JUKAHen69RtYtWYt/OfMxvzcrfaVd8eijl7c8YQ4zeTJr23m1lZgS1U+YhZnYFaAH8oqK9D+oEPeG3qObU7I8zmCLUUNXgRoef558xbWrt+AwMhILMregtxqu+VJ61O73iBPdRRdbQU2Vp5W5OkV4IezlZXqO0aDF+EX786EPF+8ZyI1GoAIdCHP2ZFYtHOL2rBOi1MTJ30u/NA9LYkaF4w6ybPqDGKWZMLH3w9nz55Vn+AYgNAN2CoLeQ7YRycVf5EQ6CTPbxyW584t6r13TZ5qPyaH8NVVynlCns4tT/ZvuW+qOoN5izPh5+uHsxUV8v2i59wghDyfM+BS3OBEoJM81bA9Aot2bkZ2dTlya88ir/as8hn21PJU856Gbxjtqq3A5qoziFPk6dtJnoMT3RfzroQ8X8znIrUaYAh0Ic+ICCzcsRk7q8vVMXE8rNjpnn7I3t1K5aeI7QtG8Ysy4efji8qKszLn+ZzbjJDncwZcihucCBjJMyjcTp47+pg8t1blI2FRJvy9hTz7o1UJefYH6lLmoENAk+e69RsQ7CDP7TV9a3mSPGl5Cnn2T3MS8uwf3KXUQYbA48gzl69pOlz3Ibgnw3h+I6kCm8/lqzlPXx9ftdre1tY2yFB9sW9HyPPFfj5SuwGCQE/kmcMFoxqn6y3yzK6twKZz+YjlViVfIc/+aCZCnv2BupQ56BB4Enlqy9PTrUpdSbdSfWpj43k7eXoLefZLexLy7BfYpdDBhoA75MkVdyHPwfPkhTwHz7OUO+lHBHoiT37R0rlNiWFP5jjNecTy7MdH3Vm0kGcnFBIQBDxH4LmTJ+c8HcN2mfP0/Lk9S04hz2dBT/IKAg4EOslz3fPZqqRX2/l6pqy2908zHBTkyZvQrn9glFJfdgRInjdv/oU1a9d32+epF4vo99awXZMnX8/09fFBhenddn75UzvdN14G/3m2Q+JZXV0Ni8WCrKwsXL16VWHOeP7xA4La/UMHjBXkd15qa2uRkZGBzMxMXLlyxZjcp2FWkg3k4cOH6tU0fmKgpaXFpdN1F9/5QAWLXsSiqRm//PIrlq9YhaCwcPV6JjfJ99VWpS6vZ3r7oLioCHV1derbRPzWfENDQxfHuMHs2tvbuxBXnxKPQ/mAJU8SJonz119/Vd+POXLkMPbt24v9+/d1c/v27cO+vXtdur1796h47VNOhffRd52nJ132vI/P49RtKHefM4+uh/Y7yzLIdMY9qX7M00O+bvqNunrIYy5X61C+IU+XeI2nUb8xbMhn1t/jtXo2Bvwc+rqU+5R6zfdgLruLbvM9sT579mDb1u2Ii09EYGhYN/J0Wp+eHUnX1WK1v9tuf8MoA35e3li+bBnycnNVPVjXPXucTtdd35O+1r6KN2NquNb5uvlPiTHzqz5l0q3rof1u5fD59lCWzsP+X1l5Fr/+elV9o4ncoC3AviLSAUeerDAdP8pVXX0Jy5cvR0xMNPx8fZTz9/OFcv4O38+3M03LuOd7w8+Xzq7Xfd+dPGYZ87WrMt2RMedjHk/zmXU96dqTcqjTk3zu5HFHxnxPnuRx3oOPjy+8vH0QGBrqkjx7c6sSv5q5rTIfCQsz4DfTC96zZsLH2wu+PnTe3dyT26/53s3XZqyc9/1k3ca81OuObmMe98qKjYnGyhUr1DfpaYnSwOpLAh1w5KmH6abAMzwAACAASURBVD+cr8KihWkICgpBRoI/cpeE4uDqaBxaE42Da+fgwLooHFg32+7WzsaBNZE4uCZS+d+ujcS36yJxgP5au8905dZGYr8jnTKdziir8zjilD5DHPVq3Uwz69Pp9Fmng1qe5elydH3oO+pDPUbXWXdT2Sqe97fOqdtYpirDcW+dddM6TDipdBd1oo4udXHoY5nGsnRY11X7Op6+qo9Zn64PfUOdlLwDJ6XDgR8xVHoc9dDPrUv9DTp1mdo31keHu+kz5KfMIcfz278+FPvWRSJ7aRgSogMQHBaBxdlbod9t11YnyfNZjqRzWp88VNlAnrNmYXWqL/asCMeB1Y62vjoCh9aE49DqcBxebfcPrQ5Dd8f0MBxeY/eZzmt7PqOv47WOx+s0l6PLUHpVvez67GU5dSu5Hupp1qmvv10xB9lfRyNrXgBC/b/AkiWL1VwkCVTI02B389eEczfr1qyDv//nWJ4xB/85kILbJ1NQX5CB+sIM3CuyoK44DXeLU1FXnIp7RSm4V5iCewUpqCtMwd2iFNwusvsMM45plLlbmII7RSm4U5yC23RG2UKHrMOnLPNrp/Q40nQ51KV0OHTxWpdJmXqWba6ToRzWq0udHPpYP1WuIz91qDIfUyddjqqT4f6MdaJMvcbCgYO5HGOd9L2xPsY6sS50nfVygZMxrRMnfX8GnHSd1P25qpOjvnVMM+CtnqGpXF2nnp6dsU68b/381f0Z6kQ9xKm+IBm3S+bhVkkyfj4Sh2WWQIRGRGLJru2d5NkX+zyN5Ok/ywtnNkbi+uk03CnKwt3iTNQVW3CvOA31dEWpuFf4Iju2E8/qd78wFY2F6bh5IhMX9mVgVbIXQoIDsXHjRtTX1wt5GrjTPlyvqUZ0cgpCAz7FpSOpaChNQ3tJKjrorKlot6airTQNbaWpaON1SSrai1PQUZyi/NaSFLRYU0C/rcQex3Q6XjPN7ChLp+W0rI53pUunudKly33aOjUb6qb1e1ons64XoU5GrIyYPi1OZj3U5TZOjmfNPEY9DJvrxHq1lMahqTQFN76Lw5r0IIQoy3Nbn5InCXlbZSESFmYiYJY3rNuicbdkPhpti9BUthAtZfPRUpaJVlsmWmyZaC7NcNu1lGZAO0/zMf/zyNtSmo6OUgvarOloKJ6PC7sTEBTgi4z0DFz95Sr+fvTISB+9Gh5ww3aeHHP6zGnMmReCZQmzcLMoFvUV8xVRtpMsS9PQWmoBQeUDbLVmorUkA23FGWgvzkBbiQUtVguarBa0lGSgpSRdxTG+rdiC1hILmlV6OpqsGUpOyVLeanHIMk8GWkvSVRzj6ZhX6WF51O2IZ37tmq3pqlzmpWx7sT0PZVnuC18n1rcXceKzeWac3KlT57N58rN7mjrx+TWVJqGhNB3XjiZhTXoogsPCsXinc9jeF5YnV/G3VhUiflEW/L18YN0ejXvW+Yo4mxVxzkdrWSbabHYCbbZlwOnS0WyzGJwzTfUZ9huHa7H1LOvUZ8/PPse+p505vWuZ1NtzuY+TNeZroo6yLDSVZ6HJlolfT1qQlBCLmNhY2Gw2POQXRR1bh3qVOQGld0BtVeI8xokTJxA5Nxwrk4NwqyARLaVZaLWl2p16eHbibC7lL24mWkozOxuD88HaG0+LzfmwdRrjuj687jJa9kl+S2l3XdTNeHNeXabUyYnZQMCpuSwFjaVZ+P1IMlanhzksTzt59s1WJX7DqBKbq4owb9EC+Hr5oXT7XNRbaWXS4pyvSJPEqcmTZKiswU4yTHPRxp2k2Woiwu59wkx8mjhpvNgNGN2+7WSnn2nXcknOmqjtvrNfdO87XQmXehV5llvQUp6K5rJU/HE6CctTIhAdPReFxcV40GHfwtTbxEl9A87ydJJnBFYmByvybCU5msiz6wNxPFgt85L4LbY0tLwk99r5/PvhfltsSWgqzcS1w0lYYwntMmzvK/LMrq3ExnNFiF28AN7eJM8o1HNUU5apnCZO7XclzzSQ8Ek2zTY6O7G57jNpqm+xHRlljdaf3VplH6NsisOldhoHneTJ8jrLtZOo3Vo1kraDPB3P0V6mJtzu5KkMkfI0tJTzflJw43QSViryjEZhcSE6Otrw8NHDvuDOwUKeWZ0Pyv5rxwfpIEyjhac7ljFOPXCH1arSu/5q6l/PTl/rcMd/bDnGMs1hUx1s9gbcSRBd9Fo6fzhaSlNB12RNAeczG12RZ5e8Jr3u3JPIdOKtn4c75Gl/u6i3TlWqgpk8bduj0FCSruY4SZjtpU7X5hh5OS1PkpEmw+7k2WbNUHOIbaqtuE+enesMavrMBXl2KdNBng7L015mBlimKtfRztwizzKSJ38Q0nDjdDJWpoYjOprkWYwHjs3zfcGeg8TydIc82QgcZNGFQCzKOuMvq93RWrMPqzls6OIY3ymn5V351NGVAO2/sIxLQrONiwwkumQ7yduSDB3SUU9jHXW9lc9059BGhR3p1Hn7dCIu752LS3lRuHEqEU2lmphd6XUSryYC8TVe7vsttuQeLU+eqmTcqtQ7R9IZyXM+vL19YSdPPk/7UL0redotO5Inh8l6ROJsy2zXbFN2OUVkpel2EnMYF2bZFht1OZzKZ7c81SKtiTztZZr7ju5nzEfSJGF3J88ufVLV3VCuKt+CFpJnmYM8TyVjZQrJMwZFJcV4KMN25++G62G7kTxdWZwkDucvYacVSXJ0Mb9pH8a4HiLY0/Svth5O6Pkch19qz8ty7OTL+aZMtHLhqHgerp6ei6uH4tCQn4RWaxbayxLQbktDW1ka2mzpBpeBNhtdOtrKLIZ4LcOOYg/zh4HkWbghAp9PeRtjR4zAoWU+uF+U5EIv8zj02qjXXnYXUjaSt4RNIxvDj5dqQyloKp2Pa4dTsMai5zz7drU9u/YsNp4rROziLHj7+KB022zcL2YbMBCgsiCdVqTdktTD4q4/7sY+8Wxh6n2M7h764bOVaTcC2P5vnEzCiuQwRZ7FJcV4JAtG7pAnSVO7ro3baHE6LUm7LC1CPefj9NPVNoum0gw0WvWqOyfISY7GIY+TPJscC0NNpWloJEnyV54r6Gr1nuFMtbJ/43gCtmZ9hlWxHysCbSvKRLMtyTE3SZK3kz9X3pUloEmujA2EcVwM0wtOnOt1kmdzaSrOrA/Hx5MnYtSQYdi/1Af1hU7ytOvWGJHQuUvAPtS3W5wm3IQ0H0uausO32J4/efJgkE3nChC7OBM+Pt5PT56PI7hneu5PIM++KtdhPDjJMxbFVpLnA1lt1/TZs+WpJ53t5KMbtt23L5y0lKahxZqGppJ0NBZbcPd0Iuryk9BYmgaSnpE8uQDQUJKBuoI03Dwej2tHonH7dAIarKlqKKzmYpjPSrJMQ4N2Jam4m5+E699FK/2NRSTQDDRzS0tROqwbIzFz6pv4bOrbOL97HloLLLhvS0VjSTKaSjhXaUFTSRrunErArRPxaOK2IBImSduahrr8RNw4Go0/jkSj7kwKmtU8l31I1GTV5DkBo4YMxb6l3oo87VapfbvUrRNxuH54Dm5+Nw91ZxLRWJyi5kj5q90VMyFSd/EgeTY6LM/Vz8ny1KcqzVucAV9vL9i2RT7R8nT3fgaqHI2BGyeTsSIlFNHRJM8SIU9NnPSfTJ4kUW1d2QmgXVmCWWguScSf+XE4tdkfG1NnYFn0VKyI+RK5y7zw47dRaC5hJ0hGky0df+Un4/gGH3yT+iUWR01FZshkLIv9GDlLfXFxXyzuF3NPZhquHo3DvqV+WJP8Baq2h6MsOxyrkj/EwsgP8XXsxziyLBA3jqfixql5OLI2EHHeU/Dm6yMwcdLryIz8BPuWBOJWYTKObgzB2uSZ2LVgBmoOxGJDsje2ZXyJHw/FKAv22vFEHF3lh7Wxn2Jx+PtYGDERa+Z9gYPL/fHfIzFoLk1EvTUVp9aFYtrksRg19DXsW+aNuoI4tFrn4dqJLOQtD8biOR9hQcgkLIqcgtXJn6FgazCuF3C1+DFDrWeyRAY/CTeVpaDBNh+/HUnBqs6tSs5hu57ztC8amU+F9+Ta/vXMLVX5iFuUAT8Teeqhu57DtPeHwf8cupOnWJ5G7nSTPDWB2hsM3zziyvPN07HYmjwdn386Fu+OH4UvPh6PD9+ZgHffGgpL+IeoyZuH+yVp+KsgFTnpM/D5lGGY+MZovD95BD795E1MeGMs3pkwHkmBH6A6by4ai1JRmROJwC/exagRw7AobCrmzJyEqe+Ow6QxozBsxD/x5Xuv4/BSb/xwZA4WxE/De2NHY/iQ/4c33vh/+PTtEYj2m4JrJ2MQH/0+Rg4fgamTXseyxC8w6Y034Pv5WyjInoufv8vAyvjp+HjySEwaMRIfTR6BTz54DRNHv4EPJr2JJXPex+9H5+KuNREn1gfgo3fHYNTQV7B/+SzcOZOk5j1XRH2Jd9+ZiAlvjoLPx2/C599v4+23RmPGZ+Oxd3kI6go4We/Kah/8ne5ZLa3G8hTUl83H1aMpWJkRhpBwvttuJ8++2apkP1WJ5BlP8vRyWp7qrR4upDj2ddr9l+O5Cnl2ocruF+5ZnsYhPN8o4ZzUPBxY4YXpYydhwqhXsDH5E1i3hmL3cm988eFYTBo/HBuTvsSN48ko2BgE38kT8fqrryLui4k4tsEXBTtDsSU1FOOHjcHE14dideJU/HU6CZU5UfD//B0MG/Ia/N96FzuSvHF6VQD2Zfrj9RH/B2NGDEW8/0T871QSzu5NQGLIpxg+9BVMee91ZC8JRElODO4UxCFt9mQMf+0VvDF8NII+mYQ1CdNx6ptQ/Hg0EbnLwjHlnTfxxqihyIr2wrEt/ijZHIilUR/j9VeH4KOJY7B7wZeotybj5IYgfDT5dYwc9gr2Lp+F2yfTUPttEqaOfR2jRo5GRtS/UbplLso2hWHZvGmYMW0sNiR64/fDycrCfVYieRnzkzzv2+bj18eQp9P67N0j6Xiqkr8L8uyyD9Mxjz7Yn42QZ3e+7BLzdORpJ1EOrxsL0zB75rsYN3ws3powFNdOx6C1IBW/nk7C/pXBWJPpjdPrg/D7d3FYOW86Jo1+FRPe+CdKNgThbkGacv89kIyAzyZi6KhXEOb1Ji7vi0UVyfOzdzB0yGsIn/kefjqYhI7Tybh7aAGCvnwLr4wYg5nTJ6D2YBzqirKwOmkGhg8bik8/moiqPbNxxxaPxpI4LAidhZGvvoqxY8YgNWoGfjkVj7uF83D1VAIscz7GqOHDMXPKOJzPDcdtvs9baEH1/khMmjgSI0nQPhNx+2QGTq+PxbT3x2Hk8Fexd7kXbp2KQ1FeNMa/MQojRv4LEYGTcWF/Em6eTMEvRxJxMTcc/zs0G3UFSWjuXIgSa/NpiKaxzEGeetjuwvK0D9l7a59nJYxH0gUIear5eiHPLlTZ/aJn8uy5w3MB5rcD0fjiw/EYMXw0vGZMQX0F5zfT1MJR3alk3P8uDffz43D91FwkBL2HUcP+hY+mTMJ/D8YrGZ7ecv14IixzpmDIqFfhM/1DlG9LxNlds+2W59AhmB/7Ca6fjEfH6SzcO5OKrxJn4V8kz0/fwqW9sWgoysDa5C8wfNgwfPbRRFzcPQcNJYloLo7DwsjpGPbaMLw7dhROrAlFsy0R98tSUHMwCrP93sbQoSMw1/cjXD0SjeaSBWiwZeG3Ewnw/mIyhg37J0Knv45f9sfixLoIfPzBeIwa/hr2rvDC7fxo/HQ6A59PewOvjXwNo0e/iWmTxyH083FYFvshijYG4sapODSUJKitTk9DGiJrb3N8s6WhdD5+P5JieD2z65ynfr+9L46kE/K0Pwchz+582SXGE/JsKEnDz/uiMP2DsRg2fDTCgr9AXVkiGsvS0V6chYdnvsLf+fPxoDgDN08lICbgHYwa9gqmTZ2Mnw8lqBXthqI0/HE8EVnR/8Zrw19Rq+UF6+egfEcEfKe/haFDXsXi+E/xx8k4PDi9QB01t9LihVdHjMQskudukme6kzynTsClvDloLElCc3EsFkb9G8OGjsTHb41F1c5otNricb8sFRf3RyDCZxKGDBuB2IB/47ejsWgpXoB7tixcO5mEwFkfYOTQfyL40zH47745OLE2tAt53iqKx+3S+bj0rQXLZ7+HD997G68NfQ3/Gjkcw14fgXfGv4IVCdNw/bu5aCnhpv2ef4QkzTU2JE+utv9+2DV5auK0+54sEJnzdD3PU8hTyLMLSfZ04Ql5citRXWEGfKa/g2HDR+HLzybjXnky7tssaCy04NqRBPx8PAl/FSfhz6IEJEd8iNHDX8Wb40bhx4NxaCxKQ0ORBdePJSEpeDqGDB+CLz4eh4JvQlG+Ixx+099Wc55Z0VPVGaId+QsVeX6V8Bn+NWw4Zn4yCRfzonG/MA1rkj7D0KFDMX3KeFzMjUJDUSJaCmOwaM6neO214Z3k2WJNUFuYrhyNRnTQZEWe4TPfxy+Ho9FUmIW71gxcP5WCmZ9MxMih/w+RM8bj2tEEnFwfgWlTJqih/N6VvvizKBH3rJmoL1qA2ydScf1YKiqy52KL5Qv4Tn1DWbQfvzcGpRsD0VIi25U8+YHoj32eMmzv/kMmlmdPrOmI94g8S9NxvzgDmXH+GDFiFMaNfRX/yfPD7aJUXD0YjwWRH+PNEcORGDwZF7+NxKp0b0wcNxJDh/0TZ9Z44x7nPM+k4vs9sfjy3fEYMWoEwv0mo3r/PFSqYfvbGDbsNVgip+D6qQS0FyxAfXECvoqfbifPjycqK/N+UTLWJE3HsCFD8MkHY3EuOxJ38hPQXBCDxXOn49VXhynyPJcdg2YrLeM03CrNwOLkGRgxchSmjP0XSjd44+5JC/4sTEf51gCMH/l/MH7MEFgip+JuQRZOr52Nqe+/ieHDhqjFsNtFCbi0JxL7l3hh/yJf/JEfY99TejoJRV/7YNrrQzFl/HCcWBWMBrWntHuj9IRQXqY87pCnXjByngZvtiaf5tq02m7YqqRX22XBSDbJd6NST8izqZRvCaWhYk8Qpr43EkNHjsKMKe9iZ1YAlkR8grFvDsV7k8YhO9UX984k4D95YQifMQEjRr6CaRNHY1Pyl9j7VShCvvwYw0aOwKdvT0De11/ir5IYVO2ajYAvx2H4iP8Pi0Pfw7VjCWixxuJeSSyWzv03RowYC5+P3sb3OXPQWJiEHfO/xPgxwzH8jaFIiZqGbVk+uHM4HYtjPsUrQ4Zj2uTxOLeLezuT1dtMjdYMFGwOwYxpr2PM8GGY+cFY7Ezzws6FEfho0nCMHfUq/KeNROEOX9wvsaBgbRQ+mfwWRg97DfuXeeNefizyVwVh+qQxGDNyOFbHTsWxDQHY/fVMzPV5G+PG/hNzfSehkvOv6q0mIc+nJf7HkWdfbVUyb5IvdWySF/I0bpKXfZ5dCNQT8lRv55Sm4Q+bBbuWhuHzqePx/vjheGf8/8U740mk47Ay+RP8+l0KmgssqCtMRf62UETNmoQP3xmDd0aPxXuvj8fkN0cgYNpYbM+ajhtFmaizJuPc/gjEBE/Bh2+Nx/p50/DHyXg0WxNQX5KENakzMfXdNxHj/T6u7ItGc3ESKvfMxbygt/HhhNGYPG4EfD+dhFtHk7E60xcfvjsOoTPewcX9CeCrlupwEVs67pcm47tVAYj4fDKmvvMa3hw7HBPeGIoPJwxDyPSJOLAiEH9Z+SppJkq2zEXAjMn46J1ROLwuFPdOpuLmqRT1SqjX+6Px0YQxeH8src0RmP72OETPegsnNgXgT76GKvs8PZrzdZc87dZn72xVyr5cgY3n8xG7JAPePl4wk2fnoR1qz6fs8+xCIr10MUhPVepqPbWV0opLx+3yNNQVLMF/9iRiz4KZ2Jz2IXYs9IV1exRunUlES3Eq2ossaCtMRX2xBb8ci8eZ9cHYlOWHtWleOPj1LHy/aw7qixLQRFluqD8dh+Ktc3FsZSTO7YpCXUky2JkarfNxfk80jiwPQfnmcNSdjkWbNQV15Wk4d2g2Dq8Owd6vvHFiczSaC1Jxbn88Tq4Nh3VjqNo/2sw3fvguuy0djbYU3C9JwQ/752HfqghsyPoCWzKn4eTqmfjxQDTqizPRyFdArRn437F4HN8chqOrgvG/w0loPZOM5sIU3CpKxqX9kdizZCa2WrywPWMWjq8JxP8OJ+NeSRYaSrLQLOTZZ+TZ21uVnkSezreLur4w8rRW9UCSlznPJ/wqeGJ5tpeS0CxoKE9DR0k6moqS0VKYgtbiODRY+WpiEjpK+I0jiyJE+q1FaWi3xeOBNQn1pXbXVhiP9qJ4dJQkqu8iPSxJwUNrKpr5qY9iC+p5CEi5/QCPltIF4Lv0zcXp6ttKD0sT1CdCmsqSUF+eiHoeoWWdp4bmHer1UQs6rBl4wG/tWLnqrcnTgqZyHo+WhtbidNwvm+/4rAi/2ZSCjpJkVZdWHoRbSqJNRT3P8ixKQ2tRKjqKE9DG03aot2Keere/sXABmgoz0VyciraS+WizzkerOhYvxSPyGEgdrC/q+jjL03wkXW9tVeqJPPWbRUKeMufZjUo9IU8Skf2MTvv72/yF4gEhyjk2hjOOHauN3ylyhJWcknXI97CNp1NOnazEY8HsunS8ucPqeO0zXYfp24/00u+aO0+pMcqo7/6Y6kPy7CKj9LI+9jp1pjm+raSvzfWT664jlyfh8STy7IutSo8jTyNx6rM5n3QPgyGd7bnrwSAy59mFQD0jT/c7gyZOTxuT/VBZ98vztBzJ9+Jg7Jo8+/YDcF2OpPN270i6wd5mhDy7UGX3i74mz8HewOT+ep90+WWALpvkw8OxOHsLttfYQJLrC8uT0wGbzxVi3qIs+Hr7wGY6DFlbn/bPW8iCUXcmefaYl2LBSAij9wlDMHViyiPpeDCI/Ui6UISEh2Jx9mYHeZYjt4auQn2Oo3f2eVaBW6C2VBUhbtF8+Hn5dpIntypx3lOTp90X8nx2quyuQcjTNG8opOAkBcHCPSwauhxJF4qQiGAs3rUR22utyKktQ15NOfJqKpBXcxa9R56V2FJZhPiFC+Dn5deFPLlBvstWJTlVqTvz9UKMkKeQp6ywP2Mb6DySjqcqZdDyDMHi7E3YXluKnFoSp9Py7K0PwOXUVGJbZRESFi5AwCw/2Lbav2Ekm+Rlk3yPvwsy5+meNSRW4/PDqcuRdEbyrLF1IU/OffYWeeZq8lwg5KnbuiwY9Uib9gQhz+dHCrpRiv94zDtPVdJH0oWHGeY8+2bBiJvut1UWImFhFgJm+Yjl6djuJ1uVHkOgQp6P78hCdM8fn07y1EfSPYfVdiHP7s9ZLM/HECeThDy7NxohzP7FxL7PMwvXDicbvtvet/s8c2orsK0yH/wMh5znaX/+Qp5CnrKA84wLOM/7x6TFxld8M3DtcCLWpIciJMz5ATjj65n299uf5ui5nmSdR9KZv54pC0ayYNQjhYrl2b9W1vMmpoFQXktZAppKeah2PNakB3chz748km7TuXzwu+0+Lk5VkvM85d32biQq5Cnk+cIRalmCOuDlj+8SsNoS5CBP+7Cd5Lm7+qza48l9nn19MIjT8kxXJ4nxNLEW2efZjUd6I0L2eQ6wIeILRxyCH1rLEtXBMzeOJ2J9VihCwyOwcAffMCpTbxUp8tQEWl2ltis922b5SqiDQc4VIGax6/M8m20WaPeynLcgc55P+EkQy1MszxfuB8RmP/Lwzukk7FnqD7/gWUhZtxjbzhdgVzU3yPPNorPg/OeuyyS+Suz83u4YZtzjXE4t5zgrVX5asnZd5VhXchzh6anwCZiJqrwYNJTQ2sxwWJwkzzTl1KHaL8GPnJCnkKcsGA20jm7jqf8WdUB26bYIBPl/hqjURHxz/BiyL5RjZ20Fsh1OkeT3lci5XInc2krk1VZid00l9vTgdjvS80i8NRXqoJHsmgrsvGDFwpztCJgThXkxfvj+UCIarZo8tdWZimZVN3284eD+4RXyFPIU8hyI5FlqQVNJqvra6pI4XwT5BCEmdQEW79qBzYUnsN2Wj21lBdhclo9N5U63pSwfWx/jtjGfdtYz2Fp8CutOHEbmlg0Ii41DkM8MbF4Sjt9PpaoVf7vlaUGLIk2SuuMg7YGGqQf1FfIU8hTy9KDj9PdQnh232ZqKupIUlO9JxOLYOQj09UZgcBCCQyMQEh6FsMg5CI6MUi4kIgp0YQ4XHh6FnpySCY9CaNhshIRGIigkHIHB4Qjw8seKpGhUH16EemsmmgzznK2KNEmcQp5c2OmLP1kwGoAdtb+JQsp3PfwlgbaXpKI134JL+7OwduEczJkdgIBAL4fzhn+gV88uwAv+rhzzBHjBz38W/ANmISTUDxnxEdi3fB4uH7agzpaERhu/05Vq/+HVfmmq+irCsx7wPVCet1ieT/iJkAUj1x13oDTwwV5Pzn02lqXjfvkC1JUtwZ/5mbh2OAHXDsV3+r8fiofRMY3X2tdhladTNg6/HYzD7wfjcPNYMm4XZeC2zYK6smQ0liWiuSxZuU6LUxkFQp6PHjyAWJ4OUhXyFPJ8kQmY24N4lmYbv3xamqY2z9+3ZqC+JAP3SjLU8JpDbE8c8ytXnI7GkiS0WmPRYksAD2NuLktVTpMnrU3lrBlos6a/FBaoWJ5iecqc5wCeSmm3WvCwJAMPrAvQWroIjWUL0FCWifu2DOUY9sTdN+igrrbiTPxdkIl2bk/il1hJnoZ5zi7kWWonzxf5R6c36ibkKeQp5DmAybMv5xdJDsrxy68GjLiP074lyTHnaUjrDVIaKDqEPIU8hTxf0s7vMUnZ+GntNLTSvcTYCXkKeb7UHeBl7vxy7882ny/kKeQp5PkSW09CoJ4TqJCnkKeQp5CntAEP2oCQp5CndBwPOo5YbJ5bbIMFOyFPIU8hTyFPaQMetAEhTyFP6TgedJzBYj3JfXhuQQt5CnkKeQp5ShvwoA0IeQp5SsfxoOOIxea5QQOVYgAAC8JJREFUxTZYsBPyFPIU8hTylDbgQRsQ8hTylI7jQccZLNaT3IfnFrSQp5CnkKeQp7QBD9qAkKeQp3QcDzqOWGyeW2yDBTshTyFPIU8hT2kDHrQBIU8hT+k4HnScwWI9yX14bkELeQp5CnkKeUob8KANCHkKeUrH8aDjiMXmucU2WLAT8hTyFPIU8pQ24EEbEPIU8pSO40HHGSzWk9yH5xa0kKeQp5CnkKe0AQ/agJCnkKd0HA86jlhsnltsgwU7IU8hTyFPIU9pAx60ASFPIU/pOB50nMFiPcl9eG5BC3kKeQp5CnlKG/CgDQh5CnlKx/Gg44jF5rnFNliwE/IU8hTyFPKUNuBBGxDyFPKUjuNBxxks1pPch+cWtJCnkKeQp5CntAEP2oCQp5CndBwPOo5YbJ5bbIMFOyFPIU8hTyFPaQMetAEhT4/IMxOtpRkOl47WUjr5JRYMpA28TG2gK3nGoMRajEcPHuDvv/9+Aqt4lky91dXVsFgsyMrKwtWrV/Ho0aPO8pqbm6HdP3TAWNSDBw9QW1uLjIwMZGZm4sqVK8bkXg+3t7fjxIkTiJwbjhUpwbhVkIjWUiN5kkT7jjz5gJptdtdi693O2Vd6WU/q7u36ar3U3Zud1KiXePeW7i56e7nO8uzsz6kLxs/h2bE83T6M5BkTHY0SaxEeCnk6OZjkeebMacyeG4QFiQG4bg3Cw2KSZZbDaSJ9MoHqBu/Kd9VpzXLGB6cfIH2znPHaVR5jOsOuZKiX8WZZfe0qjyt5Yz112JWc1ktfy2nflbxOM/qu5J5Wr6vnwDijHnPYVZ5uMi7ui3U3yxmveT/G+3Ml70qGco/DwlUeV/LmsvtLLzEx18VVfV09h6d9dq7kjXjZn08Gmm0ZaLZacP1kCuanxWBuTBSstmI8ekTL85GTQHoxNOAsT1q6NJXj49IQ5j0TPxTGoKE8AS3WLLQq92Ty5ANx9VC6dBTTr6ZRvslEYkzTjckoZ9Snw0ZZnUenNZV17bzGRvIkvdSh9Wm/J71GWep11fB1XqOs1qvrYsbBKKv0PomMDLhRt1GvWTfTzOUb62gMG2WNeinTm3qpW5fb7dk9TX2f57NztF0zDrwPja8ZM32PRr8njKnXrNsoy7BRjzlslDXWoye9baWpaLcmo700Bc0lFvx0KBGRIV5ISonDxZrzePR3h5AnfzDI9CTPO3fvYMmilQjxCcDGRYH4vjAF9fnpaCrOwv0CC+oLUnG/IBn1BUmoL0xS/n2Hr+Ic8fcKk9CT0/k6dThk6wqTUFfUNR9llX6W8RidLKtTrw4b5O+60Gsuv6f6Mt58j1rWXN/OerhRXyVbYNdtvkfqJR66nE69xPdZMKZeV1i4wMxYtg5rjM31vfc4ve7Wl3VwcX891VfXQdetJ1/V2cX9mfUyv7F8t9ubqc5Kby9hbLxH6jXXufPe3MRY6XNRX1d671OuKBm3S7Lw/fEsbFroi+DAmVi1ejnq6u/g4aMO/A2xPJXBrQm0qDAfyXHxCPP6EivmB6BoXSDOZ0fjfPZcnM+eg/PZs3EuOxLnd/XszuVEQrldkTi3KxJVDp9hV/kYT/kq5jPlMcrrtE79pnKMsgxreaVXyzrKUOmO+9By3XyDrFG3ljPWV8e5ktNpZt8oq+qj792EBfN1k9X3Y7hPrd8sq3RTJ5+F4556ktXxrjB2qdehU2OsnnWOi/q6qKcqy4Wsqq8Bi846OeKM9TCnma+Nsk+t9ykw1veicTDWw1gHY7w7GFNeP7dO3U9ol13KIGaPwZg6ldPPxyHLPm7LScC3G6IxP9UPfv7TkJoyD7ayEnQ8aAcUccqCkSJPrmY9fPgQ7e1tKC4sREpyEiIjQhHo74tAP28E+Hp1d37eCPT3VumU6dFpGe0/TlanGWWNYZ3ek69ltd+TnDHeKGsMG2VchbWs9l3J6DgtY/Z1utE3y+hro4w5rGXo67BZxnxtlHU3D3VoWWN+s27ztVFW5zfLGK+1jNk3yuiwWUZf63RXvpbRvisZc5xR1hg2y5mvtaz2zemuro2yxrArWWOcltW+Mc0c1jJm3yEX4OeDAH8fzJ4dgfnzM1BmK0Zbe4ua7wT6hjj1SHhArbbT8tTWJ4fwFy5cwIEDB7Bq1SosXboUy5YtU45h7Ri3fPnyzrSewjqv9nuSM8YbZc3xxmtjWOeh31O8UcYc1nno67BRxhhnlnF1bcyrw1qH9nU8fVdx7qQb8xnDWqc5Tsdr3cZ0Y1ina9+Y1lPYKGuUYbzx2hjWecwyxvjHhbUu+jpslDfGaRkdp6+1vI7X19rX8drX8fRdxbmTbsxnDGud5jgdr3Ub041hna59Y1pPYaOslmE/X716NQ4ePIjvv7+MjvbWPifOAUmeyvx0zH/SCiWBcgW+qakJd+7cwd27d7u5uro63Lt3D/Qf57SM9h8nq9OMssawTu/J17La70nOGG+UNYaNMq7CWlb7rmR0nJYx+zrd6Jtl9LVRxhzWMvR12CxjvjbKupuHOrSsMb9Zt/naKKvzm2WM11rG7BtldNgso691uitfy2jflYw5zihrDJvlzNdaVvvmdFfXRllj2JWsMU7Lat+YZg5rGbOv5djnuY2SPEA+6KvVdc092qcRN6AsT11xo8+b4B99EqorxzRxgoG0gcHXBoxc8DzDbEsDnjw1YI/rGFpGfEFAEBAEegOBQUWevQGI6BAEBAFBwB0EhDzdQUlkBAFBQBAwISDkaQJELgUBQUAQcAcBIU93UBIZQUAQEARMCAh5mgCRS0FAEBAE3EFAyNMdlERGEBAEBAETAkKeJkDkUhAQBAQBdxAQ8nQHJZERBAQBQcCEgJCnCRC5FAQEAUHAHQSEPN1BSWQEAUFAEDAhIORpAkQuBQFBQBBwBwEhT3dQEhlBQBAQBEwICHmaAJFLQUAQEATcQUDI0x2UREYQEAQEARMCQp4mQORSEBAEBAF3EBDydAclkREEBAFBwISAkKcJELkUBAQBQcAdBHqVPDMyMnDlyhV3yhUZQUAQEAQGNAK9Sp7p6en44YcfBjQgUnlBQBAQBNxBgORZU1MDi8WCrKwsXL16VX0WnfH840fptPuHDhgV82t1JMwFCxYgLi4OFy9eNCZLWBAQBASBQYkAPzR5/vx5JCYmYvHixfj1118VeTKef5ov6bskz4cPH+LPP//Eli1bEBQUhGPHjqG1tbXzS5WDEjW5KUFAEHjpEeDnzr/99lsEBwdj06ZNigfJh26TJwVbWlpw8uRJhIWFKRPWarUqRVTONKMzsrGEnWa9YCFYSBsYGG2gsbERf/zxB/Lz85GcnIyoqCgUFRUpS5N86PawnYLMQJN148aNiIyMREJCgmLiffv2QZxgIG1A2sBgaQN79+5FXl4e1qxZg5iYGGUwZmdn48aNG+AUpiZOmuXGH0OXw3Ztu7e3t6sJUypOS0tDaGgoAgMD4e/v3+kCAgIgTjCQNiBtYKC3AfIbF4pIprRCSZx6uK450W3yZMaOjg7cvHlTLRrRpD106BAOHz7cxR05cgTi+h+Do0ePynOQtjjg28DzbseazwoKClBdXY1bt251szifmjz18J0TpiTRtrY2cG6ArqGhodPpOPqcE6XrKazTdB59bfQZNjutz5Vv1GXOZ9Sr5Yy+OV3n1+XodJ3HeK3DRp9h47XW4yq/TjPKm8P6WufXvo6n78ppOV1GT35PeY36zbp0Hq3TKKvDxjw6rNN0fqOvZbROfa3zGK+N+XS69rWc0dfyjHMVNufV10Zf5zP6Wp8rX5dvlDeGjXm0rPYpZ0zX+XScTjfL63Szb85vTDeH9bUuw5zXeE1ZozPn0bLa70lWl6l9LW/0dZrRZ1hfa1njtTms5Y0+8/GaFiVH2nSuLM6nJk+dwehrQqVVqh3jxAkG0gakDQzUNqA5jvV/3J/bw/aelJgB6klO4gUBQUAQGEwIPDN5DiYw5F4EAUFAEHAXAZfkaYyU8MDYmybPSZ6TtIH+awOdW5XkIfTfQxDsBXtpAwOvDfz/8qT5m75s6+gAAAAASUVORK5CYII=;" vertex="1" parent="1">
                    <mxGeometry x="21" y="400" width="335" height="239" as="geometry"/>
                </mxCell>
            </root>
        </mxGraphModel>
    </diagram>
</mxfile>